<svg version="1.1" xmlns="http://www.w3.org/2000/svg" viewBox="0 0 830.4193204525614 481.2572988341957" width="2491.257961357684" height="1443.771896502587" filter="invert(93%) hue-rotate(180deg)">
  <!-- svg-source:excalidraw -->
  
  <defs>
    <style class="style-fonts">
      @font-face {
        font-family: "Virgil";
        src: url("https://excalidraw.com/Virgil.woff2");
      }
      @font-face {
        font-family: "Cascadia";
        src: url("https://excalidraw.com/Cascadia.woff2");
      }
    </style>
    
  </defs>
  <g stroke-linecap="round" transform="translate(154.52217632576605 294.63476696813893) rotate(0 76.650390625 50.404296875)"><path d="M6.05 6.59 C6.05 6.59, 6.05 6.59, 6.05 6.59 M6.05 6.59 C6.05 6.59, 6.05 6.59, 6.05 6.59 M0.54 19.02 C7.06 16.46, 7.59 12.9, 14.98 2.42 M0.54 19.02 C5.92 13.34, 9.48 10.76, 14.98 2.42 M3.56 21.65 C9.52 18.99, 14 9.46, 21.27 1.27 M3.56 21.65 C6.84 16.15, 11.4 11.65, 21.27 1.27 M3.3 28.04 C11.56 18.68, 23.62 8.73, 26.92 0.87 M3.3 28.04 C8.78 22.79, 14.53 15.81, 26.92 0.87 M3.04 34.44 C9.65 26.66, 18.78 11.87, 31.9 1.23 M3.04 34.44 C14.17 21.88, 22 14.05, 31.9 1.23 M3.43 40.08 C11.26 29.83, 18.04 22.54, 36.89 1.59 M3.43 40.08 C11.9 27.59, 22 18.43, 36.89 1.59 M3.17 46.48 C13.14 30.67, 23.93 16.01, 42.53 1.2 M3.17 46.48 C13.84 32.48, 25.1 23.5, 42.53 1.2 M3.57 52.13 C17.24 31.4, 29.59 20.12, 47.52 1.56 M3.57 52.13 C19.07 36.12, 31.88 21.05, 47.52 1.56 M3.3 58.52 C20.05 43.07, 36.84 23.63, 53.17 1.17 M3.3 58.52 C21.38 40.98, 39.24 21.79, 53.17 1.17 M3.04 64.92 C19.05 49.78, 25.4 33.78, 58.15 1.53 M3.04 64.92 C22.3 41.88, 43.09 18.43, 58.15 1.53 M3.44 70.56 C26.48 50.85, 43.12 22.39, 63.8 1.13 M3.44 70.56 C27.01 43.77, 45.12 21.23, 63.8 1.13 M3.18 76.96 C30.48 49.32, 53.92 19.49, 68.78 1.49 M3.18 76.96 C23.44 53.11, 43.8 31.89, 68.78 1.49 M2.91 83.36 C24.05 58.92, 42.05 39.12, 74.43 1.1 M2.91 83.36 C23.45 57.95, 45.54 34.27, 74.43 1.1 M3.97 88.25 C25.69 70.27, 37.1 47.9, 79.41 1.46 M3.97 88.25 C23.45 64.86, 42.76 44.42, 79.41 1.46 M5.67 92.38 C22.51 74.52, 41.9 55.96, 85.06 1.06 M5.67 92.38 C30.06 65.83, 54.64 32.72, 85.06 1.06 M8.03 95.76 C35.14 66.5, 52.41 42.89, 90.04 1.42 M8.03 95.76 C42.58 59.3, 76.42 21.23, 90.04 1.42 M11.05 98.38 C38.08 65.44, 60.09 35.05, 95.69 1.03 M11.05 98.38 C38.13 65.92, 68.14 32.61, 95.69 1.03 M15.38 99.5 C33.69 73.5, 53.04 46.21, 100.67 1.39 M15.38 99.5 C45.12 63.22, 78.42 29.57, 100.67 1.39 M19.72 100.61 C42.6 65.21, 75.5 35.22, 106.32 0.99 M19.72 100.61 C51.39 66.48, 82.35 30.5, 106.32 0.99 M24.05 101.73 C38.46 84.6, 60.5 59.23, 111.3 1.35 M24.05 101.73 C50.1 75.42, 74.49 44.67, 111.3 1.35 M27.72 103.6 C55.82 73.59, 75.73 44.72, 116.95 0.96 M27.72 103.6 C50.71 79.24, 72.57 54.87, 116.95 0.96 M33.36 103.2 C60.92 77.52, 87.27 46.07, 121.93 1.32 M33.36 103.2 C56.21 75.66, 76.14 50.26, 121.93 1.32 M38.35 103.56 C72.2 60.83, 101.56 23.77, 128.23 0.17 M38.35 103.56 C72.17 68.19, 101.11 32.24, 128.23 0.17 M43.99 103.17 C67.34 71.5, 92.07 50.7, 132.56 1.28 M43.99 103.17 C64.45 82.94, 82.18 60.91, 132.56 1.28 M48.98 103.53 C84.55 69.36, 117.18 27.4, 136.89 2.4 M48.98 103.53 C69.1 83.33, 86.87 62.21, 136.89 2.4 M54.62 103.14 C77.17 75.67, 101.85 45.8, 141.22 3.51 M54.62 103.14 C71.81 81.62, 89.46 61.75, 141.22 3.51 M59.61 103.5 C88.05 74.67, 107.96 45.8, 144.9 5.38 M59.61 103.5 C84.02 73.12, 108.3 44.31, 144.9 5.38 M65.25 103.1 C90.96 73.04, 118.14 35.53, 147.92 8.01 M65.25 103.1 C89.64 74.29, 114.1 47.84, 147.92 8.01 M70.24 103.46 C95.73 71.47, 123.58 40.65, 150.94 10.63 M70.24 103.46 C93.3 75.14, 119.65 47.87, 150.94 10.63 M75.88 103.07 C88.88 88.8, 110.11 71.67, 151.99 15.52 M75.88 103.07 C98.17 78.36, 118.22 53.72, 151.99 15.52 M80.87 103.43 C99.71 81.4, 119.25 62.86, 153.69 19.65 M80.87 103.43 C109.81 71.69, 136.24 39.9, 153.69 19.65 M86.52 103.03 C109.35 78.97, 123.61 55.78, 153.43 26.05 M86.52 103.03 C101.71 83.58, 115.85 68.24, 153.43 26.05 M91.5 103.39 C111.55 81.63, 132.58 57.74, 153.83 31.69 M91.5 103.39 C110.17 80.52, 128.3 60.09, 153.83 31.69 M97.15 103 C113.49 86.98, 133.31 67.06, 153.57 38.09 M97.15 103 C120.32 78.41, 140.67 52.75, 153.57 38.09 M102.13 103.36 C111.09 90.14, 126.25 76.84, 153.96 43.74 M102.13 103.36 C115.15 89.26, 124.65 75.82, 153.96 43.74 M107.78 102.96 C124.54 85.42, 141.8 62.12, 153.7 50.13 M107.78 102.96 C126.96 82.98, 143.08 62.74, 153.7 50.13 M112.76 103.32 C125.52 89.74, 133.16 84.67, 154.09 55.78 M112.76 103.32 C122.61 91.84, 127.75 84.83, 154.09 55.78 M118.41 102.93 C127.54 92.22, 138.86 77.79, 153.83 62.17 M118.41 102.93 C131.87 89.9, 142.82 73.37, 153.83 62.17 M123.39 103.29 C137.11 94.46, 140.23 80.39, 153.57 68.57 M123.39 103.29 C132.55 96.49, 139.87 86.63, 153.57 68.57 M129.69 102.14 C136.14 92.53, 143.82 89.16, 153.97 74.21 M129.69 102.14 C136.84 92.47, 146.95 85.52, 153.97 74.21 M135.99 100.99 C143.71 91.89, 149.39 86.18, 156.33 77.59 M135.99 100.99 C141.29 97.29, 144.88 89.85, 156.33 77.59" stroke="#12b886" stroke-width="0.5" fill="none"></path><path d="M25.2 0 M25.2 0 C59.19 3.05, 97.54 0.97, 128.1 0 M25.2 0 C47.64 0.37, 71.97 -0.94, 128.1 0 M128.1 0 C145.76 2.51, 156.29 7.54, 153.3 25.2 M128.1 0 C142.59 2.92, 156.89 12.07, 153.3 25.2 M153.3 25.2 C156.04 37.47, 157.48 52.07, 153.3 75.61 M153.3 25.2 C154.16 44.28, 153.13 63.55, 153.3 75.61 M153.3 75.61 C155.47 91.71, 145.16 97.65, 128.1 100.81 M153.3 75.61 C155.45 87.82, 143.71 101.53, 128.1 100.81 M128.1 100.81 C95.05 97.06, 56.15 98.1, 25.2 100.81 M128.1 100.81 C106.09 103.63, 82.38 104.35, 25.2 100.81 M25.2 100.81 C6.72 100.34, -0.45 93.14, 0 75.61 M25.2 100.81 C4.96 99.67, 3.48 92.33, 0 75.61 M0 75.61 C2.64 62.48, -2.69 49.91, 0 25.2 M0 75.61 C-1.63 60.92, 0.76 47.7, 0 25.2 M0 25.2 C2.48 5.35, 10.61 -0.1, 25.2 0 M0 25.2 C-1.33 8.58, 11.47 -3.06, 25.2 0" stroke="#099268" stroke-width="1" fill="none"></path></g><g transform="translate(178.43819195076605 333.03906384313893) rotate(0 52.734375 12)"><text x="52.734375" y="0" font-family="Cascadia, Segoe UI Emoji" font-size="20px" fill="#099268" text-anchor="middle" style="white-space: pre;" direction="ltr" dominant-baseline="text-before-edge">Anwendung</text></g><g stroke-linecap="round" transform="translate(156.5403377596988 181.0980348321001) rotate(0 76.650390625 50.404296875)"><path d="M6.05 6.59 C6.05 6.59, 6.05 6.59, 6.05 6.59 M6.05 6.59 C6.05 6.59, 6.05 6.59, 6.05 6.59 M0.54 19.02 C3.52 15.75, 8.09 9.72, 14.98 2.42 M0.54 19.02 C8.29 14.44, 13.03 6.25, 14.98 2.42 M3.56 21.65 C10.29 16.65, 15.03 14.71, 21.27 1.27 M3.56 21.65 C11.45 14.48, 16.05 8.82, 21.27 1.27 M3.3 28.04 C12.28 16.52, 16.87 7.58, 26.92 0.87 M3.3 28.04 C10.63 19.54, 14.76 12.81, 26.92 0.87 M3.04 34.44 C16.27 26.33, 24.32 13.48, 31.9 1.23 M3.04 34.44 C10.32 23.87, 20.37 13.37, 31.9 1.23 M3.43 40.08 C6.96 28.27, 16.72 27.01, 36.89 1.59 M3.43 40.08 C14.34 27.69, 23.26 17.57, 36.89 1.59 M3.17 46.48 C15.1 26.25, 30.65 8.99, 42.53 1.2 M3.17 46.48 C16.64 29.56, 28.42 14.53, 42.53 1.2 M3.57 52.13 C13.17 34.84, 32.48 18.29, 47.52 1.56 M3.57 52.13 C17.53 35.37, 29.96 20.46, 47.52 1.56 M3.3 58.52 C26.44 41.04, 44.65 18.92, 53.17 1.17 M3.3 58.52 C14.28 47.61, 24.42 34.16, 53.17 1.17 M3.04 64.92 C20.61 45.35, 37.83 23.45, 58.15 1.53 M3.04 64.92 C15.92 54.56, 26.84 38.24, 58.15 1.53 M3.44 70.56 C19.98 47.91, 42.95 29.18, 63.8 1.13 M3.44 70.56 C20.41 53.6, 37.43 33.54, 63.8 1.13 M3.18 76.96 C32.91 48.79, 56.74 17.88, 68.78 1.49 M3.18 76.96 C23.02 54.24, 46.99 30, 68.78 1.49 M2.91 83.36 C30.14 50.46, 54.29 22.76, 74.43 1.1 M2.91 83.36 C28.26 54.16, 55.86 20.98, 74.43 1.1 M3.97 88.25 C28.15 55.99, 53.96 26.83, 79.41 1.46 M3.97 88.25 C25.83 69.42, 42.56 45.27, 79.41 1.46 M5.67 92.38 C26.26 73.79, 44.12 47.77, 85.06 1.06 M5.67 92.38 C32.45 59.01, 58.79 28.32, 85.06 1.06 M8.03 95.76 C31.91 70.38, 51.94 48.1, 90.04 1.42 M8.03 95.76 C29.26 72.41, 48.01 49.08, 90.04 1.42 M11.05 98.38 C40.29 65.73, 64.43 34.43, 95.69 1.03 M11.05 98.38 C32.46 75.96, 48.77 56.28, 95.69 1.03 M15.38 99.5 C45.71 67.48, 69.48 37.01, 100.67 1.39 M15.38 99.5 C46.36 61.6, 81.43 25.34, 100.67 1.39 M19.72 100.61 C53.83 59.49, 82.68 24.92, 106.32 0.99 M19.72 100.61 C37.46 81.4, 54.85 58.95, 106.32 0.99 M24.05 101.73 C50.48 64.68, 80.24 27.92, 111.3 1.35 M24.05 101.73 C46.31 79.94, 66.5 56.76, 111.3 1.35 M27.72 103.6 C58.67 75.2, 79.52 43.45, 116.95 0.96 M27.72 103.6 C62.46 65.18, 94.65 26.69, 116.95 0.96 M33.36 103.2 C60.85 78.24, 82.26 54.04, 121.93 1.32 M33.36 103.2 C66.54 66.18, 102.23 24.69, 121.93 1.32 M38.35 103.56 C77.94 59.64, 113.11 20.61, 128.23 0.17 M38.35 103.56 C68.46 70.26, 98.3 30.85, 128.23 0.17 M43.99 103.17 C61.04 78.87, 84.78 58.49, 132.56 1.28 M43.99 103.17 C66.3 76.64, 89.98 47.15, 132.56 1.28 M48.98 103.53 C66.53 80.62, 90.87 53.46, 136.89 2.4 M48.98 103.53 C81.41 64.76, 115.8 24.3, 136.89 2.4 M54.62 103.14 C81.95 72.67, 111.08 37.41, 141.22 3.51 M54.62 103.14 C71.38 81.31, 90.05 59.55, 141.22 3.51 M59.61 103.5 C76.91 80.48, 94.67 64.86, 144.9 5.38 M59.61 103.5 C84.48 75.27, 105.06 49.47, 144.9 5.38 M65.25 103.1 C87.76 78.08, 106.88 55.06, 147.92 8.01 M65.25 103.1 C95.29 66.16, 125.11 33.38, 147.92 8.01 M70.24 103.46 C95.11 74.58, 121.7 42.95, 150.94 10.63 M70.24 103.46 C95.9 76.37, 122.13 43.93, 150.94 10.63 M75.88 103.07 C99.26 82.31, 117.89 54.25, 151.99 15.52 M75.88 103.07 C102.63 74.62, 127.59 41.23, 151.99 15.52 M80.87 103.43 C108.83 69.78, 134.32 37.49, 153.69 19.65 M80.87 103.43 C104.35 78.74, 127.77 48.98, 153.69 19.65 M86.52 103.03 C113.11 72.48, 138.13 39.95, 153.43 26.05 M86.52 103.03 C113.38 73.23, 137.31 43.22, 153.43 26.05 M91.5 103.39 C103.44 84.17, 117.52 68.02, 153.83 31.69 M91.5 103.39 C113.53 79.04, 136.34 50.02, 153.83 31.69 M97.15 103 C109.23 87.09, 121.28 72.53, 153.57 38.09 M97.15 103 C120.53 79.42, 143.93 53.05, 153.57 38.09 M102.13 103.36 C112.2 93.15, 127.4 75.21, 153.96 43.74 M102.13 103.36 C114.97 91.08, 128.18 77.7, 153.96 43.74 M107.78 102.96 C125.03 86.17, 141.32 69.32, 153.7 50.13 M107.78 102.96 C125.47 87.41, 141.28 69.12, 153.7 50.13 M112.76 103.32 C123.84 84.84, 142.74 64.66, 154.09 55.78 M112.76 103.32 C123.45 93.21, 133.2 81.09, 154.09 55.78 M118.41 102.93 C126.55 90.01, 143.2 75.13, 153.83 62.17 M118.41 102.93 C128.32 91.69, 136.76 82.32, 153.83 62.17 M123.39 103.29 C132.99 97.92, 134.73 84.95, 153.57 68.57 M123.39 103.29 C135.75 88.7, 148.92 75.48, 153.57 68.57 M129.69 102.14 C133.6 95.55, 143.11 88.69, 153.97 74.21 M129.69 102.14 C138.46 92.95, 147.32 80.99, 153.97 74.21 M135.99 100.99 C143.68 91.68, 153.39 85.9, 156.33 77.59 M135.99 100.99 C142.92 91.73, 149.02 82.28, 156.33 77.59" stroke="#12b886" stroke-width="0.5" fill="none"></path><path d="M25.2 0 M25.2 0 C61.68 -3.14, 103.59 2.37, 128.1 0 M25.2 0 C47.29 -1.28, 67.56 -3.31, 128.1 0 M128.1 0 C145.32 3.57, 149.47 5.61, 153.3 25.2 M128.1 0 C142.69 1.15, 153.6 4.04, 153.3 25.2 M153.3 25.2 C157.01 40.36, 152.64 54.02, 153.3 75.61 M153.3 25.2 C152.02 36.63, 152.4 48.78, 153.3 75.61 M153.3 75.61 C155.2 94.38, 141.42 102.14, 128.1 100.81 M153.3 75.61 C149.93 90.24, 143.69 99.78, 128.1 100.81 M128.1 100.81 C100.25 101.99, 68.17 100.46, 25.2 100.81 M128.1 100.81 C92.87 102.94, 56.6 103.12, 25.2 100.81 M25.2 100.81 C6.45 104.1, 3.82 90.6, 0 75.61 M25.2 100.81 C7.13 104.38, 1.21 91.55, 0 75.61 M0 75.61 C-1.67 57.19, -1.37 36.65, 0 25.2 M0 75.61 C-2.24 64.15, 0.77 53.09, 0 25.2 M0 25.2 C3.08 6.33, 10.04 1.12, 25.2 0 M0 25.2 C0.98 5.99, 10.71 0.91, 25.2 0" stroke="#099268" stroke-width="1" fill="none"></path></g><g transform="translate(180.4563533846988 219.5023317071001) rotate(0 52.734375 12)"><text x="52.734375" y="0" font-family="Cascadia, Segoe UI Emoji" font-size="20px" fill="#099268" text-anchor="middle" style="white-space: pre;" direction="ltr" dominant-baseline="text-before-edge">Anwendung</text></g><g stroke-linecap="round" transform="translate(155.7601514304547 71.09176240864088) rotate(0 76.650390625 50.404296875)"><path d="M6.05 6.59 C6.05 6.59, 6.05 6.59, 6.05 6.59 M6.05 6.59 C6.05 6.59, 6.05 6.59, 6.05 6.59 M0.54 19.02 C2.79 13.05, 11.74 10.44, 14.98 2.42 M0.54 19.02 C3.88 16.39, 8.3 10.83, 14.98 2.42 M3.56 21.65 C14.17 15.59, 19.05 6.49, 21.27 1.27 M3.56 21.65 C8.02 16.64, 16.85 9.83, 21.27 1.27 M3.3 28.04 C12.6 15.58, 19.12 8.16, 26.92 0.87 M3.3 28.04 C10.48 19.18, 19.87 6.95, 26.92 0.87 M3.04 34.44 C11.05 20.52, 20.25 10.46, 31.9 1.23 M3.04 34.44 C12.19 28.32, 17.09 17.78, 31.9 1.23 M3.43 40.08 C13.5 33.98, 20.71 20.22, 36.89 1.59 M3.43 40.08 C14.63 25.17, 25.33 12.47, 36.89 1.59 M3.17 46.48 C14.68 34.43, 23.07 25.53, 42.53 1.2 M3.17 46.48 C14.03 35.53, 22.67 23.81, 42.53 1.2 M3.57 52.13 C18.97 34.48, 29.4 18.94, 47.52 1.56 M3.57 52.13 C15.6 40.41, 23.26 30.69, 47.52 1.56 M3.3 58.52 C22.38 40.49, 34.33 23.63, 53.17 1.17 M3.3 58.52 C20.7 36.31, 42.08 15.79, 53.17 1.17 M3.04 64.92 C25.31 38.17, 41.69 17.95, 58.15 1.53 M3.04 64.92 C14.65 52.72, 25.56 37.72, 58.15 1.53 M3.44 70.56 C20.78 44.24, 41.09 18.36, 63.8 1.13 M3.44 70.56 C19.22 55.51, 33.37 39.28, 63.8 1.13 M3.18 76.96 C26.63 57.02, 40.51 33.29, 68.78 1.49 M3.18 76.96 C29.16 48.99, 52.36 20.85, 68.78 1.49 M2.91 83.36 C25.62 63.48, 42.57 44.42, 74.43 1.1 M2.91 83.36 C29.42 53.72, 58.7 19.6, 74.43 1.1 M3.97 88.25 C37.65 51.04, 67.12 18.58, 79.41 1.46 M3.97 88.25 C29.19 60.58, 53.98 26.99, 79.41 1.46 M5.67 92.38 C20.74 70.47, 42.43 52.45, 85.06 1.06 M5.67 92.38 C25.67 68.78, 46.92 42.09, 85.06 1.06 M8.03 95.76 C24.35 74.42, 47.34 48.82, 90.04 1.42 M8.03 95.76 C38.21 59.61, 70.37 21.72, 90.04 1.42 M11.05 98.38 C37.78 68.62, 66.27 34.09, 95.69 1.03 M11.05 98.38 C27.41 77.05, 45.65 55.79, 95.69 1.03 M15.38 99.5 C32.69 76.48, 50.45 60.86, 100.67 1.39 M15.38 99.5 C40.26 71.28, 60.84 45.47, 100.67 1.39 M19.72 100.61 C43.28 74.47, 63.41 50.29, 106.32 0.99 M19.72 100.61 C51.24 61.93, 82.51 27.48, 106.32 0.99 M24.05 101.73 C50.98 70.48, 79.53 36.6, 111.3 1.35 M24.05 101.73 C51.92 72.3, 80.25 37.44, 111.3 1.35 M27.72 103.6 C54.65 78.99, 76.73 46.97, 116.95 0.96 M27.72 103.6 C58.88 69.98, 88.36 31.4, 116.95 0.96 M33.36 103.2 C67.42 62.72, 98.7 23.77, 121.93 1.32 M33.36 103.2 C62.17 72.8, 90.64 37.22, 121.93 1.32 M38.35 103.56 C73.46 62.78, 107.47 19.92, 128.23 0.17 M38.35 103.56 C73.78 63.56, 106.32 23.64, 128.23 0.17 M43.99 103.17 C62.07 77.2, 82.43 53.82, 132.56 1.28 M43.99 103.17 C75.07 67.78, 107.1 28.16, 132.56 1.28 M48.98 103.53 C68.22 79.72, 87.17 57.22, 136.89 2.4 M48.98 103.53 C85.21 66.09, 121.07 25.39, 136.89 2.4 M54.62 103.14 C71.65 84.49, 94.24 58.05, 141.22 3.51 M54.62 103.14 C76.25 81.82, 97.53 59.15, 141.22 3.51 M59.61 103.5 C90.56 70.54, 120.46 38.02, 144.9 5.38 M59.61 103.5 C91.4 73.03, 120.64 39.29, 144.9 5.38 M65.25 103.1 C91.13 66.99, 125.01 29.59, 147.92 8.01 M65.25 103.1 C85.48 80.97, 105.06 57.56, 147.92 8.01 M70.24 103.46 C91.64 75.05, 121.63 44.82, 150.94 10.63 M70.24 103.46 C91.91 80.16, 111.59 57.86, 150.94 10.63 M75.88 103.07 C96.07 85.58, 108.64 60.15, 151.99 15.52 M75.88 103.07 C107.25 67.44, 138.42 33.52, 151.99 15.52 M80.87 103.43 C94.94 85.39, 114.74 66.7, 153.69 19.65 M80.87 103.43 C106.4 74.33, 132.5 42.54, 153.69 19.65 M86.52 103.03 C110.94 74.4, 137.12 49.67, 153.43 26.05 M86.52 103.03 C110.35 73.96, 133.78 44.57, 153.43 26.05 M91.5 103.39 C112.31 73.6, 139.29 52.72, 153.83 31.69 M91.5 103.39 C106.12 88.22, 118.23 71.76, 153.83 31.69 M97.15 103 C110.71 82.01, 132.01 64.05, 153.57 38.09 M97.15 103 C106.95 91.03, 120.21 75.52, 153.57 38.09 M102.13 103.36 C119.62 85.84, 129.39 71.31, 153.96 43.74 M102.13 103.36 C116.81 83.97, 134.08 62.82, 153.96 43.74 M107.78 102.96 C119.44 92.17, 136.7 73.26, 153.7 50.13 M107.78 102.96 C124.03 83.34, 142.97 64.94, 153.7 50.13 M112.76 103.32 C127.33 93.56, 134.38 74.66, 154.09 55.78 M112.76 103.32 C129.19 84.64, 142.8 66.51, 154.09 55.78 M118.41 102.93 C125.99 95.15, 137.51 77.45, 153.83 62.17 M118.41 102.93 C130 89.41, 139.98 78.7, 153.83 62.17 M123.39 103.29 C134.25 95.65, 146.45 77.26, 153.57 68.57 M123.39 103.29 C136.59 87.37, 145.9 75.55, 153.57 68.57 M129.69 102.14 C136.63 94.78, 149.54 79.28, 153.97 74.21 M129.69 102.14 C137.06 94.23, 142.88 88.45, 153.97 74.21 M135.99 100.99 C140.62 97.49, 151.29 90.51, 156.33 77.59 M135.99 100.99 C144.48 93.22, 147.17 84.78, 156.33 77.59" stroke="#12b886" stroke-width="0.5" fill="none"></path><path d="M25.2 0 M25.2 0 C65.62 -2.12, 102.24 -5.49, 128.1 0 M25.2 0 C59.67 3.63, 93.66 0.24, 128.1 0 M128.1 0 C141.85 3.95, 153.93 10.5, 153.3 25.2 M128.1 0 C143.52 2.63, 153.46 9.25, 153.3 25.2 M153.3 25.2 C156.67 38.87, 151.36 48.42, 153.3 75.61 M153.3 25.2 C153.95 39.55, 154.73 55.63, 153.3 75.61 M153.3 75.61 C155.49 92.76, 143.83 100.99, 128.1 100.81 M153.3 75.61 C150.2 89.1, 149.36 103.51, 128.1 100.81 M128.1 100.81 C100.55 100.83, 74.65 100.94, 25.2 100.81 M128.1 100.81 C91.36 101.88, 51.16 100.87, 25.2 100.81 M25.2 100.81 C10.37 101.57, -0.66 94.26, 0 75.61 M25.2 100.81 C12.94 104.97, -3.01 93.58, 0 75.61 M0 75.61 C2.09 66.3, 0.58 49.91, 0 25.2 M0 75.61 C-0.95 56.1, -2.04 39.08, 0 25.2 M0 25.2 C-3.24 11.4, 11.73 -1.73, 25.2 0 M0 25.2 C-2.79 12.84, 5.2 3.94, 25.2 0" stroke="#099268" stroke-width="1" fill="none"></path></g><g transform="translate(179.6761670554547 109.49605928364088) rotate(0 52.734375 12)"><text x="52.734375" y="0" font-family="Cascadia, Segoe UI Emoji" font-size="20px" fill="#099268" text-anchor="middle" style="white-space: pre;" direction="ltr" dominant-baseline="text-before-edge">Anwendung</text></g><g stroke-linecap="round"><g transform="translate(123.18445596123956 432.01021832290877) rotate(0 -0.07168195785146736 -210.9050948796227)"><path d="M-0.78 0.2 C-0.74 -70.32, -0.35 -351.95, -0.4 -422.01 M1.01 -0.74 C0.98 -70.61, -0.64 -350.65, -1.15 -420.85" stroke="#099268" stroke-width="1" fill="none"></path></g><g transform="translate(123.18445596123956 432.01021832290877) rotate(0 -0.07168195785146736 -210.9050948796227)"><path d="M9.62 -392.09 C5.27 -400.27, 5.77 -408.36, 0.81 -421.13 M8.51 -392.7 C6.61 -403.74, 1.98 -413.73, -0.64 -421.54" stroke="#099268" stroke-width="1" fill="none"></path></g><g transform="translate(123.18445596123956 432.01021832290877) rotate(0 -0.07168195785146736 -210.9050948796227)"><path d="M-10.9 -391.96 C-10.19 -400.03, -4.63 -408.16, 0.81 -421.13 M-12.01 -392.57 C-6.55 -403.59, -3.82 -413.62, -0.64 -421.54" stroke="#099268" stroke-width="1" fill="none"></path></g></g><mask></mask><g transform="translate(10 21.63220914035884) rotate(0 42.1875 9.600000000000001)"><text x="42.1875" y="0" font-family="Cascadia, Segoe UI Emoji" font-size="16px" fill="#099268" text-anchor="middle" style="white-space: pre;" direction="ltr" dominant-baseline="text-before-edge">Instanzen</text></g><g stroke-linecap="round"><g transform="translate(127.0853876074616 428.8894730059313) rotate(0 346.3104467795188 -1.2480383820404484)"><path d="M-0.71 -0.72 C114.84 -1.21, 577.69 -1.62, 693.33 -2.05 M1.11 1.52 C116.56 0.57, 577.41 -3.35, 692.66 -4.01" stroke="#e8590c" stroke-width="1" fill="none"></path></g><g transform="translate(127.0853876074616 428.8894730059313) rotate(0 346.3104467795188 -1.2480383820404484)"><path d="M663.35 7.33 C673.39 4.1, 679.75 -1.23, 692.38 -2.32 M665.47 6.56 C670.21 3.63, 677.28 2.25, 693.47 -3.11" stroke="#e8590c" stroke-width="1" fill="none"></path></g><g transform="translate(127.0853876074616 428.8894730059313) rotate(0 346.3104467795188 -1.2480383820404484)"><path d="M663.2 -13.19 C673.44 -10.26, 679.85 -9.45, 692.38 -2.32 M665.32 -13.96 C670.09 -12.12, 677.2 -8.74, 693.47 -3.11" stroke="#e8590c" stroke-width="1" fill="none"></path></g></g><mask></mask><g stroke-linecap="round" transform="translate(330.52188918119816 296.5656115602701) rotate(0 76.650390625 50.404296875)"><path d="M6.05 6.59 C6.05 6.59, 6.05 6.59, 6.05 6.59 M6.05 6.59 C6.05 6.59, 6.05 6.59, 6.05 6.59 M0.54 19.02 C10.12 12.18, 10.72 3.63, 14.98 2.42 M0.54 19.02 C5.17 16.48, 9.6 11.12, 14.98 2.42 M3.56 21.65 C7.21 15.91, 14.21 10.33, 21.27 1.27 M3.56 21.65 C7.81 14.73, 10.69 9.74, 21.27 1.27 M3.3 28.04 C15.93 14.06, 24.01 7.31, 26.92 0.87 M3.3 28.04 C9.01 22.65, 12.91 16.52, 26.92 0.87 M3.04 34.44 C9.67 26.87, 21.79 8.48, 31.9 1.23 M3.04 34.44 C10.67 22.64, 23.38 12.22, 31.9 1.23 M3.43 40.08 C10.88 31.53, 22.41 21.35, 36.89 1.59 M3.43 40.08 C10.03 32.83, 17.26 23.5, 36.89 1.59 M3.17 46.48 C20.57 31.58, 31.56 8.24, 42.53 1.2 M3.17 46.48 C18.05 27.73, 35.47 10.58, 42.53 1.2 M3.57 52.13 C11.43 43.98, 19.8 34.29, 47.52 1.56 M3.57 52.13 C14.88 40.54, 24.56 26.48, 47.52 1.56 M3.3 58.52 C25.42 36.36, 40.35 12.53, 53.17 1.17 M3.3 58.52 C18.95 36.37, 38.93 17.13, 53.17 1.17 M3.04 64.92 C13.78 50.28, 26.85 37.85, 58.15 1.53 M3.04 64.92 C26.36 40.17, 47.23 13.61, 58.15 1.53 M3.44 70.56 C20.37 45.75, 38.41 23.62, 63.8 1.13 M3.44 70.56 C20.85 50.88, 39.17 32.2, 63.8 1.13 M3.18 76.96 C19.81 57.48, 41.89 33.93, 68.78 1.49 M3.18 76.96 C24.3 53.18, 49.03 25.15, 68.78 1.49 M2.91 83.36 C26.25 51.47, 50.82 26.97, 74.43 1.1 M2.91 83.36 C25.71 56.64, 52.42 25.82, 74.43 1.1 M3.97 88.25 C32.69 57.25, 56.48 26.05, 79.41 1.46 M3.97 88.25 C26.04 59.27, 49.89 33.12, 79.41 1.46 M5.67 92.38 C34.82 58.69, 58.33 31.93, 85.06 1.06 M5.67 92.38 C33.7 58.81, 65.78 21.52, 85.06 1.06 M8.03 95.76 C31.87 69.81, 58.18 34.87, 90.04 1.42 M8.03 95.76 C29 70.83, 53.24 44.25, 90.04 1.42 M11.05 98.38 C37.02 72.83, 58.05 45.29, 95.69 1.03 M11.05 98.38 C45.32 58.49, 77.21 20.05, 95.69 1.03 M15.38 99.5 C35.53 79.28, 58.17 50.45, 100.67 1.39 M15.38 99.5 C46.25 63.05, 76.65 28.16, 100.67 1.39 M19.72 100.61 C46.45 73.68, 66.81 50.03, 106.32 0.99 M19.72 100.61 C35.61 81.05, 54.99 59.44, 106.32 0.99 M24.05 101.73 C49 76.63, 65.03 50.82, 111.3 1.35 M24.05 101.73 C44.3 77.17, 66.5 54.16, 111.3 1.35 M27.72 103.6 C54.91 68.62, 85.37 35.06, 116.95 0.96 M27.72 103.6 C58.21 63.55, 94.11 24.4, 116.95 0.96 M33.36 103.2 C59.33 75.77, 84.25 46.75, 121.93 1.32 M33.36 103.2 C59.37 68.16, 87.56 35.72, 121.93 1.32 M38.35 103.56 C57.78 78.12, 84.81 48.37, 128.23 0.17 M38.35 103.56 C60.28 83.63, 76.9 59.11, 128.23 0.17 M43.99 103.17 C59.51 85.1, 84.97 56.24, 132.56 1.28 M43.99 103.17 C64.58 80.09, 84.73 58.59, 132.56 1.28 M48.98 103.53 C74.14 71.63, 101.46 45.54, 136.89 2.4 M48.98 103.53 C70.69 81.81, 91.52 57.82, 136.89 2.4 M54.62 103.14 C68.45 79.11, 88.93 64.44, 141.22 3.51 M54.62 103.14 C73.45 80.34, 94.05 55.84, 141.22 3.51 M59.61 103.5 C79.8 82.25, 104.27 52.94, 144.9 5.38 M59.61 103.5 C88.78 68.89, 119.94 34.38, 144.9 5.38 M65.25 103.1 C83.62 83.43, 102.79 63.56, 147.92 8.01 M65.25 103.1 C90.71 76.78, 112.43 52.69, 147.92 8.01 M70.24 103.46 C88.4 76.18, 113.97 51.22, 150.94 10.63 M70.24 103.46 C93.9 75.96, 120.4 48.56, 150.94 10.63 M75.88 103.07 C102.92 72.22, 124.88 41.76, 151.99 15.52 M75.88 103.07 C102.52 76.34, 127.6 46.76, 151.99 15.52 M80.87 103.43 C105.24 69.08, 136.41 38.96, 153.69 19.65 M80.87 103.43 C105.1 73.87, 134.22 41.6, 153.69 19.65 M86.52 103.03 C107.47 77.7, 129.61 56.77, 153.43 26.05 M86.52 103.03 C105.94 84.65, 121.36 65.26, 153.43 26.05 M91.5 103.39 C117.26 76.84, 141.32 43.07, 153.83 31.69 M91.5 103.39 C110.42 81.38, 133.43 55.39, 153.83 31.69 M97.15 103 C111.03 85.29, 119.11 72.08, 153.57 38.09 M97.15 103 C116.28 81.89, 131.32 62.94, 153.57 38.09 M102.13 103.36 C123.98 84.32, 140.34 58.6, 153.96 43.74 M102.13 103.36 C115.96 89.85, 130.04 70.14, 153.96 43.74 M107.78 102.96 C117.99 90.01, 133.09 76.44, 153.7 50.13 M107.78 102.96 C117.16 88.88, 128.19 76.41, 153.7 50.13 M112.76 103.32 C123.72 84.48, 145.09 72.26, 154.09 55.78 M112.76 103.32 C126.18 88.39, 140.57 70.11, 154.09 55.78 M118.41 102.93 C128.35 93.19, 136.14 76, 153.83 62.17 M118.41 102.93 C129.18 91.76, 138.02 80.84, 153.83 62.17 M123.39 103.29 C129.23 95.72, 141.57 89.12, 153.57 68.57 M123.39 103.29 C131.35 95.79, 140.06 87.6, 153.57 68.57 M129.69 102.14 C133.71 98.24, 144.43 88.9, 153.97 74.21 M129.69 102.14 C138.36 93.32, 147.07 83.38, 153.97 74.21 M135.99 100.99 C146.46 91.23, 150.69 81.63, 156.33 77.59 M135.99 100.99 C143.65 94.39, 148.77 87.18, 156.33 77.59" stroke="#ffa94d" stroke-width="0.5" fill="none"></path><path d="M25.2 0 M25.2 0 C50.71 -2.63, 67.93 -2.93, 128.1 0 M25.2 0 C55.72 0.48, 85.24 -0.25, 128.1 0 M128.1 0 C144.6 1.75, 155.68 11.56, 153.3 25.2 M128.1 0 C144.28 -2.55, 151.36 8.25, 153.3 25.2 M153.3 25.2 C156.02 43.89, 153.58 56.17, 153.3 75.61 M153.3 25.2 C153.17 44.75, 153.88 61.38, 153.3 75.61 M153.3 75.61 C151.79 93.9, 142.69 99.77, 128.1 100.81 M153.3 75.61 C150.66 91.52, 146.48 100.33, 128.1 100.81 M128.1 100.81 C104.93 103.33, 77.16 100.96, 25.2 100.81 M128.1 100.81 C91.13 101.71, 56.23 98.92, 25.2 100.81 M25.2 100.81 C5.49 102.18, -2.55 89.22, 0 75.61 M25.2 100.81 C8.07 103.67, -0.1 96.56, 0 75.61 M0 75.61 C3.16 61.56, 1.95 50.25, 0 25.2 M0 75.61 C-0.85 60.09, -0.12 42.66, 0 25.2 M0 25.2 C3.76 4.88, 9.88 0.27, 25.2 0 M0 25.2 C2.12 5.18, 11.77 1.45, 25.2 0" stroke="#e8590c" stroke-width="1" fill="none"></path></g><g transform="translate(354.43790480619816 322.9699084352701) rotate(0 52.734375 24)"><text x="52.734375" y="0" font-family="Cascadia, Segoe UI Emoji" font-size="20px" fill="#e8590c" text-anchor="middle" style="white-space: pre;" direction="ltr" dominant-baseline="text-before-edge">Anwendung</text><text x="52.734375" y="24" font-family="Cascadia, Segoe UI Emoji" font-size="20px" fill="#e8590c" text-anchor="middle" style="white-space: pre;" direction="ltr" dominant-baseline="text-before-edge">Service 1</text></g><g stroke-linecap="round" transform="translate(502.1628816149645 297.3457978895144) rotate(0 76.650390625 50.404296875)"><path d="M6.05 6.59 C6.05 6.59, 6.05 6.59, 6.05 6.59 M6.05 6.59 C6.05 6.59, 6.05 6.59, 6.05 6.59 M0.54 19.02 C6.32 11.14, 8.09 9.42, 14.98 2.42 M0.54 19.02 C4.05 12.78, 5.89 11.79, 14.98 2.42 M3.56 21.65 C10.25 17.84, 12.33 7.89, 21.27 1.27 M3.56 21.65 C6.64 17.18, 9.74 13.14, 21.27 1.27 M3.3 28.04 C11.3 22.28, 21.15 11.02, 26.92 0.87 M3.3 28.04 C9.35 21.08, 13.5 12.69, 26.92 0.87 M3.04 34.44 C7.3 27.18, 18 15.94, 31.9 1.23 M3.04 34.44 C10.6 24.87, 13.79 20.05, 31.9 1.23 M3.43 40.08 C9.76 28.55, 17.39 23.61, 36.89 1.59 M3.43 40.08 C10.91 30.64, 15.52 24.78, 36.89 1.59 M3.17 46.48 C16.87 36.43, 27.05 25.93, 42.53 1.2 M3.17 46.48 C14.06 32.76, 28.65 15.26, 42.53 1.2 M3.57 52.13 C15.48 36.29, 27.5 27.43, 47.52 1.56 M3.57 52.13 C14.67 36.97, 27.4 21.49, 47.52 1.56 M3.3 58.52 C14.12 48.24, 32.29 30.59, 53.17 1.17 M3.3 58.52 C17.14 41.5, 30.82 24.56, 53.17 1.17 M3.04 64.92 C18.17 49.71, 41.21 26.45, 58.15 1.53 M3.04 64.92 C16.65 48.75, 30.75 31.3, 58.15 1.53 M3.44 70.56 C20.84 52.22, 35.41 30.73, 63.8 1.13 M3.44 70.56 C16.96 55.1, 26.59 39.06, 63.8 1.13 M3.18 76.96 C22.04 53.6, 45.06 30.97, 68.78 1.49 M3.18 76.96 C24.26 54.78, 41.47 29.8, 68.78 1.49 M2.91 83.36 C19.1 67.51, 34.15 46.44, 74.43 1.1 M2.91 83.36 C24.68 58.03, 50.28 33.85, 74.43 1.1 M3.97 88.25 C26.14 66.89, 39.77 50.38, 79.41 1.46 M3.97 88.25 C33.22 54.66, 63.98 19.91, 79.41 1.46 M5.67 92.38 C33.65 63, 54.81 34.73, 85.06 1.06 M5.67 92.38 C34.69 58.91, 65.25 27.07, 85.06 1.06 M8.03 95.76 C33.43 68.61, 56.51 32.65, 90.04 1.42 M8.03 95.76 C31.62 70.55, 54.01 43.5, 90.04 1.42 M11.05 98.38 C35.38 69.72, 58.74 45.58, 95.69 1.03 M11.05 98.38 C41.94 65.59, 70.54 31.36, 95.69 1.03 M15.38 99.5 C45.99 65.86, 76.28 31.73, 100.67 1.39 M15.38 99.5 C47.57 60.24, 84.19 21.36, 100.67 1.39 M19.72 100.61 C52.14 68.67, 78.42 29.13, 106.32 0.99 M19.72 100.61 C45.88 69.67, 71.61 39.93, 106.32 0.99 M24.05 101.73 C62.11 64.7, 95.5 22.15, 111.3 1.35 M24.05 101.73 C45.53 73.77, 68.52 51.73, 111.3 1.35 M27.72 103.6 C53.82 71.88, 72.1 43.41, 116.95 0.96 M27.72 103.6 C56.8 69.43, 80.57 40.42, 116.95 0.96 M33.36 103.2 C59.36 69.72, 84.25 41.58, 121.93 1.32 M33.36 103.2 C55.26 75.95, 82.76 48.46, 121.93 1.32 M38.35 103.56 C68.34 69.9, 97.66 36.76, 128.23 0.17 M38.35 103.56 C70.76 68.58, 97.68 37.1, 128.23 0.17 M43.99 103.17 C74.04 69.84, 110.65 26.45, 132.56 1.28 M43.99 103.17 C64.87 78.92, 85.84 56.3, 132.56 1.28 M48.98 103.53 C72.39 77.92, 93.63 57.86, 136.89 2.4 M48.98 103.53 C79.11 68.93, 107.91 38.87, 136.89 2.4 M54.62 103.14 C79.24 70.61, 106.44 43.31, 141.22 3.51 M54.62 103.14 C80.66 73.24, 103.36 44.04, 141.22 3.51 M59.61 103.5 C79.68 78.91, 96.9 54.72, 144.9 5.38 M59.61 103.5 C90.87 65.22, 124.63 27.33, 144.9 5.38 M65.25 103.1 C91.71 74.9, 111.24 53.48, 147.92 8.01 M65.25 103.1 C88.21 81.24, 109.97 56.37, 147.92 8.01 M70.24 103.46 C102.98 67.79, 131.32 34.06, 150.94 10.63 M70.24 103.46 C97.69 70.95, 130.65 34.85, 150.94 10.63 M75.88 103.07 C101.9 65.78, 131.84 37.62, 151.99 15.52 M75.88 103.07 C97.2 75.61, 120.07 50.83, 151.99 15.52 M80.87 103.43 C96.41 78.15, 122.15 54.98, 153.69 19.65 M80.87 103.43 C102.04 80.92, 122.81 58.25, 153.69 19.65 M86.52 103.03 C103.4 80.77, 127.73 55.45, 153.43 26.05 M86.52 103.03 C100.86 87.6, 116.81 71.76, 153.43 26.05 M91.5 103.39 C112.72 83.02, 133.98 57.26, 153.83 31.69 M91.5 103.39 C107.92 84.53, 124.11 70.05, 153.83 31.69 M97.15 103 C118.76 81.54, 136.32 56.96, 153.57 38.09 M97.15 103 C118.57 77.43, 140.62 50.38, 153.57 38.09 M102.13 103.36 C114.53 86.64, 129.09 71.62, 153.96 43.74 M102.13 103.36 C120.93 81.86, 140.33 58.01, 153.96 43.74 M107.78 102.96 C115.08 88.69, 128.74 77.25, 153.7 50.13 M107.78 102.96 C117.93 92.56, 127.91 79.23, 153.7 50.13 M112.76 103.32 C122.47 97.45, 129.5 87.08, 154.09 55.78 M112.76 103.32 C127.18 86.18, 142.03 69.93, 154.09 55.78 M118.41 102.93 C127.48 91.8, 143.48 74.86, 153.83 62.17 M118.41 102.93 C129.43 91.36, 137.54 79.54, 153.83 62.17 M123.39 103.29 C129.36 92.66, 142.3 81.9, 153.57 68.57 M123.39 103.29 C132.33 92.62, 141.1 81.38, 153.57 68.57 M129.69 102.14 C136.12 90.85, 149.58 78.68, 153.97 74.21 M129.69 102.14 C134.39 97.19, 140.06 92.55, 153.97 74.21 M135.99 100.99 C143.46 90.08, 149.9 84.06, 156.33 77.59 M135.99 100.99 C140.82 94.8, 146.39 85.83, 156.33 77.59" stroke="#ffa94d" stroke-width="0.5" fill="none"></path><path d="M25.2 0 M25.2 0 C54.82 -4.31, 80.73 -0.24, 128.1 0 M25.2 0 C62.02 -0.22, 96.61 -0.92, 128.1 0 M128.1 0 C146.12 0.15, 150.59 11.27, 153.3 25.2 M128.1 0 C148.03 1.62, 157.82 9.72, 153.3 25.2 M153.3 25.2 C152.08 32.89, 153.13 48.96, 153.3 75.61 M153.3 25.2 C155.06 34.15, 152.81 46.32, 153.3 75.61 M153.3 75.61 C151.72 94.2, 145.06 103.77, 128.1 100.81 M153.3 75.61 C157.11 89.82, 148.28 100.47, 128.1 100.81 M128.1 100.81 C97.37 98.01, 73.73 102.19, 25.2 100.81 M128.1 100.81 C92.32 101.11, 52.86 101.43, 25.2 100.81 M25.2 100.81 C9.3 100.13, 1.2 93.5, 0 75.61 M25.2 100.81 C8.02 101.4, 1.32 88, 0 75.61 M0 75.61 C-1.53 61.63, 0.3 49.57, 0 25.2 M0 75.61 C0.64 59.15, 1.12 42.21, 0 25.2 M0 25.2 C-0.74 7.48, 5.12 -3.81, 25.2 0 M0 25.2 C2.55 7.04, 12.38 3.99, 25.2 0" stroke="#e8590c" stroke-width="1" fill="none"></path></g><g transform="translate(526.0788972399645 323.7500947645144) rotate(0 52.734375 24)"><text x="52.734375" y="0" font-family="Cascadia, Segoe UI Emoji" font-size="20px" fill="#e8590c" text-anchor="middle" style="white-space: pre;" direction="ltr" dominant-baseline="text-before-edge">Anwendung</text><text x="52.734375" y="24" font-family="Cascadia, Segoe UI Emoji" font-size="20px" fill="#e8590c" text-anchor="middle" style="white-space: pre;" direction="ltr" dominant-baseline="text-before-edge">Service 2</text></g><g stroke-linecap="round" transform="translate(499.8223226272311 185.77915280756662) rotate(0 76.650390625 50.404296875)"><path d="M6.05 6.59 C6.05 6.59, 6.05 6.59, 6.05 6.59 M6.05 6.59 C6.05 6.59, 6.05 6.59, 6.05 6.59 M0.54 19.02 C4.18 9.4, 9.26 3.71, 14.98 2.42 M0.54 19.02 C5.84 14.85, 8.44 11.74, 14.98 2.42 M3.56 21.65 C3.56 17.5, 11.13 10.17, 21.27 1.27 M3.56 21.65 C9.5 16.58, 11.43 10.68, 21.27 1.27 M3.3 28.04 C5.64 19.42, 14.48 14.34, 26.92 0.87 M3.3 28.04 C9.68 19.03, 17.75 10.49, 26.92 0.87 M3.04 34.44 C9.86 20.09, 24.98 7, 31.9 1.23 M3.04 34.44 C11.48 25.7, 19.62 16.15, 31.9 1.23 M3.43 40.08 C11.83 24.34, 21.94 12.69, 36.89 1.59 M3.43 40.08 C10.16 30.84, 20.81 19.25, 36.89 1.59 M3.17 46.48 C14.61 39.75, 18.34 24.67, 42.53 1.2 M3.17 46.48 C9.93 38.64, 21.59 25.44, 42.53 1.2 M3.57 52.13 C12.69 38.71, 23.74 29.36, 47.52 1.56 M3.57 52.13 C16.14 36.17, 29.81 23.13, 47.52 1.56 M3.3 58.52 C16.29 48.82, 28.19 35.07, 53.17 1.17 M3.3 58.52 C11.53 44.93, 23.08 36.07, 53.17 1.17 M3.04 64.92 C14.24 52.33, 27.86 35.07, 58.15 1.53 M3.04 64.92 C16.26 50.78, 31.63 32.53, 58.15 1.53 M3.44 70.56 C23.87 47.86, 47.51 23.33, 63.8 1.13 M3.44 70.56 C16.42 56.19, 29.99 41.67, 63.8 1.13 M3.18 76.96 C25.61 54.2, 42.03 37.1, 68.78 1.49 M3.18 76.96 C18.97 54.92, 38.69 34.47, 68.78 1.49 M2.91 83.36 C23.36 58.52, 49.49 34.64, 74.43 1.1 M2.91 83.36 C27.27 54.12, 49.77 25.64, 74.43 1.1 M3.97 88.25 C30.65 63.46, 54.7 34.32, 79.41 1.46 M3.97 88.25 C30.56 53.96, 61.37 21.38, 79.41 1.46 M5.67 92.38 C30.5 61.15, 63.74 25.37, 85.06 1.06 M5.67 92.38 C31.2 62.98, 57.39 35.12, 85.06 1.06 M8.03 95.76 C33.3 74.06, 51.15 50.25, 90.04 1.42 M8.03 95.76 C40.56 58.85, 72.73 18.8, 90.04 1.42 M11.05 98.38 C36.24 69.5, 68.87 32.9, 95.69 1.03 M11.05 98.38 C31.05 74.9, 47.14 54.44, 95.69 1.03 M15.38 99.5 C44.97 66.87, 66.39 38.96, 100.67 1.39 M15.38 99.5 C46.98 65.31, 76.86 27.49, 100.67 1.39 M19.72 100.61 C42.84 78.62, 66.38 44.49, 106.32 0.99 M19.72 100.61 C43.29 75.31, 67.92 48.88, 106.32 0.99 M24.05 101.73 C41.76 74.77, 62.7 51.13, 111.3 1.35 M24.05 101.73 C52.8 66.38, 86.37 33.95, 111.3 1.35 M27.72 103.6 C56.86 71.16, 87.85 32.07, 116.95 0.96 M27.72 103.6 C52.06 75.93, 76.61 43.56, 116.95 0.96 M33.36 103.2 C59.34 75.45, 81.57 48.38, 121.93 1.32 M33.36 103.2 C54.21 78.59, 78.77 54.15, 121.93 1.32 M38.35 103.56 C61.79 80.11, 86.11 55.81, 128.23 0.17 M38.35 103.56 C64.66 76.37, 92.86 45.43, 128.23 0.17 M43.99 103.17 C76.11 68.75, 108.18 32.03, 132.56 1.28 M43.99 103.17 C80.29 64.61, 112.02 25.74, 132.56 1.28 M48.98 103.53 C79.08 72.69, 104.35 40.99, 136.89 2.4 M48.98 103.53 C70.97 79.56, 87.77 56.69, 136.89 2.4 M54.62 103.14 C82.16 76.13, 106.65 45.78, 141.22 3.51 M54.62 103.14 C80.67 72.69, 103.32 42.97, 141.22 3.51 M59.61 103.5 C87.39 78.93, 111.84 47.37, 144.9 5.38 M59.61 103.5 C79.52 78.49, 102.77 54.94, 144.9 5.38 M65.25 103.1 C92.57 68.31, 121.29 35.45, 147.92 8.01 M65.25 103.1 C93.86 70.88, 122.13 42.21, 147.92 8.01 M70.24 103.46 C97.68 70.75, 119.2 45.71, 150.94 10.63 M70.24 103.46 C92.07 80.12, 109.99 58.02, 150.94 10.63 M75.88 103.07 C103.14 70.22, 127.26 41.48, 151.99 15.52 M75.88 103.07 C99.33 75.58, 123.7 46.24, 151.99 15.52 M80.87 103.43 C107.04 74.35, 127.78 51.65, 153.69 19.65 M80.87 103.43 C107.88 73.22, 132.44 45.49, 153.69 19.65 M86.52 103.03 C106.35 77.84, 132.58 44.47, 153.43 26.05 M86.52 103.03 C103.31 85.15, 117.83 69.6, 153.43 26.05 M91.5 103.39 C104.58 85.25, 123.73 72.36, 153.83 31.69 M91.5 103.39 C116.06 76.33, 136.8 52.03, 153.83 31.69 M97.15 103 C113.07 89.51, 128.26 71.64, 153.57 38.09 M97.15 103 C114.37 83.42, 132.67 61.6, 153.57 38.09 M102.13 103.36 C119.85 77.18, 140.43 59.3, 153.96 43.74 M102.13 103.36 C120.5 81.97, 142.55 57.42, 153.96 43.74 M107.78 102.96 C123.62 83.91, 142.37 63.58, 153.7 50.13 M107.78 102.96 C118.39 92.03, 128.92 76.18, 153.7 50.13 M112.76 103.32 C123.09 88.48, 141.02 70.23, 154.09 55.78 M112.76 103.32 C126.9 84.4, 143.68 67.43, 154.09 55.78 M118.41 102.93 C133.9 86.1, 145.74 74.01, 153.83 62.17 M118.41 102.93 C126.34 89.53, 138.22 80.5, 153.83 62.17 M123.39 103.29 C138.32 93.18, 145.67 81.12, 153.57 68.57 M123.39 103.29 C133.79 91.74, 143.24 81.28, 153.57 68.57 M129.69 102.14 C134.33 94.5, 139.24 90.63, 153.97 74.21 M129.69 102.14 C139.03 94.17, 145.3 85.71, 153.97 74.21 M135.99 100.99 C138.88 90.28, 150.46 85.91, 156.33 77.59 M135.99 100.99 C145.21 89.59, 151.88 81.09, 156.33 77.59" stroke="#ffa94d" stroke-width="0.5" fill="none"></path><path d="M25.2 0 M25.2 0 C50.28 -0.81, 80.85 -0.82, 128.1 0 M25.2 0 C58.52 -0.45, 91.1 0.78, 128.1 0 M128.1 0 C142.13 2.93, 157.17 6.66, 153.3 25.2 M128.1 0 C144.31 -1.04, 155.88 8.82, 153.3 25.2 M153.3 25.2 C149.43 40.69, 153.23 49.24, 153.3 75.61 M153.3 25.2 C151.35 37.17, 153.18 50.39, 153.3 75.61 M153.3 75.61 C153.68 90.48, 146.49 104.61, 128.1 100.81 M153.3 75.61 C155.8 94.43, 146.31 98.66, 128.1 100.81 M128.1 100.81 C98.34 102.69, 70.37 102.39, 25.2 100.81 M128.1 100.81 C106.27 104.6, 85.96 102.49, 25.2 100.81 M25.2 100.81 C9.98 99.12, -0.6 93.44, 0 75.61 M25.2 100.81 C10.07 96.54, -3.87 90.88, 0 75.61 M0 75.61 C-3.16 63.37, -0.69 51.24, 0 25.2 M0 75.61 C1.53 62.47, 0.97 52.79, 0 25.2 M0 25.2 C-0.51 9.69, 11.64 -1.03, 25.2 0 M0 25.2 C0.24 7.78, 6.05 3.29, 25.2 0" stroke="#e8590c" stroke-width="1" fill="none"></path></g><g transform="translate(523.7383382522311 212.18344968256662) rotate(0 52.734375 24)"><text x="52.734375" y="0" font-family="Cascadia, Segoe UI Emoji" font-size="20px" fill="#e8590c" text-anchor="middle" style="white-space: pre;" direction="ltr" dominant-baseline="text-before-edge">Anwendung</text><text x="52.734375" y="24" font-family="Cascadia, Segoe UI Emoji" font-size="20px" fill="#e8590c" text-anchor="middle" style="white-space: pre;" direction="ltr" dominant-baseline="text-before-edge">Service 2</text></g><g transform="translate(740.2607861972842 452.0572988341957) rotate(0 37.5 9.599999999999994)"><text x="37.5" y="0" font-family="Cascadia, Segoe UI Emoji" font-size="16px" fill="#e8590c" text-anchor="middle" style="white-space: pre;" direction="ltr" dominant-baseline="text-before-edge">Services</text></g></svg>