<svg version="1.1" xmlns="http://www.w3.org/2000/svg" viewBox="0 0 319.8411190096988 442.2102468865721" width="959.5233570290964" height="1326.6307406597164" filter="invert(93%) hue-rotate(180deg)">
  <!-- svg-source:excalidraw -->
  
  <defs>
    <style class="style-fonts">
      @font-face {
        font-family: "Virgil";
        src: url("https://excalidraw.com/Virgil.woff2");
      }
      @font-face {
        font-family: "Cascadia";
        src: url("https://excalidraw.com/Cascadia.woff2");
      }
    </style>
    
  </defs>
  <g stroke-linecap="round" transform="translate(154.52217632576605 294.63476696813893) rotate(0 76.650390625 50.404296875)"><path d="M6.05 6.59 C6.05 6.59, 6.05 6.59, 6.05 6.59 M6.05 6.59 C6.05 6.59, 6.05 6.59, 6.05 6.59 M0.54 19.02 C7.06 16.46, 7.59 12.9, 14.98 2.42 M0.54 19.02 C5.92 13.34, 9.48 10.76, 14.98 2.42 M3.56 21.65 C9.52 18.99, 14 9.46, 21.27 1.27 M3.56 21.65 C6.84 16.15, 11.4 11.65, 21.27 1.27 M3.3 28.04 C11.56 18.68, 23.62 8.73, 26.92 0.87 M3.3 28.04 C8.78 22.79, 14.53 15.81, 26.92 0.87 M3.04 34.44 C9.65 26.66, 18.78 11.87, 31.9 1.23 M3.04 34.44 C14.17 21.88, 22 14.05, 31.9 1.23 M3.43 40.08 C11.26 29.83, 18.04 22.54, 36.89 1.59 M3.43 40.08 C11.9 27.59, 22 18.43, 36.89 1.59 M3.17 46.48 C13.14 30.67, 23.93 16.01, 42.53 1.2 M3.17 46.48 C13.84 32.48, 25.1 23.5, 42.53 1.2 M3.57 52.13 C17.24 31.4, 29.59 20.12, 47.52 1.56 M3.57 52.13 C19.07 36.12, 31.88 21.05, 47.52 1.56 M3.3 58.52 C20.05 43.07, 36.84 23.63, 53.17 1.17 M3.3 58.52 C21.38 40.98, 39.24 21.79, 53.17 1.17 M3.04 64.92 C19.05 49.78, 25.4 33.78, 58.15 1.53 M3.04 64.92 C22.3 41.88, 43.09 18.43, 58.15 1.53 M3.44 70.56 C26.48 50.85, 43.12 22.39, 63.8 1.13 M3.44 70.56 C27.01 43.77, 45.12 21.23, 63.8 1.13 M3.18 76.96 C30.48 49.32, 53.92 19.49, 68.78 1.49 M3.18 76.96 C23.44 53.11, 43.8 31.89, 68.78 1.49 M2.91 83.36 C24.05 58.92, 42.05 39.12, 74.43 1.1 M2.91 83.36 C23.45 57.95, 45.54 34.27, 74.43 1.1 M3.97 88.25 C25.69 70.27, 37.1 47.9, 79.41 1.46 M3.97 88.25 C23.45 64.86, 42.76 44.42, 79.41 1.46 M5.67 92.38 C22.51 74.52, 41.9 55.96, 85.06 1.06 M5.67 92.38 C30.06 65.83, 54.64 32.72, 85.06 1.06 M8.03 95.76 C35.14 66.5, 52.41 42.89, 90.04 1.42 M8.03 95.76 C42.58 59.3, 76.42 21.23, 90.04 1.42 M11.05 98.38 C38.08 65.44, 60.09 35.05, 95.69 1.03 M11.05 98.38 C38.13 65.92, 68.14 32.61, 95.69 1.03 M15.38 99.5 C33.69 73.5, 53.04 46.21, 100.67 1.39 M15.38 99.5 C45.12 63.22, 78.42 29.57, 100.67 1.39 M19.72 100.61 C42.6 65.21, 75.5 35.22, 106.32 0.99 M19.72 100.61 C51.39 66.48, 82.35 30.5, 106.32 0.99 M24.05 101.73 C38.46 84.6, 60.5 59.23, 111.3 1.35 M24.05 101.73 C50.1 75.42, 74.49 44.67, 111.3 1.35 M27.72 103.6 C55.82 73.59, 75.73 44.72, 116.95 0.96 M27.72 103.6 C50.71 79.24, 72.57 54.87, 116.95 0.96 M33.36 103.2 C60.92 77.52, 87.27 46.07, 121.93 1.32 M33.36 103.2 C56.21 75.66, 76.14 50.26, 121.93 1.32 M38.35 103.56 C72.2 60.83, 101.56 23.77, 128.23 0.17 M38.35 103.56 C72.17 68.19, 101.11 32.24, 128.23 0.17 M43.99 103.17 C67.34 71.5, 92.07 50.7, 132.56 1.28 M43.99 103.17 C64.45 82.94, 82.18 60.91, 132.56 1.28 M48.98 103.53 C84.55 69.36, 117.18 27.4, 136.89 2.4 M48.98 103.53 C69.1 83.33, 86.87 62.21, 136.89 2.4 M54.62 103.14 C77.17 75.67, 101.85 45.8, 141.22 3.51 M54.62 103.14 C71.81 81.62, 89.46 61.75, 141.22 3.51 M59.61 103.5 C88.05 74.67, 107.96 45.8, 144.9 5.38 M59.61 103.5 C84.02 73.12, 108.3 44.31, 144.9 5.38 M65.25 103.1 C90.96 73.04, 118.14 35.53, 147.92 8.01 M65.25 103.1 C89.64 74.29, 114.1 47.84, 147.92 8.01 M70.24 103.46 C95.73 71.47, 123.58 40.65, 150.94 10.63 M70.24 103.46 C93.3 75.14, 119.65 47.87, 150.94 10.63 M75.88 103.07 C88.88 88.8, 110.11 71.67, 151.99 15.52 M75.88 103.07 C98.17 78.36, 118.22 53.72, 151.99 15.52 M80.87 103.43 C99.71 81.4, 119.25 62.86, 153.69 19.65 M80.87 103.43 C109.81 71.69, 136.24 39.9, 153.69 19.65 M86.52 103.03 C109.35 78.97, 123.61 55.78, 153.43 26.05 M86.52 103.03 C101.71 83.58, 115.85 68.24, 153.43 26.05 M91.5 103.39 C111.55 81.63, 132.58 57.74, 153.83 31.69 M91.5 103.39 C110.17 80.52, 128.3 60.09, 153.83 31.69 M97.15 103 C113.49 86.98, 133.31 67.06, 153.57 38.09 M97.15 103 C120.32 78.41, 140.67 52.75, 153.57 38.09 M102.13 103.36 C111.09 90.14, 126.25 76.84, 153.96 43.74 M102.13 103.36 C115.15 89.26, 124.65 75.82, 153.96 43.74 M107.78 102.96 C124.54 85.42, 141.8 62.12, 153.7 50.13 M107.78 102.96 C126.96 82.98, 143.08 62.74, 153.7 50.13 M112.76 103.32 C125.52 89.74, 133.16 84.67, 154.09 55.78 M112.76 103.32 C122.61 91.84, 127.75 84.83, 154.09 55.78 M118.41 102.93 C127.54 92.22, 138.86 77.79, 153.83 62.17 M118.41 102.93 C131.87 89.9, 142.82 73.37, 153.83 62.17 M123.39 103.29 C137.11 94.46, 140.23 80.39, 153.57 68.57 M123.39 103.29 C132.55 96.49, 139.87 86.63, 153.57 68.57 M129.69 102.14 C136.14 92.53, 143.82 89.16, 153.97 74.21 M129.69 102.14 C136.84 92.47, 146.95 85.52, 153.97 74.21 M135.99 100.99 C143.71 91.89, 149.39 86.18, 156.33 77.59 M135.99 100.99 C141.29 97.29, 144.88 89.85, 156.33 77.59" stroke="#ffa94d" stroke-width="0.5" fill="none"></path><path d="M25.2 0 M25.2 0 C59.19 3.05, 97.54 0.97, 128.1 0 M25.2 0 C47.64 0.37, 71.97 -0.94, 128.1 0 M128.1 0 C145.76 2.51, 156.29 7.54, 153.3 25.2 M128.1 0 C142.59 2.92, 156.89 12.07, 153.3 25.2 M153.3 25.2 C156.04 37.47, 157.48 52.07, 153.3 75.61 M153.3 25.2 C154.16 44.28, 153.13 63.55, 153.3 75.61 M153.3 75.61 C155.47 91.71, 145.16 97.65, 128.1 100.81 M153.3 75.61 C155.45 87.82, 143.71 101.53, 128.1 100.81 M128.1 100.81 C95.05 97.06, 56.15 98.1, 25.2 100.81 M128.1 100.81 C106.09 103.63, 82.38 104.35, 25.2 100.81 M25.2 100.81 C6.72 100.34, -0.45 93.14, 0 75.61 M25.2 100.81 C4.96 99.67, 3.48 92.33, 0 75.61 M0 75.61 C2.64 62.48, -2.69 49.91, 0 25.2 M0 75.61 C-1.63 60.92, 0.76 47.7, 0 25.2 M0 25.2 C2.48 5.35, 10.61 -0.1, 25.2 0 M0 25.2 C-1.33 8.58, 11.47 -3.06, 25.2 0" stroke="#e8590c" stroke-width="1" fill="none"></path></g><g transform="translate(178.43819195076605 333.03906384313893) rotate(0 52.734375 12)"><text x="52.734375" y="0" font-family="Cascadia, Segoe UI Emoji" font-size="20px" fill="#e8590c" text-anchor="middle" style="white-space: pre;" direction="ltr" dominant-baseline="text-before-edge">Anwendung</text></g><g stroke-linecap="round" transform="translate(156.5403377596988 181.0980348321001) rotate(0 76.650390625 50.404296875)"><path d="M6.05 6.59 C6.05 6.59, 6.05 6.59, 6.05 6.59 M6.05 6.59 C6.05 6.59, 6.05 6.59, 6.05 6.59 M0.54 19.02 C3.52 15.75, 8.09 9.72, 14.98 2.42 M0.54 19.02 C8.29 14.44, 13.03 6.25, 14.98 2.42 M3.56 21.65 C10.29 16.65, 15.03 14.71, 21.27 1.27 M3.56 21.65 C11.45 14.48, 16.05 8.82, 21.27 1.27 M3.3 28.04 C12.28 16.52, 16.87 7.58, 26.92 0.87 M3.3 28.04 C10.63 19.54, 14.76 12.81, 26.92 0.87 M3.04 34.44 C16.27 26.33, 24.32 13.48, 31.9 1.23 M3.04 34.44 C10.32 23.87, 20.37 13.37, 31.9 1.23 M3.43 40.08 C6.96 28.27, 16.72 27.01, 36.89 1.59 M3.43 40.08 C14.34 27.69, 23.26 17.57, 36.89 1.59 M3.17 46.48 C15.1 26.25, 30.65 8.99, 42.53 1.2 M3.17 46.48 C16.64 29.56, 28.42 14.53, 42.53 1.2 M3.57 52.13 C13.17 34.84, 32.48 18.29, 47.52 1.56 M3.57 52.13 C17.53 35.37, 29.96 20.46, 47.52 1.56 M3.3 58.52 C26.44 41.04, 44.65 18.92, 53.17 1.17 M3.3 58.52 C14.28 47.61, 24.42 34.16, 53.17 1.17 M3.04 64.92 C20.61 45.35, 37.83 23.45, 58.15 1.53 M3.04 64.92 C15.92 54.56, 26.84 38.24, 58.15 1.53 M3.44 70.56 C19.98 47.91, 42.95 29.18, 63.8 1.13 M3.44 70.56 C20.41 53.6, 37.43 33.54, 63.8 1.13 M3.18 76.96 C32.91 48.79, 56.74 17.88, 68.78 1.49 M3.18 76.96 C23.02 54.24, 46.99 30, 68.78 1.49 M2.91 83.36 C30.14 50.46, 54.29 22.76, 74.43 1.1 M2.91 83.36 C28.26 54.16, 55.86 20.98, 74.43 1.1 M3.97 88.25 C28.15 55.99, 53.96 26.83, 79.41 1.46 M3.97 88.25 C25.83 69.42, 42.56 45.27, 79.41 1.46 M5.67 92.38 C26.26 73.79, 44.12 47.77, 85.06 1.06 M5.67 92.38 C32.45 59.01, 58.79 28.32, 85.06 1.06 M8.03 95.76 C31.91 70.38, 51.94 48.1, 90.04 1.42 M8.03 95.76 C29.26 72.41, 48.01 49.08, 90.04 1.42 M11.05 98.38 C40.29 65.73, 64.43 34.43, 95.69 1.03 M11.05 98.38 C32.46 75.96, 48.77 56.28, 95.69 1.03 M15.38 99.5 C45.71 67.48, 69.48 37.01, 100.67 1.39 M15.38 99.5 C46.36 61.6, 81.43 25.34, 100.67 1.39 M19.72 100.61 C53.83 59.49, 82.68 24.92, 106.32 0.99 M19.72 100.61 C37.46 81.4, 54.85 58.95, 106.32 0.99 M24.05 101.73 C50.48 64.68, 80.24 27.92, 111.3 1.35 M24.05 101.73 C46.31 79.94, 66.5 56.76, 111.3 1.35 M27.72 103.6 C58.67 75.2, 79.52 43.45, 116.95 0.96 M27.72 103.6 C62.46 65.18, 94.65 26.69, 116.95 0.96 M33.36 103.2 C60.85 78.24, 82.26 54.04, 121.93 1.32 M33.36 103.2 C66.54 66.18, 102.23 24.69, 121.93 1.32 M38.35 103.56 C77.94 59.64, 113.11 20.61, 128.23 0.17 M38.35 103.56 C68.46 70.26, 98.3 30.85, 128.23 0.17 M43.99 103.17 C61.04 78.87, 84.78 58.49, 132.56 1.28 M43.99 103.17 C66.3 76.64, 89.98 47.15, 132.56 1.28 M48.98 103.53 C66.53 80.62, 90.87 53.46, 136.89 2.4 M48.98 103.53 C81.41 64.76, 115.8 24.3, 136.89 2.4 M54.62 103.14 C81.95 72.67, 111.08 37.41, 141.22 3.51 M54.62 103.14 C71.38 81.31, 90.05 59.55, 141.22 3.51 M59.61 103.5 C76.91 80.48, 94.67 64.86, 144.9 5.38 M59.61 103.5 C84.48 75.27, 105.06 49.47, 144.9 5.38 M65.25 103.1 C87.76 78.08, 106.88 55.06, 147.92 8.01 M65.25 103.1 C95.29 66.16, 125.11 33.38, 147.92 8.01 M70.24 103.46 C95.11 74.58, 121.7 42.95, 150.94 10.63 M70.24 103.46 C95.9 76.37, 122.13 43.93, 150.94 10.63 M75.88 103.07 C99.26 82.31, 117.89 54.25, 151.99 15.52 M75.88 103.07 C102.63 74.62, 127.59 41.23, 151.99 15.52 M80.87 103.43 C108.83 69.78, 134.32 37.49, 153.69 19.65 M80.87 103.43 C104.35 78.74, 127.77 48.98, 153.69 19.65 M86.52 103.03 C113.11 72.48, 138.13 39.95, 153.43 26.05 M86.52 103.03 C113.38 73.23, 137.31 43.22, 153.43 26.05 M91.5 103.39 C103.44 84.17, 117.52 68.02, 153.83 31.69 M91.5 103.39 C113.53 79.04, 136.34 50.02, 153.83 31.69 M97.15 103 C109.23 87.09, 121.28 72.53, 153.57 38.09 M97.15 103 C120.53 79.42, 143.93 53.05, 153.57 38.09 M102.13 103.36 C112.2 93.15, 127.4 75.21, 153.96 43.74 M102.13 103.36 C114.97 91.08, 128.18 77.7, 153.96 43.74 M107.78 102.96 C125.03 86.17, 141.32 69.32, 153.7 50.13 M107.78 102.96 C125.47 87.41, 141.28 69.12, 153.7 50.13 M112.76 103.32 C123.84 84.84, 142.74 64.66, 154.09 55.78 M112.76 103.32 C123.45 93.21, 133.2 81.09, 154.09 55.78 M118.41 102.93 C126.55 90.01, 143.2 75.13, 153.83 62.17 M118.41 102.93 C128.32 91.69, 136.76 82.32, 153.83 62.17 M123.39 103.29 C132.99 97.92, 134.73 84.95, 153.57 68.57 M123.39 103.29 C135.75 88.7, 148.92 75.48, 153.57 68.57 M129.69 102.14 C133.6 95.55, 143.11 88.69, 153.97 74.21 M129.69 102.14 C138.46 92.95, 147.32 80.99, 153.97 74.21 M135.99 100.99 C143.68 91.68, 153.39 85.9, 156.33 77.59 M135.99 100.99 C142.92 91.73, 149.02 82.28, 156.33 77.59" stroke="#ffa94d" stroke-width="0.5" fill="none"></path><path d="M25.2 0 M25.2 0 C61.68 -3.14, 103.59 2.37, 128.1 0 M25.2 0 C47.29 -1.28, 67.56 -3.31, 128.1 0 M128.1 0 C145.32 3.57, 149.47 5.61, 153.3 25.2 M128.1 0 C142.69 1.15, 153.6 4.04, 153.3 25.2 M153.3 25.2 C157.01 40.36, 152.64 54.02, 153.3 75.61 M153.3 25.2 C152.02 36.63, 152.4 48.78, 153.3 75.61 M153.3 75.61 C155.2 94.38, 141.42 102.14, 128.1 100.81 M153.3 75.61 C149.93 90.24, 143.69 99.78, 128.1 100.81 M128.1 100.81 C100.25 101.99, 68.17 100.46, 25.2 100.81 M128.1 100.81 C92.87 102.94, 56.6 103.12, 25.2 100.81 M25.2 100.81 C6.45 104.1, 3.82 90.6, 0 75.61 M25.2 100.81 C7.13 104.38, 1.21 91.55, 0 75.61 M0 75.61 C-1.67 57.19, -1.37 36.65, 0 25.2 M0 75.61 C-2.24 64.15, 0.77 53.09, 0 25.2 M0 25.2 C3.08 6.33, 10.04 1.12, 25.2 0 M0 25.2 C0.98 5.99, 10.71 0.91, 25.2 0" stroke="#e8590c" stroke-width="1" fill="none"></path></g><g transform="translate(180.4563533846988 219.5023317071001) rotate(0 52.734375 12)"><text x="52.734375" y="0" font-family="Cascadia, Segoe UI Emoji" font-size="20px" fill="#e8590c" text-anchor="middle" style="white-space: pre;" direction="ltr" dominant-baseline="text-before-edge">Anwendung</text></g><g stroke-linecap="round" transform="translate(155.7601514304547 71.09176240864088) rotate(0 76.650390625 50.404296875)"><path d="M6.05 6.59 C6.05 6.59, 6.05 6.59, 6.05 6.59 M6.05 6.59 C6.05 6.59, 6.05 6.59, 6.05 6.59 M0.54 19.02 C2.79 13.05, 11.74 10.44, 14.98 2.42 M0.54 19.02 C3.88 16.39, 8.3 10.83, 14.98 2.42 M3.56 21.65 C14.17 15.59, 19.05 6.49, 21.27 1.27 M3.56 21.65 C8.02 16.64, 16.85 9.83, 21.27 1.27 M3.3 28.04 C12.6 15.58, 19.12 8.16, 26.92 0.87 M3.3 28.04 C10.48 19.18, 19.87 6.95, 26.92 0.87 M3.04 34.44 C11.05 20.52, 20.25 10.46, 31.9 1.23 M3.04 34.44 C12.19 28.32, 17.09 17.78, 31.9 1.23 M3.43 40.08 C13.5 33.98, 20.71 20.22, 36.89 1.59 M3.43 40.08 C14.63 25.17, 25.33 12.47, 36.89 1.59 M3.17 46.48 C14.68 34.43, 23.07 25.53, 42.53 1.2 M3.17 46.48 C14.03 35.53, 22.67 23.81, 42.53 1.2 M3.57 52.13 C18.97 34.48, 29.4 18.94, 47.52 1.56 M3.57 52.13 C15.6 40.41, 23.26 30.69, 47.52 1.56 M3.3 58.52 C22.38 40.49, 34.33 23.63, 53.17 1.17 M3.3 58.52 C20.7 36.31, 42.08 15.79, 53.17 1.17 M3.04 64.92 C25.31 38.17, 41.69 17.95, 58.15 1.53 M3.04 64.92 C14.65 52.72, 25.56 37.72, 58.15 1.53 M3.44 70.56 C20.78 44.24, 41.09 18.36, 63.8 1.13 M3.44 70.56 C19.22 55.51, 33.37 39.28, 63.8 1.13 M3.18 76.96 C26.63 57.02, 40.51 33.29, 68.78 1.49 M3.18 76.96 C29.16 48.99, 52.36 20.85, 68.78 1.49 M2.91 83.36 C25.62 63.48, 42.57 44.42, 74.43 1.1 M2.91 83.36 C29.42 53.72, 58.7 19.6, 74.43 1.1 M3.97 88.25 C37.65 51.04, 67.12 18.58, 79.41 1.46 M3.97 88.25 C29.19 60.58, 53.98 26.99, 79.41 1.46 M5.67 92.38 C20.74 70.47, 42.43 52.45, 85.06 1.06 M5.67 92.38 C25.67 68.78, 46.92 42.09, 85.06 1.06 M8.03 95.76 C24.35 74.42, 47.34 48.82, 90.04 1.42 M8.03 95.76 C38.21 59.61, 70.37 21.72, 90.04 1.42 M11.05 98.38 C37.78 68.62, 66.27 34.09, 95.69 1.03 M11.05 98.38 C27.41 77.05, 45.65 55.79, 95.69 1.03 M15.38 99.5 C32.69 76.48, 50.45 60.86, 100.67 1.39 M15.38 99.5 C40.26 71.28, 60.84 45.47, 100.67 1.39 M19.72 100.61 C43.28 74.47, 63.41 50.29, 106.32 0.99 M19.72 100.61 C51.24 61.93, 82.51 27.48, 106.32 0.99 M24.05 101.73 C50.98 70.48, 79.53 36.6, 111.3 1.35 M24.05 101.73 C51.92 72.3, 80.25 37.44, 111.3 1.35 M27.72 103.6 C54.65 78.99, 76.73 46.97, 116.95 0.96 M27.72 103.6 C58.88 69.98, 88.36 31.4, 116.95 0.96 M33.36 103.2 C67.42 62.72, 98.7 23.77, 121.93 1.32 M33.36 103.2 C62.17 72.8, 90.64 37.22, 121.93 1.32 M38.35 103.56 C73.46 62.78, 107.47 19.92, 128.23 0.17 M38.35 103.56 C73.78 63.56, 106.32 23.64, 128.23 0.17 M43.99 103.17 C62.07 77.2, 82.43 53.82, 132.56 1.28 M43.99 103.17 C75.07 67.78, 107.1 28.16, 132.56 1.28 M48.98 103.53 C68.22 79.72, 87.17 57.22, 136.89 2.4 M48.98 103.53 C85.21 66.09, 121.07 25.39, 136.89 2.4 M54.62 103.14 C71.65 84.49, 94.24 58.05, 141.22 3.51 M54.62 103.14 C76.25 81.82, 97.53 59.15, 141.22 3.51 M59.61 103.5 C90.56 70.54, 120.46 38.02, 144.9 5.38 M59.61 103.5 C91.4 73.03, 120.64 39.29, 144.9 5.38 M65.25 103.1 C91.13 66.99, 125.01 29.59, 147.92 8.01 M65.25 103.1 C85.48 80.97, 105.06 57.56, 147.92 8.01 M70.24 103.46 C91.64 75.05, 121.63 44.82, 150.94 10.63 M70.24 103.46 C91.91 80.16, 111.59 57.86, 150.94 10.63 M75.88 103.07 C96.07 85.58, 108.64 60.15, 151.99 15.52 M75.88 103.07 C107.25 67.44, 138.42 33.52, 151.99 15.52 M80.87 103.43 C94.94 85.39, 114.74 66.7, 153.69 19.65 M80.87 103.43 C106.4 74.33, 132.5 42.54, 153.69 19.65 M86.52 103.03 C110.94 74.4, 137.12 49.67, 153.43 26.05 M86.52 103.03 C110.35 73.96, 133.78 44.57, 153.43 26.05 M91.5 103.39 C112.31 73.6, 139.29 52.72, 153.83 31.69 M91.5 103.39 C106.12 88.22, 118.23 71.76, 153.83 31.69 M97.15 103 C110.71 82.01, 132.01 64.05, 153.57 38.09 M97.15 103 C106.95 91.03, 120.21 75.52, 153.57 38.09 M102.13 103.36 C119.62 85.84, 129.39 71.31, 153.96 43.74 M102.13 103.36 C116.81 83.97, 134.08 62.82, 153.96 43.74 M107.78 102.96 C119.44 92.17, 136.7 73.26, 153.7 50.13 M107.78 102.96 C124.03 83.34, 142.97 64.94, 153.7 50.13 M112.76 103.32 C127.33 93.56, 134.38 74.66, 154.09 55.78 M112.76 103.32 C129.19 84.64, 142.8 66.51, 154.09 55.78 M118.41 102.93 C125.99 95.15, 137.51 77.45, 153.83 62.17 M118.41 102.93 C130 89.41, 139.98 78.7, 153.83 62.17 M123.39 103.29 C134.25 95.65, 146.45 77.26, 153.57 68.57 M123.39 103.29 C136.59 87.37, 145.9 75.55, 153.57 68.57 M129.69 102.14 C136.63 94.78, 149.54 79.28, 153.97 74.21 M129.69 102.14 C137.06 94.23, 142.88 88.45, 153.97 74.21 M135.99 100.99 C140.62 97.49, 151.29 90.51, 156.33 77.59 M135.99 100.99 C144.48 93.22, 147.17 84.78, 156.33 77.59" stroke="#ffa94d" stroke-width="0.5" fill="none"></path><path d="M25.2 0 M25.2 0 C65.62 -2.12, 102.24 -5.49, 128.1 0 M25.2 0 C59.67 3.63, 93.66 0.24, 128.1 0 M128.1 0 C141.85 3.95, 153.93 10.5, 153.3 25.2 M128.1 0 C143.52 2.63, 153.46 9.25, 153.3 25.2 M153.3 25.2 C156.67 38.87, 151.36 48.42, 153.3 75.61 M153.3 25.2 C153.95 39.55, 154.73 55.63, 153.3 75.61 M153.3 75.61 C155.49 92.76, 143.83 100.99, 128.1 100.81 M153.3 75.61 C150.2 89.1, 149.36 103.51, 128.1 100.81 M128.1 100.81 C100.55 100.83, 74.65 100.94, 25.2 100.81 M128.1 100.81 C91.36 101.88, 51.16 100.87, 25.2 100.81 M25.2 100.81 C10.37 101.57, -0.66 94.26, 0 75.61 M25.2 100.81 C12.94 104.97, -3.01 93.58, 0 75.61 M0 75.61 C2.09 66.3, 0.58 49.91, 0 25.2 M0 75.61 C-0.95 56.1, -2.04 39.08, 0 25.2 M0 25.2 C-3.24 11.4, 11.73 -1.73, 25.2 0 M0 25.2 C-2.79 12.84, 5.2 3.94, 25.2 0" stroke="#e8590c" stroke-width="1" fill="none"></path></g><g transform="translate(179.6761670554547 109.49605928364088) rotate(0 52.734375 12)"><text x="52.734375" y="0" font-family="Cascadia, Segoe UI Emoji" font-size="20px" fill="#e8590c" text-anchor="middle" style="white-space: pre;" direction="ltr" dominant-baseline="text-before-edge">Anwendung</text></g><g stroke-linecap="round"><g transform="translate(123.18445596123956 432.01021832290877) rotate(0 -0.07168195785146736 -210.9050948796227)"><path d="M-0.78 0.2 C-0.74 -70.32, -0.35 -351.95, -0.4 -422.01 M1.01 -0.74 C0.98 -70.61, -0.64 -350.65, -1.15 -420.85" stroke="#e8590c" stroke-width="1" fill="none"></path></g><g transform="translate(123.18445596123956 432.01021832290877) rotate(0 -0.07168195785146736 -210.9050948796227)"><path d="M9.62 -392.09 C5.27 -400.27, 5.77 -408.36, 0.81 -421.13 M8.51 -392.7 C6.61 -403.74, 1.98 -413.73, -0.64 -421.54" stroke="#e8590c" stroke-width="1" fill="none"></path></g><g transform="translate(123.18445596123956 432.01021832290877) rotate(0 -0.07168195785146736 -210.9050948796227)"><path d="M-10.9 -391.96 C-10.19 -400.03, -4.63 -408.16, 0.81 -421.13 M-12.01 -392.57 C-6.55 -403.59, -3.82 -413.62, -0.64 -421.54" stroke="#e8590c" stroke-width="1" fill="none"></path></g></g><mask></mask><g transform="translate(10 22.41239546960321) rotate(0 42.1875 9.600000000000001)"><text x="42.1875" y="0" font-family="Cascadia, Segoe UI Emoji" font-size="16px" fill="#e8590c" text-anchor="middle" style="white-space: pre;" direction="ltr" dominant-baseline="text-before-edge">Instanzen</text></g></svg>