<svg version="1.1" xmlns="http://www.w3.org/2000/svg" viewBox="0 0 1386.7641100430976 672.4602501239947" width="4160.292330129293" height="2017.380750371984" filter="invert(93%) hue-rotate(180deg)">
  <!-- svg-source:excalidraw -->
  
  <defs>
    <style class="style-fonts">
      @font-face {
        font-family: "Virgil";
        src: url("https://excalidraw.com/Virgil.woff2");
      }
      @font-face {
        font-family: "Cascadia";
        src: url("https://excalidraw.com/Cascadia.woff2");
      }
    </style>
    
  </defs>
  <g stroke-linecap="round" transform="translate(400.4837682004087 479.9558949966693) rotate(0 76.650390625 50.404296875)"><path d="M6.05 6.59 C6.05 6.59, 6.05 6.59, 6.05 6.59 M6.05 6.59 C6.05 6.59, 6.05 6.59, 6.05 6.59 M0.54 19.02 C10.12 12.18, 10.72 3.63, 14.98 2.42 M0.54 19.02 C5.17 16.48, 9.6 11.12, 14.98 2.42 M3.56 21.65 C7.21 15.91, 14.21 10.33, 21.27 1.27 M3.56 21.65 C7.81 14.73, 10.69 9.74, 21.27 1.27 M3.3 28.04 C15.93 14.06, 24.01 7.31, 26.92 0.87 M3.3 28.04 C9.01 22.65, 12.91 16.52, 26.92 0.87 M3.04 34.44 C9.67 26.87, 21.79 8.48, 31.9 1.23 M3.04 34.44 C10.67 22.64, 23.38 12.22, 31.9 1.23 M3.43 40.08 C10.88 31.53, 22.41 21.35, 36.89 1.59 M3.43 40.08 C10.03 32.83, 17.26 23.5, 36.89 1.59 M3.17 46.48 C20.57 31.58, 31.56 8.24, 42.53 1.2 M3.17 46.48 C18.05 27.73, 35.47 10.58, 42.53 1.2 M3.57 52.13 C11.43 43.98, 19.8 34.29, 47.52 1.56 M3.57 52.13 C14.88 40.54, 24.56 26.48, 47.52 1.56 M3.3 58.52 C25.42 36.36, 40.35 12.53, 53.17 1.17 M3.3 58.52 C18.95 36.37, 38.93 17.13, 53.17 1.17 M3.04 64.92 C13.78 50.28, 26.85 37.85, 58.15 1.53 M3.04 64.92 C26.36 40.17, 47.23 13.61, 58.15 1.53 M3.44 70.56 C20.37 45.75, 38.41 23.62, 63.8 1.13 M3.44 70.56 C20.85 50.88, 39.17 32.2, 63.8 1.13 M3.18 76.96 C19.81 57.48, 41.89 33.93, 68.78 1.49 M3.18 76.96 C24.3 53.18, 49.03 25.15, 68.78 1.49 M2.91 83.36 C26.25 51.47, 50.82 26.97, 74.43 1.1 M2.91 83.36 C25.71 56.64, 52.42 25.82, 74.43 1.1 M3.97 88.25 C32.69 57.25, 56.48 26.05, 79.41 1.46 M3.97 88.25 C26.04 59.27, 49.89 33.12, 79.41 1.46 M5.67 92.38 C34.82 58.69, 58.33 31.93, 85.06 1.06 M5.67 92.38 C33.7 58.81, 65.78 21.52, 85.06 1.06 M8.03 95.76 C31.87 69.81, 58.18 34.87, 90.04 1.42 M8.03 95.76 C29 70.83, 53.24 44.25, 90.04 1.42 M11.05 98.38 C37.02 72.83, 58.05 45.29, 95.69 1.03 M11.05 98.38 C45.32 58.49, 77.21 20.05, 95.69 1.03 M15.38 99.5 C35.53 79.28, 58.17 50.45, 100.67 1.39 M15.38 99.5 C46.25 63.05, 76.65 28.16, 100.67 1.39 M19.72 100.61 C46.45 73.68, 66.81 50.03, 106.32 0.99 M19.72 100.61 C35.61 81.05, 54.99 59.44, 106.32 0.99 M24.05 101.73 C49 76.63, 65.03 50.82, 111.3 1.35 M24.05 101.73 C44.3 77.17, 66.5 54.16, 111.3 1.35 M27.72 103.6 C54.91 68.62, 85.37 35.06, 116.95 0.96 M27.72 103.6 C58.21 63.55, 94.11 24.4, 116.95 0.96 M33.36 103.2 C59.33 75.77, 84.25 46.75, 121.93 1.32 M33.36 103.2 C59.37 68.16, 87.56 35.72, 121.93 1.32 M38.35 103.56 C57.78 78.12, 84.81 48.37, 128.23 0.17 M38.35 103.56 C60.28 83.63, 76.9 59.11, 128.23 0.17 M43.99 103.17 C59.51 85.1, 84.97 56.24, 132.56 1.28 M43.99 103.17 C64.58 80.09, 84.73 58.59, 132.56 1.28 M48.98 103.53 C74.14 71.63, 101.46 45.54, 136.89 2.4 M48.98 103.53 C70.69 81.81, 91.52 57.82, 136.89 2.4 M54.62 103.14 C68.45 79.11, 88.93 64.44, 141.22 3.51 M54.62 103.14 C73.45 80.34, 94.05 55.84, 141.22 3.51 M59.61 103.5 C79.8 82.25, 104.27 52.94, 144.9 5.38 M59.61 103.5 C88.78 68.89, 119.94 34.38, 144.9 5.38 M65.25 103.1 C83.62 83.43, 102.79 63.56, 147.92 8.01 M65.25 103.1 C90.71 76.78, 112.43 52.69, 147.92 8.01 M70.24 103.46 C88.4 76.18, 113.97 51.22, 150.94 10.63 M70.24 103.46 C93.9 75.96, 120.4 48.56, 150.94 10.63 M75.88 103.07 C102.92 72.22, 124.88 41.76, 151.99 15.52 M75.88 103.07 C102.52 76.34, 127.6 46.76, 151.99 15.52 M80.87 103.43 C105.24 69.08, 136.41 38.96, 153.69 19.65 M80.87 103.43 C105.1 73.87, 134.22 41.6, 153.69 19.65 M86.52 103.03 C107.47 77.7, 129.61 56.77, 153.43 26.05 M86.52 103.03 C105.94 84.65, 121.36 65.26, 153.43 26.05 M91.5 103.39 C117.26 76.84, 141.32 43.07, 153.83 31.69 M91.5 103.39 C110.42 81.38, 133.43 55.39, 153.83 31.69 M97.15 103 C111.03 85.29, 119.11 72.08, 153.57 38.09 M97.15 103 C116.28 81.89, 131.32 62.94, 153.57 38.09 M102.13 103.36 C123.98 84.32, 140.34 58.6, 153.96 43.74 M102.13 103.36 C115.96 89.85, 130.04 70.14, 153.96 43.74 M107.78 102.96 C117.99 90.01, 133.09 76.44, 153.7 50.13 M107.78 102.96 C117.16 88.88, 128.19 76.41, 153.7 50.13 M112.76 103.32 C123.72 84.48, 145.09 72.26, 154.09 55.78 M112.76 103.32 C126.18 88.39, 140.57 70.11, 154.09 55.78 M118.41 102.93 C128.35 93.19, 136.14 76, 153.83 62.17 M118.41 102.93 C129.18 91.76, 138.02 80.84, 153.83 62.17 M123.39 103.29 C129.23 95.72, 141.57 89.12, 153.57 68.57 M123.39 103.29 C131.35 95.79, 140.06 87.6, 153.57 68.57 M129.69 102.14 C133.71 98.24, 144.43 88.9, 153.97 74.21 M129.69 102.14 C138.36 93.32, 147.07 83.38, 153.97 74.21 M135.99 100.99 C146.46 91.23, 150.69 81.63, 156.33 77.59 M135.99 100.99 C143.65 94.39, 148.77 87.18, 156.33 77.59" stroke="#12b886" stroke-width="0.5" fill="none"></path><path d="M25.2 0 M25.2 0 C50.71 -2.63, 67.93 -2.93, 128.1 0 M25.2 0 C55.72 0.48, 85.24 -0.25, 128.1 0 M128.1 0 C144.6 1.75, 155.68 11.56, 153.3 25.2 M128.1 0 C144.28 -2.55, 151.36 8.25, 153.3 25.2 M153.3 25.2 C156.02 43.89, 153.58 56.17, 153.3 75.61 M153.3 25.2 C153.17 44.75, 153.88 61.38, 153.3 75.61 M153.3 75.61 C151.79 93.9, 142.69 99.77, 128.1 100.81 M153.3 75.61 C150.66 91.52, 146.48 100.33, 128.1 100.81 M128.1 100.81 C104.93 103.33, 77.16 100.96, 25.2 100.81 M128.1 100.81 C91.13 101.71, 56.23 98.92, 25.2 100.81 M25.2 100.81 C5.49 102.18, -2.55 89.22, 0 75.61 M25.2 100.81 C8.07 103.67, -0.1 96.56, 0 75.61 M0 75.61 C3.16 61.56, 1.95 50.25, 0 25.2 M0 75.61 C-0.85 60.09, -0.12 42.66, 0 25.2 M0 25.2 C3.76 4.88, 9.88 0.27, 25.2 0 M0 25.2 C2.12 5.18, 11.77 1.45, 25.2 0" stroke="#099268" stroke-width="1" fill="none"></path></g><g transform="translate(424.3997838254087 506.3601918716693) rotate(0 52.734375 24)"><text x="52.734375" y="0" font-family="Cascadia, Segoe UI Emoji" font-size="20px" fill="#099268" text-anchor="middle" style="white-space: pre;" direction="ltr" dominant-baseline="text-before-edge">Anwendung</text><text x="52.734375" y="24" font-family="Cascadia, Segoe UI Emoji" font-size="20px" fill="#099268" text-anchor="middle" style="white-space: pre;" direction="ltr" dominant-baseline="text-before-edge">Service 1</text></g><g stroke-linecap="round" transform="translate(398.28449638383825 365.3772622411235) rotate(0 76.650390625 50.404296875)"><path d="M6.05 6.59 C6.05 6.59, 6.05 6.59, 6.05 6.59 M6.05 6.59 C6.05 6.59, 6.05 6.59, 6.05 6.59 M0.54 19.02 C4.28 14.5, 10.3 9.54, 14.98 2.42 M0.54 19.02 C5.28 11.89, 9.89 10.19, 14.98 2.42 M3.56 21.65 C4.03 12.86, 10.32 14.16, 21.27 1.27 M3.56 21.65 C7.96 15.61, 10.62 12.39, 21.27 1.27 M3.3 28.04 C11.01 20.65, 20.87 12.7, 26.92 0.87 M3.3 28.04 C9.38 23.48, 14.21 16.76, 26.92 0.87 M3.04 34.44 C10.35 27.5, 13.04 20.21, 31.9 1.23 M3.04 34.44 C13.67 24.95, 24.77 11.17, 31.9 1.23 M3.43 40.08 C13.44 34.53, 16.18 22.53, 36.89 1.59 M3.43 40.08 C11.49 30.47, 20.08 21.65, 36.89 1.59 M3.17 46.48 C12.81 37, 22.72 21.5, 42.53 1.2 M3.17 46.48 C20.59 28.98, 36.77 12.72, 42.53 1.2 M3.57 52.13 C15.39 34.31, 32.56 23.64, 47.52 1.56 M3.57 52.13 C17.98 36.93, 32.68 21.9, 47.52 1.56 M3.3 58.52 C20.14 43.25, 38.29 22.36, 53.17 1.17 M3.3 58.52 C19.21 41.37, 35.38 20.76, 53.17 1.17 M3.04 64.92 C16.82 48.22, 35.91 32.36, 58.15 1.53 M3.04 64.92 C24.17 40.51, 44.14 18.17, 58.15 1.53 M3.44 70.56 C23.76 48.23, 39.88 29.26, 63.8 1.13 M3.44 70.56 C23.09 48.42, 40.35 26.4, 63.8 1.13 M3.18 76.96 C22.14 60.03, 39.26 39.42, 68.78 1.49 M3.18 76.96 C22.83 55.07, 44.04 28.46, 68.78 1.49 M2.91 83.36 C22.94 62.16, 37.4 42.36, 74.43 1.1 M2.91 83.36 C27.05 54.87, 52.8 27.49, 74.43 1.1 M3.97 88.25 C25.67 70.32, 35.76 47.87, 79.41 1.46 M3.97 88.25 C22.35 67.48, 41.38 46.01, 79.41 1.46 M5.67 92.38 C29.86 61.27, 63.66 31.46, 85.06 1.06 M5.67 92.38 C37.61 54.4, 69.24 19.61, 85.06 1.06 M8.03 95.76 C36.86 63.46, 60.68 39.03, 90.04 1.42 M8.03 95.76 C29.29 74.19, 47.85 53.54, 90.04 1.42 M11.05 98.38 C42.94 64.29, 72.42 31.47, 95.69 1.03 M11.05 98.38 C39.26 64.74, 68.98 31.17, 95.69 1.03 M15.38 99.5 C34.45 74.88, 46.02 59.01, 100.67 1.39 M15.38 99.5 C39.51 70.18, 66.87 41.31, 100.67 1.39 M19.72 100.61 C48.82 67.48, 84.64 27.44, 106.32 0.99 M19.72 100.61 C39.26 77.08, 57.87 54.27, 106.32 0.99 M24.05 101.73 C46.76 73.51, 77.29 47.44, 111.3 1.35 M24.05 101.73 C44.82 78.52, 65.07 51.99, 111.3 1.35 M27.72 103.6 C51.21 77.45, 69.42 55.19, 116.95 0.96 M27.72 103.6 C57.33 72.1, 83.98 36.74, 116.95 0.96 M33.36 103.2 C56.16 75.36, 85.07 44.22, 121.93 1.32 M33.36 103.2 C57.68 75.75, 84.27 45.82, 121.93 1.32 M38.35 103.56 C60.58 87.86, 77.71 65.51, 128.23 0.17 M38.35 103.56 C67 68.23, 99.52 30.37, 128.23 0.17 M43.99 103.17 C74.11 62.82, 109.42 25.5, 132.56 1.28 M43.99 103.17 C74.56 70.03, 101.35 39.28, 132.56 1.28 M48.98 103.53 C82.34 66.93, 109.95 30.33, 136.89 2.4 M48.98 103.53 C70.7 83.14, 88.47 55.69, 136.89 2.4 M54.62 103.14 C74.09 79.49, 91.09 55.85, 141.22 3.51 M54.62 103.14 C82.74 70.44, 108.7 40.72, 141.22 3.51 M59.61 103.5 C82.53 76.51, 108.49 49.85, 144.9 5.38 M59.61 103.5 C86.54 74.64, 111.62 43.16, 144.9 5.38 M65.25 103.1 C86.18 82.28, 111.08 52.85, 147.92 8.01 M65.25 103.1 C96.9 65.93, 124.11 30.79, 147.92 8.01 M70.24 103.46 C97.98 72.18, 118.83 41.87, 150.94 10.63 M70.24 103.46 C99.74 64.56, 131.73 27.61, 150.94 10.63 M75.88 103.07 C102.96 75.33, 133.95 42.44, 151.99 15.52 M75.88 103.07 C103.34 70.57, 128.8 41.67, 151.99 15.52 M80.87 103.43 C92.25 89.11, 111.65 71.44, 153.69 19.65 M80.87 103.43 C99.08 81.01, 115.27 61.82, 153.69 19.65 M86.52 103.03 C105.25 76.68, 129.1 49.22, 153.43 26.05 M86.52 103.03 C107.49 78.19, 125.64 57.09, 153.43 26.05 M91.5 103.39 C102.2 90, 117.75 71.82, 153.83 31.69 M91.5 103.39 C108.96 82.62, 127.53 58.04, 153.83 31.69 M97.15 103 C117.28 87.95, 132.48 69.85, 153.57 38.09 M97.15 103 C113.5 83.5, 128.67 68.97, 153.57 38.09 M102.13 103.36 C118.58 80.34, 138.28 63.68, 153.96 43.74 M102.13 103.36 C120.73 77.82, 141.93 56.65, 153.96 43.74 M107.78 102.96 C122.14 85.49, 138.63 60.38, 153.7 50.13 M107.78 102.96 C118.21 91.82, 126.1 79.21, 153.7 50.13 M112.76 103.32 C126.54 83.15, 144.43 69.83, 154.09 55.78 M112.76 103.32 C120.76 93.77, 131.16 84.34, 154.09 55.78 M118.41 102.93 C135.5 86.85, 144.87 75.41, 153.83 62.17 M118.41 102.93 C129.87 89.65, 141.23 73.86, 153.83 62.17 M123.39 103.29 C133.6 90.32, 144.53 81.37, 153.57 68.57 M123.39 103.29 C132.59 95.1, 136.59 84.2, 153.57 68.57 M129.69 102.14 C133.49 91.56, 144.52 89.34, 153.97 74.21 M129.69 102.14 C139.67 92.34, 147.11 84.11, 153.97 74.21 M135.99 100.99 C137.15 95.18, 143.89 92.08, 156.33 77.59 M135.99 100.99 C141.4 96.86, 146.48 89.63, 156.33 77.59" stroke="#12b886" stroke-width="0.5" fill="none"></path><path d="M25.2 0 M25.2 0 C59.02 -2.89, 84.14 1.83, 128.1 0 M25.2 0 C65.71 -0.06, 102.83 3.39, 128.1 0 M128.1 0 C148.58 -0.34, 155.56 8.41, 153.3 25.2 M128.1 0 C146.44 0.49, 156.4 5.17, 153.3 25.2 M153.3 25.2 C151.32 39.06, 151.16 47.72, 153.3 75.61 M153.3 25.2 C151.77 44.21, 153.34 60.76, 153.3 75.61 M153.3 75.61 C153.48 90.3, 144.2 104.1, 128.1 100.81 M153.3 75.61 C156.39 95.19, 141.91 96.73, 128.1 100.81 M128.1 100.81 C107.37 99.35, 78.77 100.32, 25.2 100.81 M128.1 100.81 C106.7 99.64, 86.39 98.42, 25.2 100.81 M25.2 100.81 C9.62 101.51, -1.48 91.96, 0 75.61 M25.2 100.81 C11.22 97.69, -2.02 93.63, 0 75.61 M0 75.61 C-2.46 56.4, -1.47 42.65, 0 25.2 M0 75.61 C-0.87 64.66, 2.43 53.21, 0 25.2 M0 25.2 C-3.86 9.23, 6.37 -2.44, 25.2 0 M0 25.2 C1.15 10.84, 5.57 0.98, 25.2 0" stroke="#099268" stroke-width="1" fill="none"></path></g><g transform="translate(422.20051200883825 391.7815591161235) rotate(0 52.734375 24)"><text x="52.734375" y="0" font-family="Cascadia, Segoe UI Emoji" font-size="20px" fill="#099268" text-anchor="middle" style="white-space: pre;" direction="ltr" dominant-baseline="text-before-edge">Anwendung</text><text x="52.734375" y="24" font-family="Cascadia, Segoe UI Emoji" font-size="20px" fill="#099268" text-anchor="middle" style="white-space: pre;" direction="ltr" dominant-baseline="text-before-edge">Service 1</text></g><g stroke-linecap="round" transform="translate(589.942942452357 529.0997176895501) rotate(0 76.650390625 50.404296875)"><path d="M6.05 6.59 C6.05 6.59, 6.05 6.59, 6.05 6.59 M6.05 6.59 C6.05 6.59, 6.05 6.59, 6.05 6.59 M0.54 19.02 C6.32 11.14, 8.09 9.42, 14.98 2.42 M0.54 19.02 C4.05 12.78, 5.89 11.79, 14.98 2.42 M3.56 21.65 C10.25 17.84, 12.33 7.89, 21.27 1.27 M3.56 21.65 C6.64 17.18, 9.74 13.14, 21.27 1.27 M3.3 28.04 C11.3 22.28, 21.15 11.02, 26.92 0.87 M3.3 28.04 C9.35 21.08, 13.5 12.69, 26.92 0.87 M3.04 34.44 C7.3 27.18, 18 15.94, 31.9 1.23 M3.04 34.44 C10.6 24.87, 13.79 20.05, 31.9 1.23 M3.43 40.08 C9.76 28.55, 17.39 23.61, 36.89 1.59 M3.43 40.08 C10.91 30.64, 15.52 24.78, 36.89 1.59 M3.17 46.48 C16.87 36.43, 27.05 25.93, 42.53 1.2 M3.17 46.48 C14.06 32.76, 28.65 15.26, 42.53 1.2 M3.57 52.13 C15.48 36.29, 27.5 27.43, 47.52 1.56 M3.57 52.13 C14.67 36.97, 27.4 21.49, 47.52 1.56 M3.3 58.52 C14.12 48.24, 32.29 30.59, 53.17 1.17 M3.3 58.52 C17.14 41.5, 30.82 24.56, 53.17 1.17 M3.04 64.92 C18.17 49.71, 41.21 26.45, 58.15 1.53 M3.04 64.92 C16.65 48.75, 30.75 31.3, 58.15 1.53 M3.44 70.56 C20.84 52.22, 35.41 30.73, 63.8 1.13 M3.44 70.56 C16.96 55.1, 26.59 39.06, 63.8 1.13 M3.18 76.96 C22.04 53.6, 45.06 30.97, 68.78 1.49 M3.18 76.96 C24.26 54.78, 41.47 29.8, 68.78 1.49 M2.91 83.36 C19.1 67.51, 34.15 46.44, 74.43 1.1 M2.91 83.36 C24.68 58.03, 50.28 33.85, 74.43 1.1 M3.97 88.25 C26.14 66.89, 39.77 50.38, 79.41 1.46 M3.97 88.25 C33.22 54.66, 63.98 19.91, 79.41 1.46 M5.67 92.38 C33.65 63, 54.81 34.73, 85.06 1.06 M5.67 92.38 C34.69 58.91, 65.25 27.07, 85.06 1.06 M8.03 95.76 C33.43 68.61, 56.51 32.65, 90.04 1.42 M8.03 95.76 C31.62 70.55, 54.01 43.5, 90.04 1.42 M11.05 98.38 C35.38 69.72, 58.74 45.58, 95.69 1.03 M11.05 98.38 C41.94 65.59, 70.54 31.36, 95.69 1.03 M15.38 99.5 C45.99 65.86, 76.28 31.73, 100.67 1.39 M15.38 99.5 C47.57 60.24, 84.19 21.36, 100.67 1.39 M19.72 100.61 C52.14 68.67, 78.42 29.13, 106.32 0.99 M19.72 100.61 C45.88 69.67, 71.61 39.93, 106.32 0.99 M24.05 101.73 C62.11 64.7, 95.5 22.15, 111.3 1.35 M24.05 101.73 C45.53 73.77, 68.52 51.73, 111.3 1.35 M27.72 103.6 C53.82 71.88, 72.1 43.41, 116.95 0.96 M27.72 103.6 C56.8 69.43, 80.57 40.42, 116.95 0.96 M33.36 103.2 C59.36 69.72, 84.25 41.58, 121.93 1.32 M33.36 103.2 C55.26 75.95, 82.76 48.46, 121.93 1.32 M38.35 103.56 C68.34 69.9, 97.66 36.76, 128.23 0.17 M38.35 103.56 C70.76 68.58, 97.68 37.1, 128.23 0.17 M43.99 103.17 C74.04 69.84, 110.65 26.45, 132.56 1.28 M43.99 103.17 C64.87 78.92, 85.84 56.3, 132.56 1.28 M48.98 103.53 C72.39 77.92, 93.63 57.86, 136.89 2.4 M48.98 103.53 C79.11 68.93, 107.91 38.87, 136.89 2.4 M54.62 103.14 C79.24 70.61, 106.44 43.31, 141.22 3.51 M54.62 103.14 C80.66 73.24, 103.36 44.04, 141.22 3.51 M59.61 103.5 C79.68 78.91, 96.9 54.72, 144.9 5.38 M59.61 103.5 C90.87 65.22, 124.63 27.33, 144.9 5.38 M65.25 103.1 C91.71 74.9, 111.24 53.48, 147.92 8.01 M65.25 103.1 C88.21 81.24, 109.97 56.37, 147.92 8.01 M70.24 103.46 C102.98 67.79, 131.32 34.06, 150.94 10.63 M70.24 103.46 C97.69 70.95, 130.65 34.85, 150.94 10.63 M75.88 103.07 C101.9 65.78, 131.84 37.62, 151.99 15.52 M75.88 103.07 C97.2 75.61, 120.07 50.83, 151.99 15.52 M80.87 103.43 C96.41 78.15, 122.15 54.98, 153.69 19.65 M80.87 103.43 C102.04 80.92, 122.81 58.25, 153.69 19.65 M86.52 103.03 C103.4 80.77, 127.73 55.45, 153.43 26.05 M86.52 103.03 C100.86 87.6, 116.81 71.76, 153.43 26.05 M91.5 103.39 C112.72 83.02, 133.98 57.26, 153.83 31.69 M91.5 103.39 C107.92 84.53, 124.11 70.05, 153.83 31.69 M97.15 103 C118.76 81.54, 136.32 56.96, 153.57 38.09 M97.15 103 C118.57 77.43, 140.62 50.38, 153.57 38.09 M102.13 103.36 C114.53 86.64, 129.09 71.62, 153.96 43.74 M102.13 103.36 C120.93 81.86, 140.33 58.01, 153.96 43.74 M107.78 102.96 C115.08 88.69, 128.74 77.25, 153.7 50.13 M107.78 102.96 C117.93 92.56, 127.91 79.23, 153.7 50.13 M112.76 103.32 C122.47 97.45, 129.5 87.08, 154.09 55.78 M112.76 103.32 C127.18 86.18, 142.03 69.93, 154.09 55.78 M118.41 102.93 C127.48 91.8, 143.48 74.86, 153.83 62.17 M118.41 102.93 C129.43 91.36, 137.54 79.54, 153.83 62.17 M123.39 103.29 C129.36 92.66, 142.3 81.9, 153.57 68.57 M123.39 103.29 C132.33 92.62, 141.1 81.38, 153.57 68.57 M129.69 102.14 C136.12 90.85, 149.58 78.68, 153.97 74.21 M129.69 102.14 C134.39 97.19, 140.06 92.55, 153.97 74.21 M135.99 100.99 C143.46 90.08, 149.9 84.06, 156.33 77.59 M135.99 100.99 C140.82 94.8, 146.39 85.83, 156.33 77.59" stroke="#12b886" stroke-width="0.5" fill="none"></path><path d="M25.2 0 M25.2 0 C54.82 -4.31, 80.73 -0.24, 128.1 0 M25.2 0 C62.02 -0.22, 96.61 -0.92, 128.1 0 M128.1 0 C146.12 0.15, 150.59 11.27, 153.3 25.2 M128.1 0 C148.03 1.62, 157.82 9.72, 153.3 25.2 M153.3 25.2 C152.08 32.89, 153.13 48.96, 153.3 75.61 M153.3 25.2 C155.06 34.15, 152.81 46.32, 153.3 75.61 M153.3 75.61 C151.72 94.2, 145.06 103.77, 128.1 100.81 M153.3 75.61 C157.11 89.82, 148.28 100.47, 128.1 100.81 M128.1 100.81 C97.37 98.01, 73.73 102.19, 25.2 100.81 M128.1 100.81 C92.32 101.11, 52.86 101.43, 25.2 100.81 M25.2 100.81 C9.3 100.13, 1.2 93.5, 0 75.61 M25.2 100.81 C8.02 101.4, 1.32 88, 0 75.61 M0 75.61 C-1.53 61.63, 0.3 49.57, 0 25.2 M0 75.61 C0.64 59.15, 1.12 42.21, 0 25.2 M0 25.2 C-0.74 7.48, 5.12 -3.81, 25.2 0 M0 25.2 C2.55 7.04, 12.38 3.99, 25.2 0" stroke="#099268" stroke-width="1" fill="none"></path></g><g transform="translate(613.858958077357 555.5040145645501) rotate(0 52.734375 24)"><text x="52.734375" y="0" font-family="Cascadia, Segoe UI Emoji" font-size="20px" fill="#099268" text-anchor="middle" style="white-space: pre;" direction="ltr" dominant-baseline="text-before-edge">Anwendung</text><text x="52.734375" y="24" font-family="Cascadia, Segoe UI Emoji" font-size="20px" fill="#099268" text-anchor="middle" style="white-space: pre;" direction="ltr" dominant-baseline="text-before-edge">Service 2</text></g><g stroke-linecap="round" transform="translate(587.6023834646236 197.53307260760243) rotate(0 76.650390625 50.404296875)"><path d="M6.05 6.59 C6.05 6.59, 6.05 6.59, 6.05 6.59 M6.05 6.59 C6.05 6.59, 6.05 6.59, 6.05 6.59 M0.54 19.02 C4.18 9.4, 9.26 3.71, 14.98 2.42 M0.54 19.02 C5.84 14.85, 8.44 11.74, 14.98 2.42 M3.56 21.65 C3.56 17.5, 11.13 10.17, 21.27 1.27 M3.56 21.65 C9.5 16.58, 11.43 10.68, 21.27 1.27 M3.3 28.04 C5.64 19.42, 14.48 14.34, 26.92 0.87 M3.3 28.04 C9.68 19.03, 17.75 10.49, 26.92 0.87 M3.04 34.44 C9.86 20.09, 24.98 7, 31.9 1.23 M3.04 34.44 C11.48 25.7, 19.62 16.15, 31.9 1.23 M3.43 40.08 C11.83 24.34, 21.94 12.69, 36.89 1.59 M3.43 40.08 C10.16 30.84, 20.81 19.25, 36.89 1.59 M3.17 46.48 C14.61 39.75, 18.34 24.67, 42.53 1.2 M3.17 46.48 C9.93 38.64, 21.59 25.44, 42.53 1.2 M3.57 52.13 C12.69 38.71, 23.74 29.36, 47.52 1.56 M3.57 52.13 C16.14 36.17, 29.81 23.13, 47.52 1.56 M3.3 58.52 C16.29 48.82, 28.19 35.07, 53.17 1.17 M3.3 58.52 C11.53 44.93, 23.08 36.07, 53.17 1.17 M3.04 64.92 C14.24 52.33, 27.86 35.07, 58.15 1.53 M3.04 64.92 C16.26 50.78, 31.63 32.53, 58.15 1.53 M3.44 70.56 C23.87 47.86, 47.51 23.33, 63.8 1.13 M3.44 70.56 C16.42 56.19, 29.99 41.67, 63.8 1.13 M3.18 76.96 C25.61 54.2, 42.03 37.1, 68.78 1.49 M3.18 76.96 C18.97 54.92, 38.69 34.47, 68.78 1.49 M2.91 83.36 C23.36 58.52, 49.49 34.64, 74.43 1.1 M2.91 83.36 C27.27 54.12, 49.77 25.64, 74.43 1.1 M3.97 88.25 C30.65 63.46, 54.7 34.32, 79.41 1.46 M3.97 88.25 C30.56 53.96, 61.37 21.38, 79.41 1.46 M5.67 92.38 C30.5 61.15, 63.74 25.37, 85.06 1.06 M5.67 92.38 C31.2 62.98, 57.39 35.12, 85.06 1.06 M8.03 95.76 C33.3 74.06, 51.15 50.25, 90.04 1.42 M8.03 95.76 C40.56 58.85, 72.73 18.8, 90.04 1.42 M11.05 98.38 C36.24 69.5, 68.87 32.9, 95.69 1.03 M11.05 98.38 C31.05 74.9, 47.14 54.44, 95.69 1.03 M15.38 99.5 C44.97 66.87, 66.39 38.96, 100.67 1.39 M15.38 99.5 C46.98 65.31, 76.86 27.49, 100.67 1.39 M19.72 100.61 C42.84 78.62, 66.38 44.49, 106.32 0.99 M19.72 100.61 C43.29 75.31, 67.92 48.88, 106.32 0.99 M24.05 101.73 C41.76 74.77, 62.7 51.13, 111.3 1.35 M24.05 101.73 C52.8 66.38, 86.37 33.95, 111.3 1.35 M27.72 103.6 C56.86 71.16, 87.85 32.07, 116.95 0.96 M27.72 103.6 C52.06 75.93, 76.61 43.56, 116.95 0.96 M33.36 103.2 C59.34 75.45, 81.57 48.38, 121.93 1.32 M33.36 103.2 C54.21 78.59, 78.77 54.15, 121.93 1.32 M38.35 103.56 C61.79 80.11, 86.11 55.81, 128.23 0.17 M38.35 103.56 C64.66 76.37, 92.86 45.43, 128.23 0.17 M43.99 103.17 C76.11 68.75, 108.18 32.03, 132.56 1.28 M43.99 103.17 C80.29 64.61, 112.02 25.74, 132.56 1.28 M48.98 103.53 C79.08 72.69, 104.35 40.99, 136.89 2.4 M48.98 103.53 C70.97 79.56, 87.77 56.69, 136.89 2.4 M54.62 103.14 C82.16 76.13, 106.65 45.78, 141.22 3.51 M54.62 103.14 C80.67 72.69, 103.32 42.97, 141.22 3.51 M59.61 103.5 C87.39 78.93, 111.84 47.37, 144.9 5.38 M59.61 103.5 C79.52 78.49, 102.77 54.94, 144.9 5.38 M65.25 103.1 C92.57 68.31, 121.29 35.45, 147.92 8.01 M65.25 103.1 C93.86 70.88, 122.13 42.21, 147.92 8.01 M70.24 103.46 C97.68 70.75, 119.2 45.71, 150.94 10.63 M70.24 103.46 C92.07 80.12, 109.99 58.02, 150.94 10.63 M75.88 103.07 C103.14 70.22, 127.26 41.48, 151.99 15.52 M75.88 103.07 C99.33 75.58, 123.7 46.24, 151.99 15.52 M80.87 103.43 C107.04 74.35, 127.78 51.65, 153.69 19.65 M80.87 103.43 C107.88 73.22, 132.44 45.49, 153.69 19.65 M86.52 103.03 C106.35 77.84, 132.58 44.47, 153.43 26.05 M86.52 103.03 C103.31 85.15, 117.83 69.6, 153.43 26.05 M91.5 103.39 C104.58 85.25, 123.73 72.36, 153.83 31.69 M91.5 103.39 C116.06 76.33, 136.8 52.03, 153.83 31.69 M97.15 103 C113.07 89.51, 128.26 71.64, 153.57 38.09 M97.15 103 C114.37 83.42, 132.67 61.6, 153.57 38.09 M102.13 103.36 C119.85 77.18, 140.43 59.3, 153.96 43.74 M102.13 103.36 C120.5 81.97, 142.55 57.42, 153.96 43.74 M107.78 102.96 C123.62 83.91, 142.37 63.58, 153.7 50.13 M107.78 102.96 C118.39 92.03, 128.92 76.18, 153.7 50.13 M112.76 103.32 C123.09 88.48, 141.02 70.23, 154.09 55.78 M112.76 103.32 C126.9 84.4, 143.68 67.43, 154.09 55.78 M118.41 102.93 C133.9 86.1, 145.74 74.01, 153.83 62.17 M118.41 102.93 C126.34 89.53, 138.22 80.5, 153.83 62.17 M123.39 103.29 C138.32 93.18, 145.67 81.12, 153.57 68.57 M123.39 103.29 C133.79 91.74, 143.24 81.28, 153.57 68.57 M129.69 102.14 C134.33 94.5, 139.24 90.63, 153.97 74.21 M129.69 102.14 C139.03 94.17, 145.3 85.71, 153.97 74.21 M135.99 100.99 C138.88 90.28, 150.46 85.91, 156.33 77.59 M135.99 100.99 C145.21 89.59, 151.88 81.09, 156.33 77.59" stroke="#12b886" stroke-width="0.5" fill="none"></path><path d="M25.2 0 M25.2 0 C50.28 -0.81, 80.85 -0.82, 128.1 0 M25.2 0 C58.52 -0.45, 91.1 0.78, 128.1 0 M128.1 0 C142.13 2.93, 157.17 6.66, 153.3 25.2 M128.1 0 C144.31 -1.04, 155.88 8.82, 153.3 25.2 M153.3 25.2 C149.43 40.69, 153.23 49.24, 153.3 75.61 M153.3 25.2 C151.35 37.17, 153.18 50.39, 153.3 75.61 M153.3 75.61 C153.68 90.48, 146.49 104.61, 128.1 100.81 M153.3 75.61 C155.8 94.43, 146.31 98.66, 128.1 100.81 M128.1 100.81 C98.34 102.69, 70.37 102.39, 25.2 100.81 M128.1 100.81 C106.27 104.6, 85.96 102.49, 25.2 100.81 M25.2 100.81 C9.98 99.12, -0.6 93.44, 0 75.61 M25.2 100.81 C10.07 96.54, -3.87 90.88, 0 75.61 M0 75.61 C-3.16 63.37, -0.69 51.24, 0 25.2 M0 75.61 C1.53 62.47, 0.97 52.79, 0 25.2 M0 25.2 C-0.51 9.69, 11.64 -1.03, 25.2 0 M0 25.2 C0.24 7.78, 6.05 3.29, 25.2 0" stroke="#099268" stroke-width="1" fill="none"></path></g><g transform="translate(611.5183990896236 223.93736948260243) rotate(0 52.734375 24)"><text x="52.734375" y="0" font-family="Cascadia, Segoe UI Emoji" font-size="20px" fill="#099268" text-anchor="middle" style="white-space: pre;" direction="ltr" dominant-baseline="text-before-edge">Anwendung</text><text x="52.734375" y="24" font-family="Cascadia, Segoe UI Emoji" font-size="20px" fill="#099268" text-anchor="middle" style="white-space: pre;" direction="ltr" dominant-baseline="text-before-edge">Service 2</text></g><g stroke-linecap="round" transform="translate(586.10267820202 311.01362587748724) rotate(0 76.650390625 50.404296875)"><path d="M6.05 6.59 C6.05 6.59, 6.05 6.59, 6.05 6.59 M6.05 6.59 C6.05 6.59, 6.05 6.59, 6.05 6.59 M0.54 19.02 C6.19 9.35, 9.35 9.35, 14.98 2.42 M0.54 19.02 C7.54 12.25, 12.95 6.73, 14.98 2.42 M3.56 21.65 C10.17 13.03, 9.8 10.83, 21.27 1.27 M3.56 21.65 C9.41 16.29, 15.29 8.99, 21.27 1.27 M3.3 28.04 C12.38 22.07, 15.52 12.39, 26.92 0.87 M3.3 28.04 C7.66 22.3, 15.26 17.63, 26.92 0.87 M3.04 34.44 C10.53 27.97, 20.23 19.87, 31.9 1.23 M3.04 34.44 C9.91 29.77, 15.79 23.05, 31.9 1.23 M3.43 40.08 C12.54 31.17, 20.25 25.34, 36.89 1.59 M3.43 40.08 C12.24 29.77, 25.13 17.24, 36.89 1.59 M3.17 46.48 C16.85 34.09, 31.84 18.96, 42.53 1.2 M3.17 46.48 C14.04 33.52, 26.6 21.09, 42.53 1.2 M3.57 52.13 C19.39 39.69, 32 23.78, 47.52 1.56 M3.57 52.13 C13.58 39.6, 24.36 26.42, 47.52 1.56 M3.3 58.52 C21.31 41.42, 34.97 21.27, 53.17 1.17 M3.3 58.52 C14.48 42.04, 27.25 27.91, 53.17 1.17 M3.04 64.92 C25.19 44.74, 37.4 19.25, 58.15 1.53 M3.04 64.92 C16.91 51.75, 26.92 39.35, 58.15 1.53 M3.44 70.56 C24.15 50.51, 35.26 30.42, 63.8 1.13 M3.44 70.56 C26.01 42.05, 47.94 16.7, 63.8 1.13 M3.18 76.96 C30.55 50.22, 49.24 20.29, 68.78 1.49 M3.18 76.96 C22.66 52.89, 43.91 30.58, 68.78 1.49 M2.91 83.36 C28.9 53.7, 60.85 21.26, 74.43 1.1 M2.91 83.36 C29.91 52.89, 58.54 19.97, 74.43 1.1 M3.97 88.25 C22.35 65.49, 48.45 43.64, 79.41 1.46 M3.97 88.25 C26.86 65.44, 49.55 38.43, 79.41 1.46 M5.67 92.38 C28.63 62.79, 55.37 34.32, 85.06 1.06 M5.67 92.38 C38.4 56.63, 68.65 21.54, 85.06 1.06 M8.03 95.76 C26.66 73.29, 51.34 48.48, 90.04 1.42 M8.03 95.76 C39.32 56.39, 72 20.59, 90.04 1.42 M11.05 98.38 C35.39 66.04, 68.27 34.26, 95.69 1.03 M11.05 98.38 C41.23 62.12, 75.4 26.75, 95.69 1.03 M15.38 99.5 C36.55 69.51, 67.32 39.48, 100.67 1.39 M15.38 99.5 C45.37 65.09, 75.19 33.34, 100.67 1.39 M19.72 100.61 C43.24 69.78, 70.65 36.66, 106.32 0.99 M19.72 100.61 C46.09 70.3, 73.89 37.43, 106.32 0.99 M24.05 101.73 C51.71 72.77, 77.74 38.18, 111.3 1.35 M24.05 101.73 C54.86 68.53, 85.05 34.7, 111.3 1.35 M27.72 103.6 C60.51 60.78, 100.3 21.26, 116.95 0.96 M27.72 103.6 C51 79.38, 72.48 52.55, 116.95 0.96 M33.36 103.2 C59.54 75.56, 80.93 51.45, 121.93 1.32 M33.36 103.2 C71.78 65.4, 106.72 21.42, 121.93 1.32 M38.35 103.56 C64.09 69.72, 96.39 36.4, 128.23 0.17 M38.35 103.56 C69.77 63.41, 104.14 28.05, 128.23 0.17 M43.99 103.17 C72.18 69.93, 99.77 34.64, 132.56 1.28 M43.99 103.17 C71.18 75.9, 94.23 45.75, 132.56 1.28 M48.98 103.53 C78.51 72.3, 109.01 37.34, 136.89 2.4 M48.98 103.53 C78.79 66.94, 112.6 29.21, 136.89 2.4 M54.62 103.14 C83.69 70.26, 109.42 41, 141.22 3.51 M54.62 103.14 C92.33 63.86, 123.86 21.22, 141.22 3.51 M59.61 103.5 C82.97 71.73, 110.32 44.72, 144.9 5.38 M59.61 103.5 C82.54 72.12, 111.37 43.99, 144.9 5.38 M65.25 103.1 C94.75 75.28, 117.74 44.01, 147.92 8.01 M65.25 103.1 C82.46 79.79, 102.58 60.81, 147.92 8.01 M70.24 103.46 C102 67.27, 136.76 28.46, 150.94 10.63 M70.24 103.46 C93.3 76.78, 117.7 47.4, 150.94 10.63 M75.88 103.07 C99.75 75.53, 130.05 40.64, 151.99 15.52 M75.88 103.07 C99.36 75.16, 122.48 50.7, 151.99 15.52 M80.87 103.43 C105.69 74.34, 131.3 50.68, 153.69 19.65 M80.87 103.43 C99.32 85.14, 120.59 63.91, 153.69 19.65 M86.52 103.03 C110.77 71.18, 136.11 45.93, 153.43 26.05 M86.52 103.03 C102.75 81.73, 119.16 62.85, 153.43 26.05 M91.5 103.39 C104.49 91.81, 115.13 74.91, 153.83 31.69 M91.5 103.39 C113.67 80.09, 133.6 53.81, 153.83 31.69 M97.15 103 C112.65 84.51, 138.37 57.47, 153.57 38.09 M97.15 103 C109.76 89.53, 120.83 74.83, 153.57 38.09 M102.13 103.36 C112.38 89.44, 124.43 70.64, 153.96 43.74 M102.13 103.36 C120.13 85, 135.06 68.13, 153.96 43.74 M107.78 102.96 C115.37 90.49, 131.15 74.08, 153.7 50.13 M107.78 102.96 C122.86 86.24, 138.96 71.53, 153.7 50.13 M112.76 103.32 C124.09 94.12, 129.57 75.99, 154.09 55.78 M112.76 103.32 C119.46 94.33, 128.33 81.85, 154.09 55.78 M118.41 102.93 C130.31 91.71, 133.14 82.49, 153.83 62.17 M118.41 102.93 C124.67 93.74, 135 86.54, 153.83 62.17 M123.39 103.29 C137.46 91.01, 144.22 75.77, 153.57 68.57 M123.39 103.29 C135.61 87.8, 149.27 76.26, 153.57 68.57 M129.69 102.14 C142.43 94.72, 144.4 83.1, 153.97 74.21 M129.69 102.14 C136.31 93.4, 141.69 87.12, 153.97 74.21 M135.99 100.99 C141.58 98.09, 143.23 88.17, 156.33 77.59 M135.99 100.99 C142.33 90.72, 152.13 82.91, 156.33 77.59" stroke="#12b886" stroke-width="0.5" fill="none"></path><path d="M25.2 0 M25.2 0 C60.26 -2.3, 90.66 -1.83, 128.1 0 M25.2 0 C44.08 3.13, 67.6 2.89, 128.1 0 M128.1 0 C146.82 -1.33, 151.65 9.66, 153.3 25.2 M128.1 0 C146.67 -4.22, 155.36 10.58, 153.3 25.2 M153.3 25.2 C154 39.2, 156.49 59.05, 153.3 75.61 M153.3 25.2 C153.72 43.63, 154.69 65.4, 153.3 75.61 M153.3 75.61 C156.7 95.94, 148.04 98.43, 128.1 100.81 M153.3 75.61 C157.41 88.31, 143.53 96.65, 128.1 100.81 M128.1 100.81 C95.25 100.93, 57.65 104.38, 25.2 100.81 M128.1 100.81 C106.04 100.32, 87.2 98.13, 25.2 100.81 M25.2 100.81 C8.29 102.03, -2.02 94.49, 0 75.61 M25.2 100.81 C9.33 105.27, 3.59 90.73, 0 75.61 M0 75.61 C-1.47 67.24, 0.22 52.66, 0 25.2 M0 75.61 C-0.35 54.96, 1.11 37.46, 0 25.2 M0 25.2 C0.55 7.85, 7.62 -0.15, 25.2 0 M0 25.2 C2.74 5.79, 6.49 1.92, 25.2 0" stroke="#099268" stroke-width="1" fill="none"></path></g><g transform="translate(610.01869382702 337.41792275248724) rotate(0 52.734375 24)"><text x="52.734375" y="0" font-family="Cascadia, Segoe UI Emoji" font-size="20px" fill="#099268" text-anchor="middle" style="white-space: pre;" direction="ltr" dominant-baseline="text-before-edge">Anwendung</text><text x="52.734375" y="24" font-family="Cascadia, Segoe UI Emoji" font-size="20px" fill="#099268" text-anchor="middle" style="white-space: pre;" direction="ltr" dominant-baseline="text-before-edge">Service 2</text></g><g stroke-linecap="round"><g stroke-opacity="0.3" fill-opacity="0.3" transform="translate(99.79717937042531 661.8975833811185) rotate(0 487.29674135928076 -0.3314784276518026)"><path d="M0.01 0.56 C162.75 0.51, 813.48 0.34, 976.03 0.28 M-1.44 -0.19 C161.15 -0.59, 811.73 -0.99, 974.92 -1.23" stroke="#099268" stroke-width="4" fill="none"></path></g></g><mask></mask><g stroke-linecap="round"><g stroke-opacity="0.3" fill-opacity="0.3" transform="translate(104.81750417714872 660.5912653169323) rotate(0 -14.34101120342757 -158.37095469092242)"><path d="M-0.31 1.18 C-9.77 -1.21, -43.84 -7.41, -56.71 -13.79 C-69.59 -20.17, -71.39 -26.14, -77.58 -37.09 C-83.76 -48.04, -92.23 -56.3, -93.84 -79.51 C-95.45 -102.71, -90.87 -152.49, -87.24 -176.33 C-83.61 -200.16, -82.26 -206.13, -72.05 -222.52 C-61.85 -238.91, -44.11 -259.25, -26.01 -274.68 C-7.92 -290.12, 21.49 -308.54, 36.53 -315.13 C51.57 -321.73, 59.44 -314.49, 64.2 -314.26 M1.72 0.75 C-7.37 -2, -41.72 -8.76, -54.53 -15.35 C-67.33 -21.94, -68.48 -27.74, -75.09 -38.81 C-81.7 -49.87, -92 -58.95, -94.21 -81.73 C-96.42 -104.51, -92.17 -152.39, -88.34 -175.49 C-84.51 -198.6, -81.73 -203.6, -71.23 -220.35 C-60.73 -237.11, -43.2 -260.09, -25.33 -276.01 C-7.46 -291.94, 20.75 -309.87, 35.99 -315.9 C51.24 -321.94, 61.69 -312.52, 66.14 -312.23" stroke="#099268" stroke-width="4" fill="none"></path></g></g><mask></mask><g stroke-linecap="round"><g stroke-opacity="0.3" fill-opacity="0.3" transform="translate(169.29791760250305 337.79569639777117) rotate(0 199.75702343652432 -163.3618574277931)"><path d="M-1 1.07 C-6.51 -17.98, -27.58 -83.59, -33.38 -113.13 C-39.19 -142.67, -38.32 -159.39, -35.84 -176.19 C-33.36 -192.99, -29.43 -197.24, -18.5 -213.93 C-7.57 -230.63, 12.07 -260.65, 29.75 -276.34 C47.43 -292.03, 68.49 -299.96, 87.59 -308.07 C106.69 -316.19, 118.35 -322.11, 144.34 -325.01 C170.32 -327.91, 210.09 -329.25, 243.49 -325.5 C276.9 -321.74, 323.23 -309.52, 344.77 -302.47 C366.31 -295.42, 357.3 -305.21, 372.71 -283.2 C388.13 -261.18, 426.2 -189.36, 437.26 -170.4 M0.68 0.59 C-4.42 -18.26, -25.37 -84.83, -31.08 -114.62 C-36.79 -144.42, -35.76 -161.3, -33.56 -178.2 C-31.36 -195.1, -28.7 -199.68, -17.88 -216.05 C-7.07 -232.41, 13.53 -260.9, 31.35 -276.41 C49.17 -291.92, 70.63 -301.31, 89.04 -309.1 C107.45 -316.88, 116.25 -320.3, 141.81 -323.13 C167.37 -325.96, 208.79 -329.29, 242.41 -326.08 C276.03 -322.87, 322.21 -310.89, 343.53 -303.84 C364.84 -296.78, 354.7 -306.05, 370.3 -283.75 C385.91 -261.44, 425.83 -188.98, 437.14 -170.02" stroke="#099268" stroke-width="4" fill="none"></path></g></g><mask></mask><g stroke-linecap="round"><g stroke-opacity="0.3" fill-opacity="0.3" transform="translate(601.8183578643527 163.17795814515011) rotate(0 186.83147116941234 43.78062720167692)"><path d="M-0.78 1.19 C8.29 -4.75, 31.21 -26.35, 53.39 -34.6 C75.57 -42.85, 92.4 -48.64, 132.3 -48.32 C172.19 -48, 255.85 -42.43, 292.75 -32.67 C329.64 -22.91, 340.02 -17.82, 353.64 10.23 C367.26 38.28, 371.15 114.69, 374.44 135.65 M1.01 0.77 C10.51 -5.01, 33.67 -27.9, 55.49 -36.4 C77.3 -44.89, 92.42 -50.95, 131.9 -50.22 C171.39 -49.49, 255.68 -42.16, 292.4 -32.02 C329.12 -21.88, 338.83 -17.67, 352.21 10.64 C365.59 38.95, 369.05 116.6, 372.68 137.84" stroke="#099268" stroke-width="4" fill="none"></path></g></g><mask></mask><g stroke-linecap="round"><g stroke-opacity="0.3" fill-opacity="0.3" transform="translate(1068.986966532761 661.033108989237) rotate(0 45.7760225747802 -195.76634965877767)"><path d="M-1.17 0.63 C13.73 -7.36, 64.01 -27.47, 88.61 -46.72 C113.22 -65.96, 133.41 -93.34, 146.47 -114.83 C159.53 -136.33, 163.42 -150.67, 166.99 -175.67 C170.55 -200.67, 172.99 -238.56, 167.88 -264.82 C162.78 -291.08, 151.2 -313.78, 136.36 -333.22 C121.52 -352.66, 98.39 -371.85, 78.86 -381.49 C59.33 -391.13, 40.78 -392.18, 19.2 -391.05 C-2.38 -389.93, -34.6 -380.58, -50.61 -374.74 C-66.62 -368.89, -72.36 -359, -76.86 -356 M0.42 -0.09 C15.29 -7.9, 63.31 -29.41, 88.03 -48.39 C112.76 -67.37, 135.57 -92.94, 148.77 -113.97 C161.98 -135, 164.25 -149.4, 167.27 -174.55 C170.3 -199.7, 171.83 -238.2, 166.9 -264.86 C161.98 -291.52, 152.82 -314.84, 137.72 -334.5 C122.61 -354.16, 96.12 -373.32, 76.27 -382.82 C56.43 -392.32, 39.55 -393.12, 18.66 -391.49 C-2.23 -389.87, -32.75 -378.89, -49.06 -373.07 C-65.38 -367.24, -74.56 -359.35, -79.25 -356.55" stroke="#099268" stroke-width="4" fill="none"></path></g></g><mask></mask><g stroke-linecap="round"><g transform="translate(669.8439779179296 430.3270136615781) rotate(0 0.5443088195200403 39.58557251424271)"><path d="M-0.51 -0.7 C-0.28 12.61, 1.36 66.34, 1.6 79.87" stroke="#099268" stroke-width="4.5" fill="none" stroke-dasharray="1.5 10"></path></g></g><mask></mask><g stroke-linecap="round" transform="translate(1138.7641100430976 411.72069202357625) rotate(0 119 65.5)"><path d="M7.86 8.16 C7.86 8.16, 7.86 8.16, 7.86 8.16 M7.86 8.16 C7.86 8.16, 7.86 8.16, 7.86 8.16 M3.66 19.09 C8.9 13.22, 13.65 7.87, 18.1 2.48 M3.66 19.09 C8.56 12.62, 14.8 6.27, 18.1 2.48 M2.75 26.24 C8.4 21.38, 10.91 17.41, 24.4 1.33 M2.75 26.24 C11.05 15.58, 20.03 6.16, 24.4 1.33 M2.48 32.64 C9.58 21.6, 20.26 12.8, 30.7 0.18 M2.48 32.64 C12.37 22.33, 20.42 13.03, 30.7 0.18 M2.88 38.28 C12.75 28.97, 17.37 18.66, 34.37 2.05 M2.88 38.28 C14.91 26.12, 26.09 12.21, 34.37 2.05 M2.62 44.68 C15.13 29.98, 30.25 11.46, 39.36 2.41 M2.62 44.68 C17.07 28.75, 29.32 12.96, 39.36 2.41 M2.36 51.07 C10.93 40.32, 19.48 28.5, 45 2.02 M2.36 51.07 C18.72 32.12, 35.08 13.57, 45 2.02 M2.75 56.72 C18.05 39.07, 32.07 25.18, 49.99 2.38 M2.75 56.72 C14.77 41.8, 29.1 27.64, 49.99 2.38 M2.49 63.11 C13.36 47.54, 24.25 37.62, 55.63 1.98 M2.49 63.11 C13.92 49.11, 26.12 35.9, 55.63 1.98 M2.88 68.76 C24.77 45.14, 46.7 21.87, 60.62 2.34 M2.88 68.76 C19.59 48.57, 34.53 30.23, 60.62 2.34 M2.62 75.16 C15.27 57.13, 33.76 41.5, 66.26 1.95 M2.62 75.16 C18.06 56.18, 34.57 37.84, 66.26 1.95 M2.36 81.55 C28.31 49.57, 55.48 19.34, 71.25 2.31 M2.36 81.55 C24.63 56.59, 45.7 31.75, 71.25 2.31 M2.76 87.2 C28.31 56.36, 52.93 28.93, 76.89 1.91 M2.76 87.2 C29.98 55.72, 58 23.59, 76.89 1.91 M2.49 93.59 C24.74 65.9, 47.91 38.74, 81.88 2.27 M2.49 93.59 C19.35 72.69, 37.4 53.49, 81.88 2.27 M2.89 99.24 C25.13 74.69, 46.36 48.39, 87.52 1.88 M2.89 99.24 C23.12 74.64, 43.04 50.83, 87.52 1.88 M1.32 107.14 C36.33 66.93, 69.74 29.82, 92.51 2.24 M1.32 107.14 C31.08 73.54, 60.53 40.86, 92.51 2.24 M3.02 111.28 C22.05 90.61, 42.97 67.15, 98.15 1.85 M3.02 111.28 C24.68 86.12, 47.66 59.86, 98.15 1.85 M4.07 116.17 C41.41 77.25, 74.13 37.25, 103.14 2.21 M4.07 116.17 C31.26 83.98, 58.48 51.27, 103.14 2.21 M6.44 119.55 C32.26 89.56, 57.78 59.61, 108.78 1.81 M6.44 119.55 C39.87 80.32, 73.05 42.9, 108.78 1.81 M8.8 122.92 C49.2 75.91, 89.81 30.45, 113.77 2.17 M8.8 122.92 C31.54 97.03, 54.09 69.25, 113.77 2.17 M11.82 125.55 C53.16 79.48, 90.69 34.99, 119.41 1.78 M11.82 125.55 C33.39 102.17, 55.35 76.42, 119.41 1.78 M14.84 128.17 C46.05 92.96, 76.73 60.74, 124.4 2.14 M14.84 128.17 C59.32 79.63, 102.29 29.88, 124.4 2.14 M18.51 130.04 C58.83 85.81, 100.23 41.21, 130.04 1.74 M18.51 130.04 C58.11 85.03, 96.73 40.96, 130.04 1.74 M22.84 131.16 C67.19 79.21, 111.92 30.75, 135.03 2.1 M22.84 131.16 C61.44 87.38, 98.79 41.81, 135.03 2.1 M27.17 132.27 C64.89 87.73, 107.38 41.91, 140.67 1.71 M27.17 132.27 C65.95 87.43, 104.73 42.33, 140.67 1.71 M32.82 131.88 C74.3 82.24, 118.85 31.76, 145.66 2.07 M32.82 131.88 C69.33 90.05, 105.22 48.33, 145.66 2.07 M38.46 131.48 C70.56 94.88, 104.96 57.8, 150.65 2.43 M38.46 131.48 C79.89 82.59, 123.29 35.97, 150.65 2.43 M43.45 131.84 C74.49 93.88, 106.61 60.98, 156.29 2.03 M43.45 131.84 C72.9 98.56, 101.05 64.17, 156.29 2.03 M49.09 131.45 C78.57 98.45, 108.12 65.92, 161.28 2.39 M49.09 131.45 C84.49 91.07, 121.65 47.57, 161.28 2.39 M54.08 131.81 C98.26 82.89, 141.6 33.89, 166.92 2 M54.08 131.81 C80.86 101.45, 107.69 71.95, 166.92 2 M59.72 131.41 C96 87.1, 135.93 41.12, 171.91 2.36 M59.72 131.41 C91.1 92.55, 124.92 55.75, 171.91 2.36 M64.71 131.77 C106.2 85.35, 144.4 39.95, 177.55 1.96 M64.71 131.77 C108.14 83.34, 148.94 35.43, 177.55 1.96 M69.69 132.13 C113.63 82.64, 155.85 35.29, 182.54 2.32 M69.69 132.13 C98.85 100.64, 126.03 68.57, 182.54 2.32 M75.34 131.74 C114.63 88.7, 151.71 43.5, 188.18 1.93 M75.34 131.74 C113.36 87.42, 152.12 44.67, 188.18 1.93 M80.32 132.1 C122.07 84.03, 166.49 30.46, 193.17 2.29 M80.32 132.1 C103.51 105.15, 126.75 78.2, 193.17 2.29 M85.97 131.71 C114.52 98.51, 144.33 65.43, 198.81 1.9 M85.97 131.71 C117.26 96.76, 148.17 58.47, 198.81 1.9 M90.95 132.07 C130.55 86.33, 168.21 38.86, 203.8 2.26 M90.95 132.07 C118.42 101.3, 144.91 69.89, 203.8 2.26 M96.6 131.67 C131.41 91.66, 167.29 51.68, 208.78 2.62 M96.6 131.67 C127.23 96.79, 157.51 62.02, 208.78 2.62 M101.58 132.03 C130.26 96.77, 160.87 62.92, 215.08 1.47 M101.58 132.03 C129.38 99.87, 158.85 65.76, 215.08 1.47 M107.23 131.64 C131.41 101.06, 161.54 68.01, 218.76 3.34 M107.23 131.64 C134.85 101.77, 160.94 69.61, 218.76 3.34 M112.21 132 C137.9 104.63, 161.7 73.36, 223.09 4.45 M112.21 132 C139.48 101.46, 165.06 71.35, 223.09 4.45 M117.86 131.6 C149.98 95.51, 184.84 56.72, 227.42 5.57 M117.86 131.6 C147.86 95.52, 178.23 59.75, 227.42 5.57 M122.84 131.96 C161.57 85.09, 201.48 40.17, 229.78 8.94 M122.84 131.96 C166.58 83.7, 210.57 33.97, 229.78 8.94 M128.49 131.57 C162 93.53, 193.55 57.86, 232.8 11.57 M128.49 131.57 C160.68 92.07, 195.39 54.24, 232.8 11.57 M133.47 131.93 C174.54 88.06, 214.94 41.1, 235.82 14.19 M133.47 131.93 C156.51 103.94, 181.59 76.74, 235.82 14.19 M139.12 131.53 C170.6 92.68, 202.63 55.45, 236.87 19.08 M139.12 131.53 C162.68 103.34, 187.14 75.39, 236.87 19.08 M144.1 131.89 C174.84 94.08, 207.01 56.18, 238.58 23.21 M144.1 131.89 C165.33 107.08, 187.38 81.54, 238.58 23.21 M149.75 131.5 C171.03 107.52, 195.29 81.84, 240.28 27.35 M149.75 131.5 C167.72 111.26, 186.99 89.33, 240.28 27.35 M154.73 131.86 C175.42 111.07, 194.47 84.76, 240.68 32.99 M154.73 131.86 C172.07 112.89, 187.82 92.42, 240.68 32.99 M160.38 131.46 C188.87 98.29, 218.39 63.31, 240.42 39.39 M160.38 131.46 C183.32 105.67, 205.74 79.81, 240.42 39.39 M165.36 131.82 C186.78 104.79, 210.36 78.95, 240.81 45.03 M165.36 131.82 C192.04 101.87, 219.43 72.39, 240.81 45.03 M171.01 131.43 C185.43 115.88, 200.3 97.5, 240.55 51.43 M171.01 131.43 C186.35 114.35, 200.98 97.15, 240.55 51.43 M175.99 131.79 C197.02 109.78, 216.54 86.43, 240.94 57.07 M175.99 131.79 C201.26 104.01, 225.82 75.64, 240.94 57.07 M180.98 132.15 C200.39 106.79, 222.02 82.82, 240.68 63.47 M180.98 132.15 C198.96 109.89, 216.86 88.78, 240.68 63.47 M186.62 131.75 C199.45 118.96, 208.9 105.13, 241.08 69.11 M186.62 131.75 C197.08 118.69, 209.29 104.93, 241.08 69.11 M191.61 132.11 C206.35 112.17, 225.67 91.41, 240.82 75.51 M191.61 132.11 C205.08 114.43, 220.24 98.67, 240.82 75.51 M197.25 131.72 C209.4 116.38, 227.28 99.96, 240.55 81.91 M197.25 131.72 C208.1 121.29, 217.72 110.78, 240.55 81.91 M202.24 132.08 C210.61 123.05, 216.48 111.24, 240.95 87.55 M202.24 132.08 C214.1 120.68, 224.65 106.46, 240.95 87.55 M207.23 132.44 C220.29 116.41, 233.52 102.89, 240.69 93.95 M207.23 132.44 C214.97 123.23, 222.92 113.42, 240.69 93.95 M213.53 131.29 C224.83 121.24, 231.68 108.12, 239.77 101.1 M213.53 131.29 C219.59 124.09, 225.47 118.18, 239.77 101.1 M220.48 129.39 C225.43 126.34, 228.4 117.97, 238.85 108.26 M220.48 129.39 C227.08 121.74, 234.23 112.25, 238.85 108.26" stroke="#ffa94d" stroke-width="0.5" fill="none"></path><path d="M32 0 M32 0 C75.03 -2.55, 118.63 -2.21, 206 0 M206 0 C229.07 -1.09, 237.65 12.44, 238 32 M238 32 C238.14 50.07, 238.65 67.89, 238 99 M238 99 C239.37 118.66, 228.02 132.37, 206 131 M206 131 C161.36 132.27, 115.73 131.22, 32 131 M32 131 C12.26 131.59, 1.72 120.69, 0 99 M0 99 C0.63 77.88, -1.96 58.23, 0 32 M0 32 C1.02 9.56, 9.97 -1.18, 32 0" stroke="#e8590c" stroke-width="1.5" fill="none" stroke-dasharray="1.5 7"></path></g><g transform="translate(1224.9516100430976 460.42069202357624) rotate(0 32.8125 16.799999999999997)"><text x="32.8125" y="0" font-family="Cascadia, Segoe UI Emoji" font-size="28px" fill="#e8590c" text-anchor="middle" style="white-space: pre;" direction="ltr" dominant-baseline="text-before-edge">Logs</text></g><g stroke-linecap="round"><g transform="translate(748.7641100430977 279.5900019273102) rotate(0 193.14377389582523 61.96595163919511)"><path d="M-1.03 0.08 C63.6 21.07, 322.66 104.22, 387.32 124.86 M0.63 -0.93 C65.22 19.84, 322.55 102.23, 386.85 123.25" stroke="#e8590c" stroke-width="1" fill="none"></path></g><g transform="translate(748.7641100430977 279.5900019273102) rotate(0 193.14377389582523 61.96595163919511)"><path d="M357 125.88 C366.36 125.18, 372.6 125.91, 387.14 125.05 M356.38 124.34 C365.04 124.08, 374.11 123.77, 387.73 122.7" stroke="#e8590c" stroke-width="1" fill="none"></path></g><g transform="translate(748.7641100430977 279.5900019273102) rotate(0 193.14377389582523 61.96595163919511)"><path d="M363.31 106.35 C370.83 110.71, 375.43 116.55, 387.14 125.05 M362.69 104.81 C369.59 110.45, 376.76 116, 387.73 122.7" stroke="#e8590c" stroke-width="1" fill="none"></path></g></g><mask></mask><g stroke-linecap="round"><g transform="translate(749.8203067733091 391.88252249593927) rotate(0 189.64045296189374 22.372626405551713)"><path d="M1.1 0.7 C64.1 7.91, 316.2 36.1, 379.06 43.13 M0.22 0.01 C63.06 7.46, 315.77 37.38, 378.66 44.73" stroke="#e8590c" stroke-width="1" fill="none"></path></g><g transform="translate(749.8203067733091 391.88252249593927) rotate(0 189.64045296189374 22.372626405551713)"><path d="M350.63 53.39 C361.01 49.09, 371.93 46.07, 378.32 46.2 M350.08 52.33 C356.22 49.01, 362.72 48.35, 378.35 45.6" stroke="#e8590c" stroke-width="1" fill="none"></path></g><g transform="translate(749.8203067733091 391.88252249593927) rotate(0 189.64045296189374 22.372626405551713)"><path d="M353.03 33.01 C362.45 36.65, 372.44 41.54, 378.32 46.2 M352.48 31.95 C358.19 33.04, 364.17 36.79, 378.35 45.6" stroke="#e8590c" stroke-width="1" fill="none"></path></g></g><mask></mask><g stroke-linecap="round"><g transform="translate(754.820306773309 598.4097488446113) rotate(0 187.7859731066972 -33.48321472216699)"><path d="M-0.97 0.59 C61.87 -10.46, 313.56 -54.76, 376.54 -65.97 M0.72 -0.15 C63.41 -11.53, 312.79 -56.72, 375.35 -67.55" stroke="#e8590c" stroke-width="1" fill="none"></path></g><g transform="translate(754.820306773309 598.4097488446113) rotate(0 187.7859731066972 -33.48321472216699)"><path d="M350.37 -53.28 C357.74 -56.32, 363.25 -59.19, 373.47 -69.2 M350.19 -52.83 C358.9 -57.77, 369.37 -63.34, 375.37 -68.23" stroke="#e8590c" stroke-width="1" fill="none"></path></g><g transform="translate(754.820306773309 598.4097488446113) rotate(0 187.7859731066972 -33.48321472216699)"><path d="M346.78 -73.48 C355.12 -71.31, 361.55 -68.99, 373.47 -69.2 M346.6 -73.04 C356.61 -70.16, 368.47 -67.92, 375.37 -68.23" stroke="#e8590c" stroke-width="1" fill="none"></path></g></g><mask></mask><g stroke-linecap="round"><g transform="translate(570.820306773309 452.5385838177368) rotate(0 277.1243092048914 3.8868203210602417)"><path d="M-0.93 -1.08 C91.7 0.31, 462.41 6.03, 555.18 7.35 M0.78 0.97 C93.32 2.64, 461.91 7.7, 554.33 8.85" stroke="#e8590c" stroke-width="1" fill="none"></path></g><g transform="translate(570.820306773309 452.5385838177368) rotate(0 277.1243092048914 3.8868203210602417)"><path d="M524.21 19.04 C533.06 17.64, 539.29 12.25, 553.15 9.36 M525.7 19.54 C534.28 16.06, 541.65 12.48, 554.93 9.23" stroke="#e8590c" stroke-width="1" fill="none"></path></g><g transform="translate(570.820306773309 452.5385838177368) rotate(0 277.1243092048914 3.8868203210602417)"><path d="M524.48 -1.48 C533.1 2.25, 539.26 1.99, 553.15 9.36 M525.97 -0.98 C534.64 1.57, 541.94 4.01, 554.93 9.23" stroke="#e8590c" stroke-width="1" fill="none"></path></g></g><mask></mask><g stroke-linecap="round"><g transform="translate(569.820306773309 499.2461031125827) rotate(0 278.9629843409547 0.29042510667967747)"><path d="M-0.11 -0.68 C92.66 -1.01, 464.4 -0.94, 557.24 -1 M-1.63 1.58 C91.47 1.32, 466.07 0.51, 559.56 0.24" stroke="#e8590c" stroke-width="1" fill="none"></path></g><g transform="translate(569.820306773309 499.2461031125827) rotate(0 278.9629843409547 0.29042510667967747)"><path d="M530.26 9.31 C540.29 5.19, 550.14 4.66, 560.55 1.06 M531.88 11.13 C537.97 8.31, 546.02 4.77, 560.02 1.01" stroke="#e8590c" stroke-width="1" fill="none"></path></g><g transform="translate(569.820306773309 499.2461031125827) rotate(0 278.9629843409547 0.29042510667967747)"><path d="M530.21 -11.21 C540.42 -8.1, 550.29 -1.41, 560.55 1.06 M531.83 -9.39 C537.96 -7.16, 546.02 -5.65, 560.02 1.01" stroke="#e8590c" stroke-width="1" fill="none"></path></g></g><mask></mask><g transform="translate(1061.6078600430976 326.32069202357627) rotate(0 35.15625 24)"><text x="35.15625" y="0" font-family="Cascadia, Segoe UI Emoji" font-size="20px" fill="#e8590c" text-anchor="middle" style="white-space: pre;" direction="ltr" dominant-baseline="text-before-edge">stdout</text><text x="35.15625" y="24" font-family="Cascadia, Segoe UI Emoji" font-size="20px" fill="#e8590c" text-anchor="middle" style="white-space: pre;" direction="ltr" dominant-baseline="text-before-edge">stderr</text></g></svg>