<svg version="1.1" xmlns="http://www.w3.org/2000/svg" viewBox="0 0 741.1538702723291 403.8" width="2223.461610816987" height="1211.4" filter="invert(93%) hue-rotate(180deg)">
  <!-- svg-source:excalidraw -->
  
  <defs>
    <style class="style-fonts">
      @font-face {
        font-family: "Virgil";
        src: url("https://excalidraw.com/Virgil.woff2");
      }
      @font-face {
        font-family: "Cascadia";
        src: url("https://excalidraw.com/Cascadia.woff2");
      }
    </style>
    
  </defs>
  <g stroke-linecap="round"><g transform="translate(93.68512027232907 389.6) rotate(0 267.812858988056 0.012029010878251256)"><path d="M0.05 -1.08 C89.29 -1.06, 445.37 -1.15, 534.89 -1.04 M-1.39 0.97 C88.26 1.3, 447.29 1.05, 537.01 0.48" stroke="#099268" stroke-width="1" fill="none"></path></g></g><mask></mask><g stroke-linecap="round"><g transform="translate(95.68512027232907 392.6) rotate(0 129.6188520567166 -188.1918668419123)"><path d="M1.1 0.54 C44.38 -62.18, 216.04 -314.32, 259.02 -376.93 M0.22 -0.22 C43.4 -62.77, 215.08 -313.08, 258.08 -375.87" stroke="#099268" stroke-width="1" fill="none"></path></g></g><mask></mask><g stroke-linecap="round"><g transform="translate(357.6851202723291 18.600000000000023) rotate(0 137.15254713342057 183.54975815652872)"><path d="M-0.07 0.05 C46.08 61.28, 230.1 305.91, 275.86 367.04 M-1.56 -0.98 C44.6 60.41, 229.52 306.66, 275.37 368.08" stroke="#099268" stroke-width="1" fill="none"></path></g></g><mask></mask><g stroke-linecap="round"><g transform="translate(11.685120272329073 23.600000000000023) rotate(0 -0.20707367881200867 181.21182912290098)"><path d="M-0.15 -1.02 C-0.4 59.69, -1.16 302.82, -0.94 363.44 M-1.69 1.06 C-1.62 61.48, 0.82 301.09, 1.27 361.55" stroke="#099268" stroke-width="1" fill="none"></path></g><g transform="translate(11.685120272329073 23.600000000000023) rotate(0 -0.20707367881200867 181.21182912290098)"><path d="M-10.94 331.88 C-5.05 345.14, -2.65 352.28, 1 361.84 M-8.36 334.13 C-4.61 343.71, -1.6 355.59, 1.01 361.3" stroke="#099268" stroke-width="1" fill="none"></path></g><g transform="translate(11.685120272329073 23.600000000000023) rotate(0 -0.20707367881200867 181.21182912290098)"><path d="M9.58 331.7 C8.35 344.99, 3.63 352.2, 1 361.84 M12.16 333.95 C7.92 343.67, 2.94 355.61, 1.01 361.3" stroke="#099268" stroke-width="1" fill="none"></path></g></g><mask></mask><g transform="translate(27.685120272329073 51.60000000000002) rotate(0 105.46875 24)"><text x="0" y="0" font-family="Cascadia, Segoe UI Emoji" font-size="20px" fill="#099268" text-anchor="start" style="white-space: pre;" direction="ltr" dominant-baseline="text-before-edge">mehr </text><text x="0" y="24" font-family="Cascadia, Segoe UI Emoji" font-size="20px" fill="#099268" text-anchor="start" style="white-space: pre;" direction="ltr" dominant-baseline="text-before-edge">Verantwortlichkeit</text></g><g transform="translate(646.7788702723291 374.6) rotate(0 42.1875 9.599999999999994)"><text x="0" y="0" font-family="Cascadia, Segoe UI Emoji" font-size="16px" fill="#099268" text-anchor="start" style="white-space: pre;" direction="ltr" dominant-baseline="text-before-edge">low level</text></g><g transform="translate(393.0913702723291 10) rotate(0 46.875 9.600000000000001)"><text x="0" y="0" font-family="Cascadia, Segoe UI Emoji" font-size="16px" fill="#099268" text-anchor="start" style="white-space: pre;" direction="ltr" dominant-baseline="text-before-edge">high level</text></g></svg>