<svg version="1.1" xmlns="http://www.w3.org/2000/svg" viewBox="0 0 741.1538702723291 403.8" width="2223.461610816987" height="1211.4" filter="invert(93%) hue-rotate(180deg)">
  <!-- svg-source:excalidraw -->
  
  <defs>
    <style class="style-fonts">
      @font-face {
        font-family: "Virgil";
        src: url("https://excalidraw.com/Virgil.woff2");
      }
      @font-face {
        font-family: "Cascadia";
        src: url("https://excalidraw.com/Cascadia.woff2");
      }
    </style>
    
  </defs>
  <g stroke-linecap="round"><g transform="translate(150.68512027232907 206.60000000000002) rotate(0 224.31567462384697 -1.8702322810888319)"><path d="M0.79 -1 C75.24 -1.6, 373.21 -2.5, 447.84 -2.74" stroke="#e8590c" stroke-width="1.5" fill="none" stroke-dasharray="1.5 7"></path></g></g><mask></mask><g transform="translate(244.13824527232907 234.60000000000002) rotate(0 123.046875 12)"><text x="123.046875" y="0" font-family="Cascadia, Segoe UI Emoji" font-size="20px" fill="#f08c00" text-anchor="middle" style="white-space: pre;" direction="ltr" dominant-baseline="text-before-edge">Platform as a Service</text></g><g transform="translate(179.68512027232907 308) rotate(0 187.5 9.599999999999994)"><text x="187.5" y="0" font-family="Cascadia, Segoe UI Emoji" font-size="16px" fill="#e8590c" text-anchor="middle" style="white-space: pre;" direction="ltr" dominant-baseline="text-before-edge">(Runtime, Betriebssystem, Netzwerk, ...)</text></g><g stroke-linecap="round" transform="translate(229.68512027232907 104.60000000000002) rotate(0 133.5 45)"><path d="M5.33 5.96 C5.33 5.96, 5.33 5.96, 5.33 5.96 M5.33 5.96 C5.33 5.96, 5.33 5.96, 5.33 5.96 M0.48 17.64 C4.23 11.25, 7.61 8.58, 13.6 2.55 M0.48 17.64 C6.03 12.53, 10.66 6.96, 13.6 2.55 M0.87 23.28 C7.16 16.89, 14.92 7.52, 19.9 1.4 M0.87 23.28 C6.22 16.41, 12.52 9.54, 19.9 1.4 M0.61 29.68 C7.04 20.83, 14.67 10.79, 24.89 1.76 M0.61 29.68 C7.72 22.32, 13.59 15.62, 24.89 1.76 M0.35 36.08 C7.07 28.83, 13.38 19.35, 29.87 2.12 M0.35 36.08 C7.67 27.11, 15.2 18.34, 29.87 2.12 M0.75 41.72 C9.4 33.86, 15.18 25.75, 35.52 1.72 M0.75 41.72 C12.23 27, 24.92 13.32, 35.52 1.72 M0.48 48.12 C10.42 35.7, 23.73 24.58, 40.5 2.08 M0.48 48.12 C13.21 32.6, 25.29 18.24, 40.5 2.08 M0.88 53.76 C11.24 38.19, 25.46 25.38, 46.15 1.69 M0.88 53.76 C10.49 43.15, 19.45 31.86, 46.15 1.69 M0.62 60.16 C17.41 38.58, 34.94 21.74, 51.13 2.05 M0.62 60.16 C16.65 41.76, 30.52 23.78, 51.13 2.05 M0.36 66.56 C19.07 45.46, 38.66 21.21, 56.78 1.65 M0.36 66.56 C13.26 50.68, 27.46 34.28, 56.78 1.65 M0.75 72.2 C17.85 56.02, 30.99 39.01, 61.76 2.01 M0.75 72.2 C13.61 56.82, 26.41 40.93, 61.76 2.01 M3.11 75.58 C26.58 47.2, 53.81 18.15, 67.41 1.62 M3.11 75.58 C25.36 49.65, 47.42 24.34, 67.41 1.62 M4.82 79.72 C23.33 58.96, 40.33 38.23, 72.39 1.98 M4.82 79.72 C22.82 58.45, 41.32 37.63, 72.39 1.98 M5.87 84.6 C21.52 65.05, 38.28 45.8, 78.04 1.59 M5.87 84.6 C28.11 59.37, 51.88 33.04, 78.04 1.59 M9.55 86.47 C24.23 69.91, 41.18 49.65, 83.02 1.95 M9.55 86.47 C24.8 67.57, 42.14 47.8, 83.02 1.95 M12.56 89.1 C33.59 66.54, 51.81 44.06, 88.01 2.31 M12.56 89.1 C28.9 71.19, 44.15 52.52, 88.01 2.31 M17.55 89.46 C33.09 69.77, 52.34 48.66, 93.65 1.91 M17.55 89.46 C39.27 63.46, 61.38 38.67, 93.65 1.91 M22.54 89.82 C48.38 59.44, 75.4 28.28, 98.64 2.27 M22.54 89.82 C40.01 70.54, 55.87 49.8, 98.64 2.27 M25.56 92.44 C50.61 63.1, 76.94 30.75, 104.28 1.88 M25.56 92.44 C55.49 58.62, 84.88 26, 104.28 1.88 M30.54 92.8 C53.28 65.26, 76.05 40.53, 109.27 2.24 M30.54 92.8 C62.29 56.17, 93.7 19.96, 109.27 2.24 M36.19 92.41 C59.91 65.5, 83.92 38.78, 114.91 1.84 M36.19 92.41 C57.02 67.01, 79.04 42.46, 114.91 1.84 M41.17 92.77 C59.91 73.24, 74.02 54.49, 119.9 2.2 M41.17 92.77 C61.26 68.39, 81.84 45.23, 119.9 2.2 M46.82 92.37 C73.79 62.48, 101.46 29.63, 125.54 1.81 M46.82 92.37 C68.15 68.08, 89.21 41.97, 125.54 1.81 M51.8 92.73 C76.95 64.69, 98.24 38.44, 130.53 2.17 M51.8 92.73 C72.13 68.13, 91.73 44.16, 130.53 2.17 M57.45 92.34 C79.05 67.47, 104.8 40.99, 136.17 1.77 M57.45 92.34 C84.54 59.63, 112.77 27.94, 136.17 1.77 M62.43 92.7 C85.34 65.33, 110.63 38.3, 141.16 2.13 M62.43 92.7 C84.47 65.74, 108.2 39.81, 141.16 2.13 M68.08 92.3 C84.08 73.4, 99.36 53.7, 146.8 1.74 M68.08 92.3 C97.11 58.97, 125.48 25.51, 146.8 1.74 M73.06 92.66 C95.58 69.07, 115.29 43.9, 151.79 2.1 M73.06 92.66 C104.09 58.66, 133.25 24.43, 151.79 2.1 M78.71 92.27 C103.06 65.94, 125.21 39.18, 157.43 1.7 M78.71 92.27 C97.76 70.11, 118.97 46.58, 157.43 1.7 M83.69 92.63 C111.61 61.88, 138.6 30.89, 162.42 2.06 M83.69 92.63 C114.8 55.44, 145.99 19.57, 162.42 2.06 M89.34 92.24 C110.57 69.84, 132.44 44.09, 168.06 1.67 M89.34 92.24 C108.56 67.62, 129.71 43.58, 168.06 1.67 M94.32 92.6 C112.34 75.95, 127.52 57.31, 173.05 2.03 M94.32 92.6 C120.27 62.92, 146.29 33.09, 173.05 2.03 M99.97 92.2 C128.7 59.24, 154.98 30.04, 178.69 1.64 M99.97 92.2 C123.49 64.87, 147.43 38.02, 178.69 1.64 M104.95 92.56 C121.34 73.87, 141.79 51.12, 183.68 2 M104.95 92.56 C124.12 70.58, 142.87 49.64, 183.68 2 M109.94 92.92 C131.05 65.48, 156.09 43.79, 189.32 1.6 M109.94 92.92 C140.7 58.39, 171.21 24.37, 189.32 1.6 M115.58 92.53 C138.56 64.62, 163.12 38.74, 194.31 1.96 M115.58 92.53 C137.83 67.76, 161.16 41.77, 194.31 1.96 M120.57 92.89 C144.53 66.79, 168.17 37.17, 199.95 1.57 M120.57 92.89 C138.98 74.75, 155.26 54.46, 199.95 1.57 M126.21 92.49 C144.23 71.19, 166.64 48.58, 204.94 1.93 M126.21 92.49 C151.12 65.87, 174.29 38.4, 204.94 1.93 M131.2 92.85 C159.99 58.7, 193.19 25.05, 209.93 2.29 M131.2 92.85 C160.07 60.23, 187.6 26.33, 209.93 2.29 M136.84 92.46 C165.68 56.34, 194.91 22.39, 215.57 1.89 M136.84 92.46 C154.18 74.14, 170.68 54.34, 215.57 1.89 M141.83 92.82 C160.06 71.7, 174.75 54.72, 220.56 2.25 M141.83 92.82 C166.34 65.1, 191.11 36.96, 220.56 2.25 M147.48 92.42 C174.89 60.79, 197.02 30.14, 226.2 1.86 M147.48 92.42 C167.7 68.81, 187.95 47.39, 226.2 1.86 M152.46 92.78 C181.37 61.18, 209.68 28.45, 231.19 2.22 M152.46 92.78 C170.08 74.3, 186.41 54.11, 231.19 2.22 M158.11 92.39 C175.33 70.62, 193.9 52.76, 236.83 1.82 M158.11 92.39 C182.28 64.9, 204.97 38.42, 236.83 1.82 M163.09 92.75 C189.91 62.27, 214.75 34.5, 241.82 2.18 M163.09 92.75 C186.91 64.88, 212.48 35.53, 241.82 2.18 M168.74 92.35 C197.49 60.21, 226.11 29.52, 246.81 2.54 M168.74 92.35 C196.72 59.25, 223.51 28.48, 246.81 2.54 M173.72 92.71 C198.71 63.04, 221.64 33.81, 251.79 2.9 M173.72 92.71 C201.22 59.89, 230.47 27.71, 251.79 2.9 M179.37 92.32 C200.06 69.19, 216.91 46.58, 256.78 3.26 M179.37 92.32 C203.59 65.14, 226.75 38.6, 256.78 3.26 M184.35 92.68 C206.23 66.36, 228.76 44.24, 259.8 5.89 M184.35 92.68 C210.46 61.26, 239 30.22, 259.8 5.89 M190 92.28 C208.21 75.57, 222.71 53.49, 262.82 8.51 M190 92.28 C212.58 66.75, 234.05 40.56, 262.82 8.51 M194.98 92.64 C214.06 74.37, 231 52.13, 265.84 11.14 M194.98 92.64 C212.21 73.19, 227.46 53.38, 265.84 11.14 M200.63 92.25 C215.57 73.84, 235 52.94, 267.54 15.27 M200.63 92.25 C214.35 75.65, 228.39 60.05, 267.54 15.27 M205.61 92.61 C227.08 65.72, 249.05 40.88, 269.25 19.4 M205.61 92.61 C228.41 64.51, 253.55 37.06, 269.25 19.4 M211.26 92.22 C226.93 74.94, 241.46 60.07, 268.99 25.8 M211.26 92.22 C231.87 68.82, 252.34 44.18, 268.99 25.8 M216.24 92.58 C231.5 77.35, 244.81 57.11, 269.38 31.44 M216.24 92.58 C230.47 76.17, 243.91 61.19, 269.38 31.44 M221.23 92.94 C232.68 80.8, 245.04 65.88, 269.12 37.84 M221.23 92.94 C238.71 70.87, 257.3 50.35, 269.12 37.84 M226.87 92.54 C242.08 71.18, 261.9 52.45, 269.52 43.49 M226.87 92.54 C237.86 79.34, 250.48 65.81, 269.52 43.49 M231.86 92.9 C243.33 77.53, 255.75 66.17, 269.26 49.88 M231.86 92.9 C247.66 75.99, 262.03 58.6, 269.26 49.88 M237.5 92.51 C249.45 77.72, 261.15 63.61, 269.65 55.53 M237.5 92.51 C244.45 83.2, 252.74 74.74, 269.65 55.53 M244.46 90.6 C253.38 78.77, 261.77 68.18, 269.39 61.92 M244.46 90.6 C250.15 84.14, 254.73 79.87, 269.39 61.92 M251.41 88.7 C253.65 84.63, 259.64 78.79, 268.47 69.08 M251.41 88.7 C257.9 81.54, 264.46 74.32, 268.47 69.08" stroke="#ffa94d" stroke-width="0.5" fill="none"></path><path d="M22.5 0 M22.5 0 C104.45 -0.41, 184.14 -1.39, 244.5 0 M22.5 0 C87.72 0.29, 152.73 1.36, 244.5 0 M244.5 0 C259.02 0.11, 266.27 6.41, 267 22.5 M244.5 0 C259.66 -0.88, 268.64 5.94, 267 22.5 M267 22.5 C265.95 40.65, 265.56 57.14, 267 67.5 M267 22.5 C267.49 36.17, 268.35 47.27, 267 67.5 M267 67.5 C268.51 83.66, 260.21 88.55, 244.5 90 M267 67.5 C266.6 80.34, 260.29 91.33, 244.5 90 M244.5 90 C180.06 89.58, 116.82 88.11, 22.5 90 M244.5 90 C189.66 88.27, 135.64 88.59, 22.5 90 M22.5 90 C8.98 91.3, 1.07 82.26, 0 67.5 M22.5 90 C5.24 90.36, 1.48 82.99, 0 67.5 M0 67.5 C-2.14 55.17, 1.03 42.7, 0 22.5 M0 67.5 C0.71 53.13, -0.64 40.55, 0 22.5 M0 22.5 C1.1 7.83, 7.18 1.44, 22.5 0 M0 22.5 C-1.38 8.97, 9.12 -2.28, 22.5 0" stroke="#e8590c" stroke-width="1" fill="none"></path></g><g transform="translate(320.9976202723291 140.00000000000003) rotate(0 42.1875 9.599999999999994)"><text x="42.1875" y="0" font-family="Cascadia, Segoe UI Emoji" font-size="16px" fill="#e8590c" text-anchor="middle" style="white-space: pre;" direction="ltr" dominant-baseline="text-before-edge">Anwendung</text></g><g stroke-linecap="round"><g transform="translate(11.685120272329073 23.600000000000023) rotate(0 -0.20707367881200867 181.21182912290098)"><path d="M-0.15 -1.02 C-0.4 59.69, -1.16 302.82, -0.94 363.44 M-1.69 1.06 C-1.62 61.48, 0.82 301.09, 1.27 361.55" stroke="#099268" stroke-width="1" fill="none"></path></g><g transform="translate(11.685120272329073 23.600000000000023) rotate(0 -0.20707367881200867 181.21182912290098)"><path d="M-10.94 331.88 C-5.05 345.14, -2.65 352.28, 1 361.84 M-8.36 334.13 C-4.61 343.71, -1.6 355.59, 1.01 361.3" stroke="#099268" stroke-width="1" fill="none"></path></g><g transform="translate(11.685120272329073 23.600000000000023) rotate(0 -0.20707367881200867 181.21182912290098)"><path d="M9.58 331.7 C8.35 344.99, 3.63 352.2, 1 361.84 M12.16 333.95 C7.92 343.67, 2.94 355.61, 1.01 361.3" stroke="#099268" stroke-width="1" fill="none"></path></g></g><mask></mask><g transform="translate(27.685120272329073 51.60000000000002) rotate(0 105.46875 24)"><text x="0" y="0" font-family="Cascadia, Segoe UI Emoji" font-size="20px" fill="#099268" text-anchor="start" style="white-space: pre;" direction="ltr" dominant-baseline="text-before-edge">mehr </text><text x="0" y="24" font-family="Cascadia, Segoe UI Emoji" font-size="20px" fill="#099268" text-anchor="start" style="white-space: pre;" direction="ltr" dominant-baseline="text-before-edge">Verantwortlichkeit</text></g><g stroke-linecap="round"><g transform="translate(95.68512027232907 392.6) rotate(0 129.6188520567166 -188.1918668419123)"><path d="M1.1 0.54 C44.38 -62.18, 216.04 -314.32, 259.02 -376.93 M0.22 -0.22 C43.4 -62.77, 215.08 -313.08, 258.08 -375.87" stroke="#099268" stroke-width="1" fill="none"></path></g></g><mask></mask><g stroke-linecap="round"><g transform="translate(357.6851202723291 18.600000000000023) rotate(0 137.15254713342057 183.54975815652872)"><path d="M-0.07 0.05 C46.08 61.28, 230.1 305.91, 275.86 367.04 M-1.56 -0.98 C44.6 60.41, 229.52 306.66, 275.37 368.08" stroke="#099268" stroke-width="1" fill="none"></path></g></g><mask></mask><g stroke-linecap="round"><g transform="translate(93.68512027232907 389.6) rotate(0 267.812858988056 0.012029010878251256)"><path d="M0.05 -1.08 C89.29 -1.06, 445.37 -1.15, 534.89 -1.04 M-1.39 0.97 C88.26 1.3, 447.29 1.05, 537.01 0.48" stroke="#099268" stroke-width="1" fill="none"></path></g></g><mask></mask><g transform="translate(646.7788702723291 374.6) rotate(0 42.1875 9.599999999999994)"><text x="0" y="0" font-family="Cascadia, Segoe UI Emoji" font-size="16px" fill="#099268" text-anchor="start" style="white-space: pre;" direction="ltr" dominant-baseline="text-before-edge">low level</text></g><g transform="translate(393.0913702723291 10) rotate(0 46.875 9.600000000000001)"><text x="0" y="0" font-family="Cascadia, Segoe UI Emoji" font-size="16px" fill="#099268" text-anchor="start" style="white-space: pre;" direction="ltr" dominant-baseline="text-before-edge">high level</text></g></svg>