<svg version="1.1" xmlns="http://www.w3.org/2000/svg" viewBox="0 0 881.4599471713949 159.21808408605511" width="2644.3798415141846" height="477.65425225816534" filter="invert(93%) hue-rotate(180deg)">
  <!-- svg-source:excalidraw -->
  
  <defs>
    <style class="style-fonts">
      @font-face {
        font-family: "Virgil";
        src: url("https://excalidraw.com/Virgil.woff2");
      }
      @font-face {
        font-family: "Cascadia";
        src: url("https://excalidraw.com/Cascadia.woff2");
      }
    </style>
    
  </defs>
  <g stroke-linecap="round" transform="translate(10 15.2180840860551) rotate(0 126.5 67)"><path d="M7.86 8.16 C7.86 8.16, 7.86 8.16, 7.86 8.16 M7.86 8.16 C7.86 8.16, 7.86 8.16, 7.86 8.16 M2.35 20.59 C9.27 17.59, 10.21 13.56, 18.1 2.48 M2.35 20.59 C8.11 14.45, 12.09 11.4, 18.1 2.48 M2.75 26.24 C9.88 22.2, 15.49 11.38, 24.4 1.33 M2.75 26.24 C7.02 19.6, 12.51 14.03, 24.4 1.33 M2.48 32.64 C12.52 21.22, 26.38 9.18, 30.7 0.18 M2.48 32.64 C8.94 26.29, 15.71 18.14, 30.7 0.18 M2.88 38.28 C10.26 29.54, 20.19 13.82, 34.37 2.05 M2.88 38.28 C14.91 24.69, 23.6 15.87, 34.37 2.05 M2.62 44.68 C11.33 33.43, 19.02 25.1, 39.36 2.41 M2.62 44.68 C12.07 31.06, 23.19 20.74, 39.36 2.41 M2.36 51.07 C13.27 34.09, 25.03 18.31, 45 2.02 M2.36 51.07 C13.9 36.03, 26.04 26.04, 45 2.02 M2.75 56.72 C17.52 34.66, 30.99 22.09, 49.99 2.38 M2.75 56.72 C19.3 39.57, 33.1 23.38, 49.99 2.38 M2.49 63.11 C20.29 46.45, 38.19 25.74, 55.63 1.98 M2.49 63.11 C21.71 44.32, 40.69 23.83, 55.63 1.98 M2.88 68.76 C19.47 52.92, 26.43 36.23, 60.62 2.34 M2.88 68.76 C23.11 44.6, 44.9 20, 60.62 2.34 M2.62 75.16 C26.75 54.22, 44.46 24.54, 66.26 1.95 M2.62 75.16 C27.4 46.98, 46.67 23.11, 66.26 1.95 M2.36 81.55 C30.85 52.58, 55.49 21.37, 71.25 2.31 M2.36 81.55 C23.63 56.55, 44.98 34.2, 71.25 2.31 M2.76 87.2 C24.63 61.87, 43.36 41.24, 76.89 1.91 M2.76 87.2 C24.05 60.91, 46.95 36.31, 76.89 1.91 M2.49 93.59 C25.17 74.52, 37.49 51.09, 81.88 2.27 M2.49 93.59 C22.97 69.05, 43.27 47.47, 81.88 2.27 M2.89 99.24 C20.98 80.12, 41.53 60.23, 87.52 1.88 M2.89 99.24 C28.94 70.81, 55.22 35.75, 87.52 1.88 M2.63 105.64 C32.07 73.81, 51.6 47.58, 92.51 2.24 M2.63 105.64 C40.43 65.64, 77.4 23.98, 92.51 2.24 M3.02 111.28 C33.18 74.42, 58.44 40.29, 98.15 1.85 M3.02 111.28 C33.66 74.79, 67.14 37.49, 98.15 1.85 M4.07 116.17 C25.57 86.11, 48.33 54.9, 103.14 2.21 M4.07 116.17 C38.86 74.1, 77.01 34.86, 103.14 2.21 M4.47 121.81 C32.72 79.81, 71.07 43.55, 108.78 1.81 M4.47 121.81 C42.48 80.66, 79.77 37.4, 108.78 1.81 M7.49 124.43 C25.3 102.9, 51.14 73.16, 113.77 2.17 M7.49 124.43 C39 92.05, 68.93 54.92, 113.77 2.17 M10.51 127.06 C44.16 90.24, 69.94 54.63, 119.41 1.78 M10.51 127.06 C38.21 97.38, 64.91 67.46, 119.41 1.78 M12.87 130.44 C47.18 97.22, 80.39 57.86, 124.4 2.14 M12.87 130.44 C41.29 96.11, 66.86 64.21, 124.4 2.14 M17.86 130.8 C59.76 78.34, 97.63 31.49, 130.04 1.74 M17.86 130.8 C59.69 86.59, 96.28 41.83, 130.04 1.74 M22.19 131.91 C52.17 92.46, 83.36 64.22, 135.03 2.1 M22.19 131.91 C48.02 106.1, 70.74 78.33, 135.03 2.1 M26.52 133.03 C72.39 87.99, 114.87 34.69, 140.67 1.71 M26.52 133.03 C52.51 106.38, 75.72 79, 140.67 1.71 M30.85 134.14 C61.25 96.91, 94.15 57.6, 145.66 2.07 M30.85 134.14 C53.85 106.08, 77.67 79.11, 145.66 2.07 M34.52 136.01 C72.04 96.29, 101.67 56.24, 150.65 2.43 M34.52 136.01 C67.94 94.96, 101.49 55.49, 150.65 2.43 M39.51 136.37 C75.69 92.78, 114.09 42.36, 156.29 2.03 M39.51 136.37 C73.56 95.8, 107.93 57.95, 156.29 2.03 M45.15 135.98 C82.74 89.21, 123.07 44.04, 161.28 2.39 M45.15 135.98 C78.67 95.46, 115.51 56.14, 161.28 2.39 M50.14 136.34 C72.09 113.3, 101.56 86.68, 166.92 2 M50.14 136.34 C84.23 98.25, 115.83 60.33, 166.92 2 M55.78 135.94 C86.56 100.93, 117.18 69.64, 171.91 2.36 M55.78 135.94 C101 85.01, 143.55 34.68, 171.91 2.36 M60.77 136.3 C97.78 94.18, 127.15 53.61, 177.55 1.96 M60.77 136.3 C87.4 103.46, 112.49 75.51, 177.55 1.96 M66.41 135.91 C103.57 94.46, 141.43 51.22, 182.54 2.32 M66.41 135.91 C101.43 94.4, 136.63 54.33, 182.54 2.32 M71.4 136.27 C106.29 100, 143.48 60.1, 188.18 1.93 M71.4 136.27 C118.18 86.01, 161.32 34.14, 188.18 1.93 M77.04 135.87 C100.97 107.11, 130.68 77.07, 193.17 2.29 M77.04 135.87 C105.77 106.16, 129.83 75.97, 193.17 2.29 M82.03 136.23 C124.55 86.7, 168.8 32.35, 198.81 1.9 M82.03 136.23 C128.56 83.37, 172.55 31.06, 198.81 1.9 M87.67 135.84 C116.77 102.6, 140.68 78.83, 203.8 2.26 M87.67 135.84 C112.94 106.23, 133.22 81.8, 203.8 2.26 M92.66 136.2 C123.6 99.8, 157.26 59.67, 209.44 1.86 M92.66 136.2 C135.26 89.16, 175.65 38.76, 209.44 1.86 M98.3 135.8 C139.85 95.43, 170.82 49.33, 214.43 2.22 M98.3 135.8 C128.06 104.94, 157.39 69.76, 214.43 2.22 M103.29 136.16 C132.34 101.2, 161.43 73.2, 221.38 0.32 M103.29 136.16 C140.99 91.49, 182.57 48.34, 221.38 0.32 M108.93 135.77 C147.92 91.85, 182.65 52.72, 225.71 1.43 M108.93 135.77 C135.61 110.73, 159.12 80.38, 225.71 1.43 M113.92 136.13 C152.76 90.28, 195.98 39.11, 230.04 2.55 M113.92 136.13 C141.27 106.65, 168.57 75.43, 230.04 2.55 M118.91 136.49 C153.49 90.07, 194 52.51, 234.37 3.66 M118.91 136.49 C166.43 85.92, 208.7 36.19, 234.37 3.66 M124.55 136.1 C164.37 86.83, 210.31 34.05, 238.7 4.78 M124.55 136.1 C156.97 96.14, 191.48 56.94, 238.7 4.78 M129.54 136.46 C158.22 98.58, 194.11 60.98, 242.38 6.65 M129.54 136.46 C166.41 99.89, 201.28 58.65, 242.38 6.65 M135.18 136.06 C159.62 105.5, 187.79 71.92, 245.4 9.27 M135.18 136.06 C162.28 102.09, 194.82 67.82, 245.4 9.27 M140.17 136.42 C169.05 107.44, 200.18 69.61, 248.42 11.89 M140.17 136.42 C165.57 105.94, 191.47 77.47, 248.42 11.89 M145.81 136.03 C171.7 101.94, 199.99 69.88, 251.44 14.52 M145.81 136.03 C172.3 104.86, 198.62 75.2, 251.44 14.52 M150.8 136.39 C181.2 94.55, 213.47 63.45, 252.49 19.41 M150.8 136.39 C174.93 111.88, 197 86.17, 252.49 19.41 M156.44 135.99 C182.03 107.69, 203.44 77.45, 252.88 25.05 M156.44 135.99 C193.58 96.46, 226.08 57.73, 252.88 25.05 M161.43 136.35 C187.92 103.53, 212.58 76.81, 253.28 30.69 M161.43 136.35 C180.1 116.1, 200.62 91.99, 253.28 30.69 M167.07 135.96 C201.61 102.22, 230.06 64.31, 253.01 37.09 M167.07 135.96 C192.15 104.75, 218.9 77.23, 253.01 37.09 M172.06 136.32 C195.63 108.81, 220.51 78.56, 253.41 42.73 M172.06 136.32 C201.66 101.71, 232.05 68.08, 253.41 42.73 M177.7 135.92 C195.25 115.87, 216.2 91.5, 253.15 49.13 M177.7 135.92 C194.34 117.58, 210.54 97.03, 253.15 49.13 M182.69 136.28 C205.89 107.12, 233.18 77.12, 252.89 55.53 M182.69 136.28 C205.6 108.92, 232.77 76.72, 252.89 55.53 M188.33 135.89 C208.58 115.26, 226.08 99.52, 253.28 61.17 M188.33 135.89 C204.78 116.32, 220.13 96.11, 253.28 61.17 M193.32 136.25 C214.4 112.23, 235.2 87.93, 253.02 67.57 M193.32 136.25 C209.46 114.97, 227.83 95.34, 253.02 67.57 M198.96 135.85 C218.21 114.65, 231.23 99.02, 253.41 73.21 M198.96 135.85 C219.54 113.91, 238.65 90.44, 253.41 73.21 M203.95 136.21 C219.07 116.97, 241.94 90.75, 253.15 79.61 M203.95 136.21 C221.89 116.04, 239.42 98.1, 253.15 79.61 M209.59 135.82 C229.42 114.71, 242.94 98.05, 253.55 85.25 M209.59 135.82 C219.33 120.58, 233.25 107.23, 253.55 85.25 M214.58 136.18 C225.2 125.19, 234.86 111.98, 253.29 91.65 M214.58 136.18 C227.46 123.41, 239.81 107.62, 253.29 91.65 M221.53 134.28 C230.27 116.15, 246.98 105.9, 253.68 97.29 M221.53 134.28 C235.12 120.03, 247.14 104.38, 253.68 97.29 M227.18 133.88 C231.33 129.38, 245.25 115.24, 254.07 102.94 M227.18 133.88 C234.42 124.18, 242.74 117.9, 254.07 102.94 M233.48 132.73 C235.18 127.15, 242.08 120.07, 251.85 111.6 M233.48 132.73 C237.79 127.42, 241.75 122.21, 251.85 111.6" stroke="#12b886" stroke-width="0.5" fill="none"></path><path d="M32 0 M32 0 C102.6 -4.82, 170.95 2.66, 221 0 M32 0 C70.2 2.11, 106.2 1.95, 221 0 M221 0 C238.45 2.38, 254.04 7.96, 253 32 M221 0 C239.96 -2.67, 255.99 7.99, 253 32 M253 32 C249.92 48.77, 253.37 71.17, 253 102 M253 32 C251.56 47.28, 251.9 64.82, 253 102 M253 102 C249.49 123.54, 242.8 137.13, 221 134 M253 102 C252.32 118.84, 238.54 138.25, 221 134 M221 134 C163.72 128.5, 100.95 127.88, 32 134 M221 134 C176.86 134.69, 136.62 137.6, 32 134 M32 134 C11.87 137.47, -0.64 125.2, 0 102 M32 134 C14.3 133.85, -3.18 119.79, 0 102 M0 102 C3.19 85.2, 0.32 76.33, 0 32 M0 102 C2.95 82.14, 1.72 58.71, 0 32 M0 32 C0.23 9.3, 8.42 -0.51, 32 0 M0 32 C1.37 13.68, 8.37 3.08, 32 0" stroke="#099268" stroke-width="1" fill="none"></path></g><g transform="translate(72.046875 70.2180840860551) rotate(0 64.453125 12)"><text x="64.453125" y="0" font-family="Cascadia, Segoe UI Emoji" font-size="20px" fill="#099268" text-anchor="middle" style="white-space: pre;" direction="ltr" dominant-baseline="text-before-edge">RPS Backend</text></g><g stroke-linecap="round" transform="translate(457.9774596681193 10) rotate(0 126.5 67)"><path d="M7.86 8.16 C7.86 8.16, 7.86 8.16, 7.86 8.16 M7.86 8.16 C7.86 8.16, 7.86 8.16, 7.86 8.16 M2.35 20.59 C1.71 18.5, 10.63 10.47, 18.1 2.48 M2.35 20.59 C5.69 17.44, 6.88 14.05, 18.1 2.48 M2.75 26.24 C10.52 18.03, 14.23 9.32, 24.4 1.33 M2.75 26.24 C10.02 17.55, 15.37 7.4, 24.4 1.33 M2.48 32.64 C9.77 25.03, 18.3 6.89, 30.7 0.18 M2.48 32.64 C10.59 22.11, 21.01 11.28, 30.7 0.18 M2.88 38.28 C8.67 26.32, 20.9 16.99, 34.37 2.05 M2.88 38.28 C14.46 23.83, 27.87 8.82, 34.37 2.05 M2.62 44.68 C10.01 30.39, 23.84 25.43, 39.36 2.41 M2.62 44.68 C11.93 36.64, 17.78 26.69, 39.36 2.41 M2.36 51.07 C16.89 37.8, 20.74 29.22, 45 2.02 M2.36 51.07 C11.99 36.88, 23.86 24.81, 45 2.02 M2.75 56.72 C14.29 40.4, 27.8 25.93, 49.99 2.38 M2.75 56.72 C21.05 37.72, 40.42 14.04, 49.99 2.38 M2.49 63.11 C18.9 48.11, 25.77 37.44, 55.63 1.98 M2.49 63.11 C22.29 42.56, 41.2 20.78, 55.63 1.98 M2.88 68.76 C23.89 46.5, 36.5 28.16, 60.62 2.34 M2.88 68.76 C17.32 52.65, 30.18 38.47, 60.62 2.34 M2.62 75.16 C16.45 52.02, 35.84 38.47, 66.26 1.95 M2.62 75.16 C16.2 59.32, 32.36 40.01, 66.26 1.95 M2.36 81.55 C19.26 55.46, 43.58 34.13, 71.25 2.31 M2.36 81.55 C26.36 53.25, 51.04 20.56, 71.25 2.31 M2.76 87.2 C23.07 71.8, 36.15 52.92, 76.89 1.91 M2.76 87.2 C23.75 63.5, 47.04 39.85, 76.89 1.91 M2.49 93.59 C34.76 61.38, 64.77 24.08, 81.88 2.27 M2.49 93.59 C26.09 66.74, 47.94 40.95, 81.88 2.27 M2.89 99.24 C24.14 79.64, 38.79 57.15, 87.52 1.88 M2.89 99.24 C27.98 66.83, 55.37 34.29, 87.52 1.88 M2.63 105.64 C25.96 86.92, 37.41 59.48, 92.51 2.24 M2.63 105.64 C25.8 78.9, 47.23 53.14, 92.51 2.24 M3.02 111.28 C28.16 82.67, 55.46 47.36, 98.15 1.85 M3.02 111.28 C32.3 81.3, 60.96 47.53, 98.15 1.85 M4.07 116.17 C39.87 78.41, 73.72 38.94, 103.14 2.21 M4.07 116.17 C35.77 82.81, 60.91 52.06, 103.14 2.21 M4.47 121.81 C36.87 82.92, 76.77 46.26, 108.78 1.81 M4.47 121.81 C28.02 92.21, 53.45 66.57, 108.78 1.81 M7.49 124.43 C35.44 87.45, 69.78 52, 113.77 2.17 M7.49 124.43 C52.04 77.85, 93.04 28.7, 113.77 2.17 M10.51 127.06 C38.36 90.02, 73.06 50.87, 119.41 1.78 M10.51 127.06 C35.63 95.4, 63.51 66.51, 119.41 1.78 M12.87 130.44 C35.3 101.35, 65.53 66.4, 124.4 2.14 M12.87 130.44 C42.79 100.47, 68.46 67.68, 124.4 2.14 M17.86 130.8 C48.81 99.19, 76.67 63.46, 130.04 1.74 M17.86 130.8 C56.32 85.87, 100.87 37.13, 130.04 1.74 M22.19 131.91 C41.22 106.24, 68.75 79.13, 135.03 2.1 M22.19 131.91 C58.81 86.56, 95.85 42.84, 135.03 2.1 M26.52 133.03 C64.84 90.82, 97.7 49.71, 140.67 1.71 M26.52 133.03 C67.21 90.97, 107.69 44.7, 140.67 1.71 M30.85 134.14 C74.19 79.96, 125.33 31.15, 145.66 2.07 M30.85 134.14 C60.4 96.78, 91.57 61.21, 145.66 2.07 M34.52 136.01 C74.17 94.38, 108.59 57.72, 150.65 2.43 M34.52 136.01 C78.87 87.08, 121.09 35.35, 150.65 2.43 M39.51 136.37 C75.64 105.58, 107.99 68.56, 156.29 2.03 M39.51 136.37 C86.23 85.22, 133.65 30.63, 156.29 2.03 M45.15 135.98 C77.85 99.36, 113.58 57.47, 161.28 2.39 M45.15 135.98 C73.24 110.53, 96.13 80.56, 161.28 2.39 M50.14 136.34 C90.98 93.12, 126.33 53.07, 166.92 2 M50.14 136.34 C75.62 102.91, 103.47 68.91, 166.92 2 M55.78 135.94 C80.6 104.89, 107.55 74.7, 171.91 2.36 M55.78 135.94 C85.16 104.48, 112.27 71.57, 171.91 2.36 M60.77 136.3 C89.31 106.56, 113.8 82.26, 177.55 1.96 M60.77 136.3 C93.81 99.24, 124.61 62.24, 177.55 1.96 M66.41 135.91 C109.43 84.39, 143.36 45.84, 182.54 2.32 M66.41 135.91 C91.93 106.53, 118.11 78.86, 182.54 2.32 M71.4 136.27 C110.5 90.69, 146.89 50.56, 188.18 1.93 M71.4 136.27 C101.29 103.33, 132.52 68.41, 188.18 1.93 M77.04 135.87 C121.01 93.16, 158.55 42.48, 193.17 2.29 M77.04 135.87 C118.38 91.04, 156.86 46.78, 193.17 2.29 M82.03 136.23 C109.02 107.05, 130.48 85.73, 198.81 1.9 M82.03 136.23 C107.65 109.18, 129.87 80.39, 198.81 1.9 M87.67 135.84 C110.98 104.57, 141.94 70.01, 203.8 2.26 M87.67 135.84 C129.06 94.33, 170.03 46.96, 203.8 2.26 M92.66 136.2 C121.54 104.52, 148.04 75.14, 209.44 1.86 M92.66 136.2 C135.8 86.52, 182.51 35.83, 209.44 1.86 M98.3 135.8 C134.87 98.22, 166.15 62.39, 214.43 2.22 M98.3 135.8 C123.55 106.95, 149.96 77.06, 214.43 2.22 M103.29 136.16 C130.92 105.53, 150.71 77.15, 221.38 0.32 M103.29 136.16 C133.18 103.93, 162.58 67.5, 221.38 0.32 M108.93 135.77 C156.4 86.97, 194.91 34.49, 225.71 1.43 M108.93 135.77 C142.2 95.6, 177.48 53.14, 225.71 1.43 M113.92 136.13 C139.09 109.91, 165.73 81.77, 230.04 2.55 M113.92 136.13 C138.46 107.37, 163.86 79.54, 230.04 2.55 M118.91 136.49 C166.84 84.93, 211.67 35.66, 234.37 3.66 M118.91 136.49 C163.2 82.68, 205.12 34.82, 234.37 3.66 M124.55 136.1 C151.99 99.64, 185.16 68.55, 238.7 4.78 M124.55 136.1 C147.34 108.8, 171.27 78.79, 238.7 4.78 M129.54 136.46 C167.74 87.82, 207.8 39.08, 242.38 6.65 M129.54 136.46 C151.61 106.45, 174.85 83.72, 242.38 6.65 M135.18 136.06 C164.08 101.64, 200.13 61.8, 245.4 9.27 M135.18 136.06 C171.22 89.87, 213.68 48.07, 245.4 9.27 M140.17 136.42 C171.78 100.71, 211.15 59.28, 248.42 11.89 M140.17 136.42 C178.23 94.02, 213.54 48.65, 248.42 11.89 M145.81 136.03 C182.69 91.54, 221.22 48.79, 251.44 14.52 M145.81 136.03 C173.31 102.98, 207.45 63.89, 251.44 14.52 M150.8 136.39 C179.42 108.26, 202.73 76.41, 252.49 19.41 M150.8 136.39 C186.5 97.12, 220.77 56.9, 252.49 19.41 M156.44 135.99 C182.65 107.81, 216.81 70.73, 252.88 25.05 M156.44 135.99 C177.07 110.08, 195.51 89.55, 252.88 25.05 M161.43 136.35 C191.88 106.88, 217.47 75.6, 253.28 30.69 M161.43 136.35 C195.39 97.85, 226.71 60.2, 253.28 30.69 M167.07 135.96 C200.7 96.56, 231.99 60.58, 253.01 37.09 M167.07 135.96 C189.68 108.84, 209.23 87.77, 253.01 37.09 M172.06 136.32 C196.17 110.73, 218.51 82.65, 253.41 42.73 M172.06 136.32 C201.45 104.43, 228.88 70.41, 253.41 42.73 M177.7 135.92 C202.58 109.31, 221.55 86.33, 253.15 49.13 M177.7 135.92 C199.33 109.08, 221.16 81.87, 253.15 49.13 M182.69 136.28 C198.83 117.81, 214.21 100.7, 252.89 55.53 M182.69 136.28 C205.36 115.9, 225.47 88.94, 252.89 55.53 M188.33 135.89 C201.61 118.14, 218.68 97.84, 253.28 61.17 M188.33 135.89 C201.61 120.24, 215.36 101.89, 253.28 61.17 M193.32 136.25 C214.44 113.11, 236.67 88.58, 253.02 67.57 M193.32 136.25 C209.71 113.53, 229.71 92.62, 253.02 67.57 M198.96 135.85 C215.13 124.84, 223.43 106.09, 253.41 73.21 M198.96 135.85 C216.81 113, 236.41 90.39, 253.41 73.21 M203.95 136.21 C215.78 120.11, 225.07 107.06, 253.15 79.61 M203.95 136.21 C221.64 114.97, 236.99 95.18, 253.15 79.61 M209.59 135.82 C229.24 116.62, 242.4 102.36, 253.55 85.25 M209.59 135.82 C221.42 118.57, 233.59 105.54, 253.55 85.25 M214.58 136.18 C229.49 122.75, 245.23 105.59, 253.29 91.65 M214.58 136.18 C227.89 119.86, 244.53 106.18, 253.29 91.65 M221.53 134.28 C236.1 122.82, 244.65 109.66, 253.68 97.29 M221.53 134.28 C231.89 124.38, 240.48 111.13, 253.68 97.29 M227.18 133.88 C238.39 119.61, 243.89 106.34, 254.07 102.94 M227.18 133.88 C236.33 122.15, 245.86 113.7, 254.07 102.94 M233.48 132.73 C236.86 123.12, 246.53 115.99, 251.85 111.6 M233.48 132.73 C238.49 126.84, 239.98 123.45, 251.85 111.6" stroke="#fd7e14" stroke-width="0.5" fill="none"></path><path d="M32 0 M32 0 C85.63 0.05, 147.8 4.3, 221 0 M32 0 C95.67 -0.31, 162.04 -0.68, 221 0 M221 0 C242.67 -2.24, 253.17 14.44, 253 32 M221 0 C243.02 -0.68, 255.03 15.23, 253 32 M253 32 C248.97 52.49, 255.6 72.58, 253 102 M253 32 C251.47 45.76, 253.86 62.25, 253 102 M253 102 C254.71 126.96, 244.96 130.56, 221 134 M253 102 C251.78 121.28, 245.39 133.1, 221 134 M221 134 C152.67 127.98, 80.23 131.49, 32 134 M221 134 C182.95 137.77, 143.6 137.12, 32 134 M32 134 C14.53 133.25, 3.93 126.59, 0 102 M32 134 C9.5 137.85, 4.35 124.04, 0 102 M0 102 C1.58 79.91, 3.89 48.43, 0 32 M0 102 C0.83 84.19, 1.2 68.48, 0 32 M0 32 C-0.82 11.72, 9.91 -0.8, 32 0 M0 32 C-1.95 10.03, 11.48 0.54, 32 0" stroke="#e8590c" stroke-width="1" fill="none"></path></g><g transform="translate(525.8837096681193 65) rotate(0 58.59375 12)"><text x="58.59375" y="0" font-family="Cascadia, Segoe UI Emoji" font-size="20px" fill="#e8590c" text-anchor="middle" style="white-space: pre;" direction="ltr" dominant-baseline="text-before-edge">Prometheus</text></g><g stroke-linecap="round"><g transform="translate(451.0065704189732 73.89602648063926) rotate(0 -88.5979327259733 -0.2035005893451114)"><path d="M0.39 0.62 C-29.18 0.37, -148.15 -0.9, -177.59 -1.03 M-0.87 -0.1 C-30.02 -0.27, -145.93 -0.22, -175.22 -0.03" stroke="#e8590c" stroke-width="2" fill="none"></path></g><g transform="translate(451.0065704189732 73.89602648063926) rotate(0 -88.5979327259733 -0.2035005893451114)"><path d="M-146.03 -11.47 C-156.77 -6.12, -163.38 -4.98, -175.97 -0.7 M-146.22 -10.97 C-155.57 -6.82, -161.77 -5.64, -175.77 0.06" stroke="#e8590c" stroke-width="2" fill="none"></path></g><g transform="translate(451.0065704189732 73.89602648063926) rotate(0 -88.5979327259733 -0.2035005893451114)"><path d="M-145.97 9.05 C-156.81 8.54, -163.43 3.82, -175.97 -0.7 M-146.16 9.55 C-155.51 8.07, -161.72 3.63, -175.77 0.06" stroke="#e8590c" stroke-width="2" fill="none"></path></g></g><mask></mask><g transform="translate(352.88127509307776 33.54436163981302) rotate(0 23.4375 12)"><text x="23.4375" y="0" font-family="Cascadia, Segoe UI Emoji" font-size="20px" fill="#e8590c" text-anchor="middle" style="white-space: pre;" direction="ltr" dominant-baseline="text-before-edge">pull</text></g><g stroke-linecap="round"><g transform="translate(717.9483489172661 78.55198708429248) rotate(0 75.96412000893775 -0.5766136441345537)"><path d="M-0.08 -0.73 C25.55 -0.73, 128.02 -0.58, 153.51 -0.88 M-1.58 1.49 C23.9 1.23, 126.33 -2.11, 152.49 -2.65" stroke="#e8590c" stroke-width="2" fill="none"></path></g><g transform="translate(717.9483489172661 78.55198708429248) rotate(0 75.96412000893775 -0.5766136441345537)"><path d="M123.37 8.15 C133.55 4.08, 138.52 0.42, 150.65 -2.45 M125.06 8.61 C131.12 6, 139.58 1.73, 152.94 -2.55" stroke="#e8590c" stroke-width="2" fill="none"></path></g><g transform="translate(717.9483489172661 78.55198708429248) rotate(0 75.96412000893775 -0.5766136441345537)"><path d="M122.81 -12.37 C132.99 -10.74, 138.12 -8.7, 150.65 -2.45 M124.5 -11.91 C130.8 -9.2, 139.4 -8.17, 152.94 -2.55" stroke="#e8590c" stroke-width="2" fill="none"></path></g></g><mask></mask><g transform="translate(780.9158585648566 36.648335808397746) rotate(0 41.015625 12)"><text x="41.015625" y="0" font-family="Cascadia, Segoe UI Emoji" font-size="20px" fill="#e8590c" text-anchor="middle" style="white-space: pre;" direction="ltr" dominant-baseline="text-before-edge">Alerts?</text></g></svg>