<svg version="1.1" xmlns="http://www.w3.org/2000/svg" viewBox="0 0 1695.7864213731557 766.8157693462665" width="5087.359264119467" height="2300.4473080387997" filter="invert(93%) hue-rotate(180deg)">
  <!-- svg-source:excalidraw -->
  
  <defs>
    <style class="style-fonts">
      @font-face {
        font-family: "Virgil";
        src: url("https://excalidraw.com/Virgil.woff2");
      }
      @font-face {
        font-family: "Cascadia";
        src: url("https://excalidraw.com/Cascadia.woff2");
      }
    </style>
    
  </defs>
  <g stroke-linecap="round" transform="translate(1532.4856401231557 419.0944607266292) rotate(0 76.650390625 50.404296875)"><path d="M25.2 0 M25.2 0 C56.73 -0.91, 87.03 3.77, 128.1 0 M25.2 0 C58.62 1.12, 91.96 3.38, 128.1 0 M128.1 0 C141.13 -0.62, 149.33 4.65, 153.3 25.2 M128.1 0 C144.97 -2.54, 157.76 5.16, 153.3 25.2 M153.3 25.2 C153.67 44.35, 154.03 67.27, 153.3 75.61 M153.3 25.2 C153.37 41.42, 154.3 56.74, 153.3 75.61 M153.3 75.61 C155.34 95.08, 145.54 97.48, 128.1 100.81 M153.3 75.61 C153.9 93.52, 141.08 101.04, 128.1 100.81 M128.1 100.81 C92.41 99.99, 57.05 102.38, 25.2 100.81 M128.1 100.81 C100.75 100.25, 74.15 102.03, 25.2 100.81 M25.2 100.81 C11.24 97.97, 3.88 89.87, 0 75.61 M25.2 100.81 C7.5 96.21, -0.33 90.72, 0 75.61 M0 75.61 C2.4 61.31, -2.8 50.1, 0 25.2 M0 75.61 C2.85 59.39, 1.69 42.15, 0 25.2 M0 25.2 C-0.17 8.08, 11.83 -1.6, 25.2 0 M0 25.2 C-1.75 7.82, 8.44 -0.65, 25.2 0" stroke="#099268" stroke-width="1" fill="none"></path></g><g transform="translate(1544.6829057481557 445.4987576016292) rotate(0 64.453125 24)"><text x="64.453125" y="0" font-family="Cascadia, Segoe UI Emoji" font-size="20px" fill="#099268" text-anchor="middle" style="white-space: pre;" direction="ltr" dominant-baseline="text-before-edge">Frontend</text><text x="64.453125" y="24" font-family="Cascadia, Segoe UI Emoji" font-size="20px" fill="#099268" text-anchor="middle" style="white-space: pre;" direction="ltr" dominant-baseline="text-before-edge">(bestehend)</text></g><g stroke-linecap="round" transform="translate(558.6829339175946 301.7190898491233) rotate(0 102.99999999999999 173)"><path d="M7.86 8.16 C7.86 8.16, 7.86 8.16, 7.86 8.16 M7.86 8.16 C7.86 8.16, 7.86 8.16, 7.86 8.16 M2.35 20.59 C9.27 17.59, 10.21 13.56, 18.1 2.48 M2.35 20.59 C8.11 14.45, 12.09 11.4, 18.1 2.48 M2.75 26.24 C9.88 22.2, 15.49 11.38, 24.4 1.33 M2.75 26.24 C7.02 19.6, 12.51 14.03, 24.4 1.33 M2.48 32.64 C12.52 21.22, 26.38 9.18, 30.7 0.18 M2.48 32.64 C8.94 26.29, 15.71 18.14, 30.7 0.18 M2.88 38.28 C10.26 29.54, 20.19 13.82, 34.37 2.05 M2.88 38.28 C14.91 24.69, 23.6 15.87, 34.37 2.05 M2.62 44.68 C11.33 33.43, 19.02 25.1, 39.36 2.41 M2.62 44.68 C12.07 31.06, 23.19 20.74, 39.36 2.41 M2.36 51.07 C13.27 34.09, 25.03 18.31, 45 2.02 M2.36 51.07 C13.9 36.03, 26.04 26.04, 45 2.02 M2.75 56.72 C17.52 34.66, 30.99 22.09, 49.99 2.38 M2.75 56.72 C19.3 39.57, 33.1 23.38, 49.99 2.38 M2.49 63.11 C20.29 46.45, 38.19 25.74, 55.63 1.98 M2.49 63.11 C21.71 44.32, 40.69 23.83, 55.63 1.98 M2.88 68.76 C19.47 52.92, 26.43 36.23, 60.62 2.34 M2.88 68.76 C23.11 44.6, 44.9 20, 60.62 2.34 M2.62 75.16 C26.75 54.22, 44.46 24.54, 66.26 1.95 M2.62 75.16 C27.4 46.98, 46.67 23.11, 66.26 1.95 M2.36 81.55 C30.85 52.58, 55.49 21.37, 71.25 2.31 M2.36 81.55 C23.63 56.55, 44.98 34.2, 71.25 2.31 M2.76 87.2 C24.63 61.87, 43.36 41.24, 76.89 1.91 M2.76 87.2 C24.05 60.91, 46.95 36.31, 76.89 1.91 M2.49 93.59 C25.17 74.52, 37.49 51.09, 81.88 2.27 M2.49 93.59 C22.97 69.05, 43.27 47.47, 81.88 2.27 M2.23 99.99 C20.48 80.72, 41.18 60.66, 87.52 1.88 M2.23 99.99 C28.49 71.33, 54.98 36.02, 87.52 1.88 M2.63 105.64 C32.07 73.81, 51.6 47.58, 92.51 2.24 M2.63 105.64 C40.43 65.64, 77.4 23.98, 92.51 2.24 M2.37 112.03 C32.52 75.18, 57.78 41.04, 97.49 2.6 M2.37 112.03 C33.01 75.54, 66.48 38.24, 97.49 2.6 M2.76 117.68 C24.56 87.23, 47.64 55.65, 103.14 2.21 M2.76 117.68 C38.02 75.06, 76.64 35.29, 103.14 2.21 M2.5 124.07 C31.15 81.59, 69.9 44.86, 108.12 2.57 M2.5 124.07 C40.99 82.41, 78.74 38.61, 108.12 2.57 M2.24 130.47 C20.99 107.73, 47.88 76.77, 113.77 2.17 M2.24 130.47 C35.26 96.41, 66.71 57.52, 113.77 2.17 M2.63 136.11 C38.32 96.8, 66.26 58.71, 118.76 2.53 M2.63 136.11 C32.07 104.49, 60.54 72.53, 118.76 2.53 M2.37 142.51 C39.77 105.85, 76.12 62.88, 124.4 2.14 M2.37 142.51 C33.34 105.08, 61.49 70.22, 124.4 2.14 M2.11 148.91 C49.46 89.87, 93.09 36.4, 129.39 2.5 M2.11 148.91 C49.36 98.72, 91.14 48, 129.39 2.5 M2.5 154.55 C37.86 109.32, 74.18 74.39, 135.03 2.1 M2.5 154.55 C32.4 124.11, 59.21 91.79, 135.03 2.1 M2.24 160.95 C56.99 105.59, 108.39 42.55, 140.02 2.46 M2.24 160.95 C33.2 128.45, 61.35 95.47, 140.02 2.46 M2.64 166.59 C41.34 119.48, 82.51 70.84, 145.66 2.07 M2.64 166.59 C31.78 131.81, 61.94 97.48, 145.66 2.07 M2.38 172.99 C49.32 121.52, 90.07 69.53, 150.65 2.43 M2.38 172.99 C45.44 120.94, 88.84 70.26, 150.65 2.43 M2.11 179.39 C50.04 121.24, 100.52 57.9, 155.63 2.79 M2.11 179.39 C46.6 126.45, 91.56 76.15, 155.63 2.79 M2.51 185.03 C55.3 120.53, 110.74 57.77, 161.28 2.39 M2.51 185.03 C48.76 130.03, 97.79 76.17, 161.28 2.39 M2.25 191.43 C34.76 157.28, 72.74 119.54, 166.26 2.75 M2.25 191.43 C49.82 137.81, 95.1 84.44, 166.26 2.75 M2.64 197.07 C47.65 146.35, 91.68 98.85, 171.91 2.36 M2.64 197.07 C67.4 122.98, 129.86 50.02, 171.91 2.36 M2.38 203.47 C55.7 140.9, 103.84 80.15, 176.89 2.72 M2.38 203.47 C41.93 156.01, 79.84 113.12, 176.89 2.72 M2.12 209.87 C59.67 144.68, 117.48 78.4, 183.19 1.57 M2.12 209.87 C57.48 145.38, 113.66 81.08, 183.19 1.57 M2.51 215.51 C57.56 156.08, 113.35 94.11, 186.87 3.44 M2.51 215.51 C74.87 136.26, 143.74 55.32, 186.87 3.44 M2.25 221.91 C43.6 174.85, 88.95 125.79, 191.2 4.55 M2.25 221.91 C47.85 174.06, 88.94 124.9, 191.2 4.55 M1.99 228.31 C73.26 143.96, 146.81 56.79, 195.53 5.67 M1.99 228.31 C78.13 140.05, 152.82 52.87, 195.53 5.67 M2.39 233.95 C47.79 181.22, 89.32 136.2, 197.89 9.05 M2.39 233.95 C43.48 185.98, 80.67 142.39, 197.89 9.05 M2.12 240.35 C55.5 177.91, 111.27 112.73, 200.91 11.67 M2.12 240.35 C74.08 158.63, 144.66 74.57, 200.91 11.67 M2.52 245.99 C70.6 173.37, 131.06 96.26, 203.93 14.3 M2.52 245.99 C53.1 189.97, 104.4 129.92, 203.93 14.3 M2.26 252.39 C50.8 195.86, 98.6 144.79, 204.98 19.18 M2.26 252.39 C68.29 175.58, 137.69 99.1, 204.98 19.18 M2 258.79 C67.62 184.71, 128.76 114.96, 206.03 24.07 M2 258.79 C46.91 213.27, 88.61 162.94, 206.03 24.07 M2.39 264.43 C74.89 181.17, 150.5 93.15, 207.08 28.96 M2.39 264.43 C50.25 212.28, 97 158.62, 207.08 28.96 M2.13 270.83 C65.62 191.06, 134.24 118.53, 208.13 33.85 M2.13 270.83 C83.98 180.05, 161.1 90.55, 208.13 33.85 M2.52 276.47 C77.58 186.19, 158.2 93.5, 207.87 40.25 M2.52 276.47 C61.43 206.11, 122.64 136.05, 207.87 40.25 M2.26 282.87 C56.89 215.61, 116.86 149.24, 208.26 45.89 M2.26 282.87 C68.33 213.05, 132.17 138.81, 208.26 45.89 M2 289.27 C49.34 232.16, 100.62 172.35, 208 52.29 M2 289.27 C55.23 224.71, 113.5 159.92, 208 52.29 M2.4 294.91 C58.12 235.6, 114.56 169.24, 208.4 57.93 M2.4 294.91 C50.28 238.17, 99.73 182.23, 208.4 57.93 M2.13 301.31 C55.97 235.29, 111.58 171.67, 208.14 64.33 M2.13 301.31 C53.21 242.05, 104.32 183.69, 208.14 64.33 M1.87 307.71 C66.53 227.65, 132.36 156.2, 207.87 70.73 M1.87 307.71 C49.59 256.94, 94.67 204.84, 207.87 70.73 M0.95 314.86 C54.24 254.18, 105.59 191.15, 208.27 76.37 M0.95 314.86 C77.4 231.63, 149.52 147.72, 208.27 76.37 M2.01 319.75 C61.01 251.31, 117.93 187.01, 208.01 82.77 M2.01 319.75 C45.27 271.67, 88.89 221.14, 208.01 82.77 M3.06 324.63 C82.47 238.68, 156.67 149.63, 208.4 88.41 M3.06 324.63 C64.4 252.86, 125.46 184.93, 208.4 88.41 M4.11 329.52 C64.91 258.29, 126.67 186.08, 208.14 94.81 M4.11 329.52 C77.09 244.84, 152.11 159.49, 208.14 94.81 M5.16 334.41 C53.21 279.08, 104.28 220.14, 207.88 101.21 M5.16 334.41 C48.03 285.1, 92.25 232.86, 207.88 101.21 M8.18 337.04 C80.17 252.43, 153.81 168.72, 208.27 106.85 M8.18 337.04 C78.47 254.46, 153.43 167.54, 208.27 106.85 M11.85 338.91 C67.7 278.46, 119.4 222.2, 208.01 113.25 M11.85 338.91 C59.26 280.08, 107.89 222.27, 208.01 113.25 M14.87 341.53 C84.15 262.67, 151.97 184.38, 208.41 118.89 M14.87 341.53 C71.3 274.73, 130.1 208.21, 208.41 118.89 M17.89 344.15 C75.84 276.54, 129.75 214.03, 208.15 125.29 M17.89 344.15 C89.2 267.25, 157.43 187.65, 208.15 125.29 M22.88 344.51 C89.45 265.6, 163.16 180.87, 207.88 131.69 M22.88 344.51 C87.18 269.49, 152.33 196.26, 207.88 131.69 M27.21 345.63 C99.03 267.91, 164.6 191.62, 208.28 137.33 M27.21 345.63 C73.7 287.53, 125.24 230.3, 208.28 137.33 M32.19 345.99 C79.99 292.65, 128.21 235.52, 208.02 143.73 M32.19 345.99 C89.2 284.59, 144.32 219.93, 208.02 143.73 M37.18 346.35 C101.77 264.88, 173 190.09, 208.41 149.37 M37.18 346.35 C105.82 271.13, 172.08 193.45, 208.41 149.37 M42.82 345.95 C88.15 296.73, 140.93 237.53, 208.15 155.77 M42.82 345.95 C91.92 291.69, 140.47 238.52, 208.15 155.77 M47.81 346.31 C80 303.17, 118.97 259.05, 207.89 162.17 M47.81 346.31 C88.83 300.28, 127.3 255.49, 207.89 162.17 M53.45 345.92 C109.57 275.8, 165.53 215.89, 208.28 167.81 M53.45 345.92 C84.38 311.84, 113.83 276.04, 208.28 167.81 M58.44 346.28 C84.74 308.93, 115.43 277.99, 208.02 174.21 M58.44 346.28 C96.33 305.48, 130.29 265.33, 208.02 174.21 M64.08 345.89 C106.59 294.05, 151.47 243.84, 208.42 179.85 M64.08 345.89 C104.24 304.05, 141.22 257.93, 208.42 179.85 M69.07 346.25 C98.09 307.72, 130.22 274.27, 208.16 186.25 M69.07 346.25 C120.25 293.56, 166.8 235.01, 208.16 186.25 M74.71 345.85 C128.08 285.16, 178.28 229.17, 207.89 192.64 M74.71 345.85 C114.45 300.69, 157.23 257.63, 207.89 192.64 M79.7 346.21 C111.46 305.86, 145.37 277.13, 208.29 198.29 M79.7 346.21 C127.66 289.71, 175.34 233.87, 208.29 198.29 M85.34 345.82 C126.63 303.08, 164.01 256.79, 208.03 204.69 M85.34 345.82 C115.4 309.67, 148.71 274.16, 208.03 204.69 M90.33 346.18 C115.46 313.74, 135.8 286.74, 208.42 210.33 M90.33 346.18 C130.33 306.22, 166.36 262.62, 208.42 210.33 M95.97 345.78 C138.33 300.62, 179.45 253.29, 208.16 216.73 M95.97 345.78 C121.81 313.76, 153.03 279.56, 208.16 216.73 M100.96 346.14 C134.88 307.42, 164.95 266.99, 207.9 223.12 M100.96 346.14 C142.94 297.32, 182.06 248.35, 207.9 223.12 M106.6 345.75 C143.23 304.01, 172.23 269.84, 208.29 228.77 M106.6 345.75 C142.7 299.62, 181.19 255.88, 208.29 228.77 M111.59 346.11 C140.21 307.25, 173.8 269.22, 208.03 235.17 M111.59 346.11 C151.88 301.45, 189.58 257.63, 208.03 235.17 M116.58 346.47 C140.12 324.35, 156.07 300.26, 208.43 240.81 M116.58 346.47 C139.75 319.87, 163.75 293.31, 208.43 240.81 M122.22 346.07 C146.68 320.8, 170.38 288.86, 208.17 247.21 M122.22 346.07 C153.76 307.87, 189.52 268.03, 208.17 247.21 M127.21 346.43 C154.66 309.89, 188.22 277.7, 207.9 253.6 M127.21 346.43 C149.6 321.69, 173.95 294.2, 207.9 253.6 M132.85 346.04 C154.65 327, 166.01 307.07, 208.3 259.25 M132.85 346.04 C163.48 315.49, 188.68 283.6, 208.3 259.25 M137.84 346.4 C159.15 322.36, 185.32 299.59, 208.04 265.64 M137.84 346.4 C155.37 326.4, 168.55 310.41, 208.04 265.64 M143.48 346 C165.31 320.69, 188.07 295.14, 208.43 271.29 M143.48 346 C155.82 332.31, 169.14 315.59, 208.43 271.29 M148.47 346.36 C167.82 318.87, 189.29 297.04, 208.17 277.69 M148.47 346.36 C170.47 322.83, 190.69 299.37, 208.17 277.69 M154.11 345.97 C171 324.94, 191.07 299.52, 207.91 284.08 M154.11 345.97 C172.06 326.14, 188.27 304.82, 207.91 284.08 M159.1 346.33 C175.04 328.36, 191.26 309.41, 208.3 289.73 M159.1 346.33 C177.51 327.6, 192.85 304.28, 208.3 289.73 M164.74 345.94 C177.24 330.88, 193.22 318.71, 208.04 296.12 M164.74 345.94 C175.97 336.34, 184.41 326.04, 208.04 296.12 M169.73 346.3 C184.46 334.35, 189.05 322.94, 208.44 301.77 M169.73 346.3 C180.21 335.18, 190.56 324.49, 208.44 301.77 M174.72 346.66 C181.89 335.69, 196.97 326.28, 208.18 308.17 M174.72 346.66 C185.31 335.54, 195.95 325.18, 208.18 308.17 M181.67 344.75 C191.05 332.12, 202.02 321.37, 207.26 315.32 M181.67 344.75 C188.47 338.73, 191.82 330.99, 207.26 315.32 M187.97 343.6 C193.7 334.73, 198.16 336.58, 206.34 322.47 M187.97 343.6 C194.22 337.45, 197.91 330.55, 206.34 322.47" stroke="#ffa94d" stroke-width="0.5" fill="none"></path><path d="M32 0 M32 0 C62.75 -3.46, 93.55 -2.12, 174 0 M32 0 C64.93 -1.59, 94.25 -1.72, 174 0 M174 0 C195.14 -2.06, 206.28 7.51, 206 32 M174 0 C194.76 -4.26, 209.4 7.09, 206 32 M206 32 C205.15 132.08, 203.4 231.76, 206 314 M206 32 C204.02 102.61, 204.49 171.08, 206 314 M206 314 C207.07 332.56, 192.44 349.06, 174 346 M206 314 C208.05 331.33, 199.29 347.57, 174 346 M174 346 C143 340.47, 105.2 343.14, 32 346 M174 346 C141.44 349.25, 106.2 346.43, 32 346 M32 346 C6.7 348.22, -2.59 334.3, 0 314 M32 346 C6.93 350.16, -1.29 334.81, 0 314 M0 314 C-2.04 225.66, 0.08 141.81, 0 32 M0 314 C-1.64 244.61, 0.53 173.74, 0 32 M0 32 C-2.11 9.23, 12.34 0.44, 32 0 M0 32 C2.39 10.52, 13.01 0.21, 32 0" stroke="#e8590c" stroke-width="1" fill="none"></path></g><g transform="translate(620.6673089175946 462.7190898491233) rotate(0 41.015625 12)"><text x="41.015625" y="0" font-family="Cascadia, Segoe UI Emoji" font-size="20px" fill="#e8590c" text-anchor="middle" style="white-space: pre;" direction="ltr" dominant-baseline="text-before-edge">Backend</text></g><g stroke-linecap="round"><g transform="translate(764.6542441813198 616.9986811950564) rotate(0 105.88274235033339 0.6739998313936155)"><path d="M-0.59 0.8 C34.37 0.95, 174.9 1.67, 210.05 1.58 M1.3 0.17 C36.62 -0.09, 177.7 -0.36, 212.36 -0.18" stroke="#e8590c" stroke-width="1" fill="none"></path></g></g><mask></mask><g stroke-linecap="round" transform="translate(977.2764858760961 610.7186993728478) rotate(0 7.625692212681855 7.177122082524107)"><path d="M0.62 3.19 C0.62 3.19, 0.62 3.19, 0.62 3.19 M0.62 3.19 C0.62 3.19, 0.62 3.19, 0.62 3.19 M2.19 7.78 C2.55 6.4, 4.64 4.83, 8.19 1.47 M1.59 8.29 C2.73 6.3, 4.27 4.76, 7.45 1.2 M2.47 11.07 C5.48 8.63, 6.45 8, 12.74 0.52 M3.26 12.67 C5.79 10.22, 7.76 7.13, 13.11 1.66 M5.89 14.69 C8.17 10.66, 11.35 7.28, 15.5 5.12 M6.42 14.4 C8.22 12.51, 10.78 10.42, 15.96 4.19" stroke="#e8590c" stroke-width="0.5" fill="none"></path><path d="M6.3 0.6 C7.86 0.15, 9.56 -0.41, 11 0.07 C12.45 0.55, 14.43 1.78, 14.96 3.48 C15.49 5.18, 14.76 8.6, 14.2 10.28 C13.65 11.96, 12.84 12.74, 11.63 13.57 C10.42 14.4, 8.57 15.67, 6.92 15.27 C5.26 14.87, 2.8 12.5, 1.7 11.14 C0.61 9.78, 0.5 8.49, 0.36 7.12 C0.22 5.75, -0.3 4.27, 0.84 2.95 C1.98 1.62, 6.12 -0.4, 7.22 -0.85 C8.32 -1.3, 7.57 0.06, 7.45 0.27 M4.53 1.07 C5.93 0.4, 8.13 0.11, 9.84 0.69 C11.56 1.28, 13.99 3.15, 14.83 4.57 C15.66 6, 15.22 7.86, 14.85 9.24 C14.48 10.61, 14.01 12.2, 12.59 12.85 C11.17 13.5, 8.17 13.44, 6.33 13.13 C4.49 12.83, 2.44 11.92, 1.54 11.04 C0.64 10.16, 1.09 8.93, 0.94 7.87 C0.79 6.81, -0.01 5.8, 0.65 4.67 C1.3 3.53, 3.95 1.87, 4.87 1.06 C5.8 0.26, 5.89 -0.15, 6.21 -0.14" stroke="#e8590c" stroke-width="1" fill="none"></path></g><g stroke-linecap="round"><g transform="translate(764.9109998820272 520.4513369783313) rotate(0 105.43437753940376 0.5486057523327901)"><path d="M-0.85 0.54 C34.49 0.76, 176.3 1.55, 211.72 1.52 M0.91 -0.22 C36.2 -0.36, 176.17 -0.55, 211.24 -0.28" stroke="#e8590c" stroke-width="1" fill="none"></path></g></g><mask></mask><g stroke-linecap="round" transform="translate(977.5332415768037 514.1713551561228) rotate(0 7.625692212681855 7.177122082524107)"><path d="M1.1 3.61 C1.1 3.61, 1.1 3.61, 1.1 3.61 M1.1 3.61 C1.1 3.61, 1.1 3.61, 1.1 3.61 M1.7 9.83 C2.59 7.92, 4.59 4.82, 7.72 1.78 M1.16 8.97 C2.95 7.66, 5.08 4.99, 7.52 2.2 M3.72 13.77 C6.59 9.37, 8.21 5.98, 12.14 3.96 M3.55 12.48 C5.76 10.24, 8.83 7.71, 11.79 3.31 M7 15.65 C9.89 12.62, 11.45 10.14, 15.25 5.77 M7.94 15.09 C9.85 11.83, 13.06 9.01, 16.67 4.27" stroke="#e8590c" stroke-width="0.5" fill="none"></path><path d="M9.2 1.41 C10.88 2.09, 13.77 3.19, 14.92 4.24 C16.08 5.28, 16.4 6.14, 16.13 7.66 C15.87 9.18, 14.78 12.32, 13.33 13.38 C11.87 14.44, 9.08 14.26, 7.39 14.04 C5.69 13.82, 4.31 13.09, 3.16 12.06 C2.01 11.03, 0.81 9.3, 0.5 7.85 C0.19 6.41, 0.54 4.51, 1.31 3.38 C2.07 2.25, 3.48 1.39, 5.09 1.06 C6.71 0.74, 9.65 1.08, 11.01 1.44 C12.37 1.79, 13.31 3.14, 13.28 3.21 M4.15 1.24 C5.52 0.68, 7.89 -0.2, 9.7 0.29 C11.51 0.79, 14.31 3.12, 15.01 4.2 C15.71 5.28, 14.37 5.18, 13.89 6.75 C13.41 8.31, 12.85 12.46, 12.14 13.58 C11.43 14.7, 11.22 13.66, 9.63 13.46 C8.05 13.26, 4.14 12.92, 2.62 12.37 C1.1 11.83, 0.85 11.67, 0.52 10.2 C0.18 8.73, -0.18 5.24, 0.6 3.57 C1.37 1.9, 4.54 0.71, 5.18 0.18 C5.82 -0.35, 4.36 0.19, 4.42 0.39" stroke="#e8590c" stroke-width="1" fill="none"></path></g><g stroke-linecap="round"><g transform="translate(764.9417207469621 423.9039927616062) rotate(0 105.25434635345732 0.044729444846385746)"><path d="M0.38 -0.19 C35.77 -0.02, 176.42 1.34, 211.39 1.47 M-0.88 -1.34 C34.49 -1.55, 175.74 -0.86, 210.73 -0.35" stroke="#e8590c" stroke-width="1" fill="none"></path></g></g><mask></mask><g stroke-linecap="round" transform="translate(977.5639624417383 417.62401093939775) rotate(0 7.625692212681855 7.177122082524107)"><path d="M1.33 2.48 C1.33 2.48, 1.33 2.48, 1.33 2.48 M1.33 2.48 C1.33 2.48, 1.33 2.48, 1.33 2.48 M0.82 8.99 C2.2 7.65, 3.03 5.66, 6.57 1.47 M0.04 9.31 C3.02 7.49, 5.19 4.7, 7.4 2.29 M3.6 12.88 C5.7 10.32, 9.59 5.88, 13.6 0.7 M2.41 13.19 C4.18 11.44, 6.98 8.48, 12.21 1.93 M6 13.5 C9.55 11.13, 13.41 7.06, 16.76 4.42 M6.41 14.9 C10.17 10.18, 13.7 6.16, 15.45 3.7" stroke="#e8590c" stroke-width="0.5" fill="none"></path><path d="M6.02 1.15 C7.61 0.78, 9.94 0.37, 11.29 0.77 C12.63 1.17, 13.32 2.35, 14.1 3.57 C14.87 4.79, 16.36 6.37, 15.94 8.1 C15.52 9.83, 13.03 12.85, 11.58 13.94 C10.13 15.03, 8.82 14.89, 7.25 14.64 C5.67 14.4, 3.44 13.48, 2.13 12.48 C0.83 11.48, -0.46 10.28, -0.6 8.62 C-0.74 6.96, 0.12 3.86, 1.29 2.53 C2.46 1.2, 4.97 1.06, 6.42 0.63 C7.86 0.2, 9.77 -0.21, 9.95 -0.06 M7.62 1.46 C9.06 1.51, 12.49 0.27, 13.75 1.21 C15.01 2.16, 15.06 5.2, 15.2 7.1 C15.34 8.99, 15.41 11.55, 14.59 12.58 C13.77 13.6, 11.89 13, 10.27 13.24 C8.65 13.48, 6.4 14.72, 4.89 14.01 C3.38 13.3, 1.9 10.4, 1.23 8.97 C0.56 7.54, 0.55 6.53, 0.9 5.41 C1.24 4.29, 2.05 2.97, 3.32 2.28 C4.59 1.59, 7.43 1.45, 8.5 1.28 C9.56 1.1, 9.77 1.12, 9.71 1.23" stroke="#e8590c" stroke-width="1" fill="none"></path></g><g transform="translate(848.6592111950149 578.69019286496) rotate(0 135.93749999999997 9.599999999999994)"><text x="0" y="0" font-family="Cascadia, Segoe UI Emoji" font-size="16px" fill="#e8590c" text-anchor="start" style="white-space: pre;" direction="ltr" dominant-baseline="text-before-edge">PATCH /games/{gameId}/players</text></g><g transform="translate(848.6592111950149 482.01137018170954) rotate(0 131.24999999999997 9.600000000000001)"><text x="0" y="0" font-family="Cascadia, Segoe UI Emoji" font-size="16px" fill="#e8590c" text-anchor="start" style="white-space: pre;" direction="ltr" dominant-baseline="text-before-edge">POST /games/{gameId}/players</text></g><g transform="translate(848.6592111950149 386.5707806135491) rotate(0 89.06249999999997 9.6)"><text x="0" y="0" font-family="Cascadia, Segoe UI Emoji" font-size="16px" fill="#e8590c" text-anchor="start" style="white-space: pre;" direction="ltr" dominant-baseline="text-before-edge">GET /games/{gameId}</text></g><g transform="translate(848.6592111950149 290.5110744878437) rotate(0 51.5625 9.600000000000001)"><text x="0" y="0" font-family="Cascadia, Segoe UI Emoji" font-size="16px" fill="#e8590c" text-anchor="start" style="white-space: pre;" direction="ltr" dominant-baseline="text-before-edge">POST /games</text></g><g stroke-linecap="round"><g transform="translate(764.9957233546224 327.3566485448813) rotate(0 105.68614264120257 0.27629059309608195)"><path d="M-0.93 0.46 C34 0.81, 174.66 1.3, 210.02 1.27 M0.78 -0.35 C36.05 -0.29, 177.33 -0.93, 212.31 -0.65" stroke="#e8590c" stroke-width="1" fill="none"></path></g></g><mask></mask><g stroke-linecap="round" transform="translate(977.6179650493989 321.0766667226727) rotate(0 7.625692212681855 7.177122082524107)"><path d="M-0.3 5.04 C-0.3 5.04, -0.3 5.04, -0.3 5.04 M-0.3 5.04 C-0.3 5.04, -0.3 5.04, -0.3 5.04 M0.4 10.39 C4.1 6.49, 5.95 5.52, 9.37 0.25 M0.78 9.69 C3.28 7.32, 4.9 5.79, 8.7 -0.31 M2.76 12.19 C7.45 7.91, 9.99 5.67, 12.26 2.55 M3.39 12.35 C5.93 9.23, 9.28 6.65, 12.15 2.18 M4.93 16.26 C9.87 13.76, 10.67 8.26, 16.53 5.7 M6.24 16.32 C9.13 11.74, 12.68 8.42, 15.37 4.81" stroke="#e8590c" stroke-width="0.5" fill="none"></path><path d="M7.97 -0.47 C9.48 -0.36, 11.63 1.7, 12.68 2.92 C13.73 4.14, 14.04 5.4, 14.26 6.86 C14.48 8.32, 15.02 10.51, 13.99 11.68 C12.97 12.85, 9.86 13.66, 8.1 13.88 C6.34 14.09, 4.68 13.63, 3.46 12.99 C2.23 12.35, 1.41 11.33, 0.76 10.04 C0.1 8.75, -0.93 6.75, -0.48 5.26 C-0.04 3.77, 1.78 2.1, 3.43 1.11 C5.08 0.12, 8.15 -0.68, 9.42 -0.67 C10.68 -0.65, 11.05 0.78, 11.01 1.21 M5.39 1.92 C6.82 1.21, 8.77 -1.24, 10.06 -0.94 C11.36 -0.65, 12.42 2.38, 13.17 3.69 C13.92 5.01, 14.54 5.46, 14.57 6.94 C14.61 8.41, 14.47 11.34, 13.38 12.53 C12.29 13.72, 10 13.8, 8.03 14.08 C6.06 14.37, 2.84 14.88, 1.57 14.24 C0.3 13.6, 0.49 12.15, 0.41 10.26 C0.32 8.37, 0.41 4.32, 1.07 2.9 C1.73 1.47, 3.84 2.1, 4.36 1.7 C4.87 1.31, 4.09 0.81, 4.16 0.52" stroke="#e8590c" stroke-width="1" fill="none"></path></g><g stroke-linecap="round" transform="translate(528.3538021331369 248.4411586145443) rotate(0 316.00551576191896 216.5)"><path d="M32 0 M32 0 C173.07 2.12, 311.1 1.05, 600.01 0 M600.01 0 C618.14 1.59, 635.84 13.29, 632.01 32 M632.01 32 C630.8 150.8, 632.85 270.1, 632.01 401 M632.01 401 C628.71 422.77, 621.35 430.45, 600.01 433 M600.01 433 C448.69 436.19, 296.81 436.88, 32 433 M32 433 C7.19 429.17, 2.36 422.39, 0 401 M0 401 C-1.92 296.09, -5.58 196.31, 0 32 M0 32 C1.06 8.7, 10.03 -3.07, 32 0" stroke="#e8590c" stroke-width="1.5" fill="none" stroke-dasharray="8 9"></path></g><g stroke-linecap="round"><g transform="translate(488.06131020349875 466.0431493540957) rotate(0 -41.00186523290382 -0.7055986035998885)"><path d="M0.17 0.36 C-13.46 -0.08, -67.96 -1.36, -81.5 -1.77 M-1.19 -0.5 C-14.97 -0.83, -68.81 -0.26, -82.18 -0.35" stroke="#e8590c" stroke-width="1" fill="none"></path></g></g><mask></mask><g stroke-linecap="round"><g transform="translate(211.93491512049928 390.28016667828535) rotate(0 57.52634598582689 63.09189204208441)"><path d="M-0.88 -0.06 C-0.51 18.87, 1.22 93.62, 1.28 114.67 C1.34 135.72, -1.2 123.33, -0.52 126.24 C0.16 129.14, 0.75 130.23, 5.35 132.1 C9.96 133.97, 17.71 136.51, 27.11 137.46 C36.51 138.41, 50.29 137.94, 61.75 137.82 C73.22 137.7, 87.27 137.95, 95.91 136.75 C104.56 135.55, 110.19 132.52, 113.61 130.61 C117.04 128.7, 115.87 127.97, 116.48 125.3 C117.08 122.63, 117.4 133.78, 117.22 114.58 C117.05 95.38, 115.76 29.24, 115.43 10.08 C115.11 -9.07, 116.49 2.26, 115.28 -0.35 C114.06 -2.96, 112.05 -4.02, 108.15 -5.58 C104.24 -7.14, 100.67 -8.71, 91.86 -9.72 C83.04 -10.73, 65.91 -11.72, 55.27 -11.64 C44.63 -11.56, 36.2 -10.39, 27.99 -9.26 C19.79 -8.13, 10.74 -6.36, 6.03 -4.86 C1.31 -3.36, 0.71 -1.16, -0.3 -0.27 C-1.3 0.62, -0.09 0.59, -0.02 0.49 M0.86 -1.14 C1.23 18.01, 1.2 91.71, 0.8 113.14 C0.39 134.58, -2.31 124.1, -1.57 127.45 C-0.82 130.8, 0.7 131.45, 5.27 133.24 C9.83 135.04, 16.17 137.67, 25.8 138.22 C35.43 138.78, 51.23 136.96, 63.05 136.57 C74.87 136.18, 88.46 136.89, 96.73 135.87 C105 134.85, 109.62 132.47, 112.68 130.46 C115.74 128.45, 114.72 126.57, 115.08 123.8 C115.43 121.03, 114.75 133.19, 114.81 113.84 C114.87 94.49, 115.6 26.8, 115.44 7.7 C115.27 -11.39, 114.95 1.59, 113.8 -0.72 C112.64 -3.03, 112.29 -4.6, 108.49 -6.17 C104.68 -7.75, 99.88 -9.19, 90.97 -10.16 C82.06 -11.13, 65.32 -11.87, 55.04 -12.02 C44.75 -12.18, 37.53 -12.41, 29.24 -11.09 C20.95 -9.77, 10.48 -5.96, 5.32 -4.11 C0.16 -2.27, -0.58 -0.86, -1.7 0 C-2.83 0.85, -1.82 0.91, -1.42 1" stroke="#e8590c" stroke-width="1" fill="none"></path></g></g><mask></mask><g stroke-linecap="round"><g transform="translate(212.8416731285251 476.4100106229181) rotate(0 58.43211702833848 5.8075906219607205)"><path d="M0.89 1.15 C1.46 1.98, 0.07 3.55, 2.53 4.95 C4.99 6.35, 10.38 8.24, 15.67 9.55 C20.95 10.86, 26.62 12.4, 34.23 12.8 C41.83 13.2, 51.32 12.14, 61.29 11.93 C71.26 11.72, 85.47 12.7, 94.04 11.54 C102.6 10.38, 108.86 7.02, 112.69 4.96 C116.52 2.9, 116.23 0.2, 117.01 -0.82 M-0.1 0.7 C0.34 1.73, -1.14 4.67, 1.3 6.37 C3.75 8.07, 9.01 10.2, 14.56 10.9 C20.12 11.61, 27.11 10.41, 34.64 10.61 C42.16 10.81, 50.14 12.05, 59.7 12.11 C69.25 12.17, 83.01 12.35, 91.96 10.96 C100.92 9.58, 109.37 5.84, 113.42 3.8 C117.47 1.76, 115.8 -0.78, 116.26 -1.27" stroke="#e8590c" stroke-width="1" fill="none"></path></g></g><mask></mask><g stroke-linecap="round"><g transform="translate(211.3988242845898 432.7790382699674) rotate(0 58.434545544241075 6.201899210723987)"><path d="M-0.54 -0.21 C-0.28 0.47, -0.43 3.49, 2.43 5.22 C5.29 6.96, 11.4 9.1, 16.61 10.18 C21.82 11.26, 26.16 11.19, 33.69 11.69 C41.23 12.19, 51.81 13.32, 61.84 13.21 C71.87 13.1, 85.35 12.49, 93.88 11.02 C102.42 9.55, 109.11 6.41, 113.03 4.38 C116.95 2.35, 116.93 -0.4, 117.41 -1.13 M1.38 -1.36 C1.96 0.04, 2.37 5.2, 4.81 6.8 C7.24 8.4, 11.17 7.25, 16.01 8.21 C20.85 9.17, 26.4 11.61, 33.82 12.58 C41.25 13.56, 50.28 14.46, 60.54 14.06 C70.8 13.66, 86.49 12.03, 95.39 10.17 C104.29 8.31, 110.37 4.91, 113.95 2.92 C117.53 0.93, 116.26 -1.08, 116.86 -1.75" stroke="#e8590c" stroke-width="1" fill="none"></path></g></g><mask></mask><g stroke-linecap="round" transform="translate(209.92025032616232 379.6940971668732) rotate(0 57.813832746655294 11.692412721688163)"><path d="M64.9 0.37 C74.84 0.52, 87.71 1.51, 95.78 2.89 C103.86 4.28, 110.42 6.56, 113.35 8.67 C116.27 10.79, 116.24 13.71, 113.33 15.59 C110.41 17.46, 103.51 18.66, 95.84 19.92 C88.17 21.18, 77.52 22.69, 67.32 23.13 C57.11 23.57, 44.18 23.45, 34.63 22.57 C25.07 21.69, 15.83 19.8, 10 17.86 C4.16 15.93, -0.22 12.97, -0.38 10.96 C-0.54 8.96, 3.29 7.34, 9.02 5.85 C14.75 4.35, 23.7 2.95, 33.97 2 C44.24 1.04, 63.74 0.3, 70.65 0.1 C77.56 -0.1, 75.57 0.55, 75.42 0.79 M36.14 -0.43 C44.89 -1.12, 59.26 -0.4, 69.87 0.4 C80.48 1.2, 92.49 2.82, 99.8 4.39 C107.1 5.96, 111.44 7.99, 113.72 9.81 C116 11.64, 116.98 13.57, 113.49 15.34 C109.99 17.1, 101.51 19.17, 92.76 20.4 C84.01 21.63, 71.51 22.52, 60.97 22.72 C50.44 22.91, 38.71 22.37, 29.56 21.58 C20.41 20.78, 10.97 19.69, 6.08 17.94 C1.18 16.19, -0.88 13.42, 0.2 11.09 C1.27 8.76, 6.37 5.92, 12.52 3.97 C18.67 2.01, 33.08 0.05, 37.1 -0.64 C41.12 -1.34, 36.06 -0.63, 36.65 -0.23" stroke="#e8590c" stroke-width="1" fill="none"></path></g><g stroke-linecap="round" transform="translate(304.2549111598356 412.11416020647135) rotate(0 8.473171382344987 9.195984777818534)"><path d="M8.42 0.19 C10.23 -0.08, 12.25 0.84, 13.59 2.07 C14.93 3.29, 16.11 5.78, 16.46 7.53 C16.82 9.27, 16.37 10.89, 15.73 12.53 C15.08 14.18, 14.12 16.44, 12.56 17.4 C11.01 18.35, 8.18 18.8, 6.41 18.27 C4.64 17.74, 3.06 16.01, 1.93 14.23 C0.8 12.44, -0.49 9.41, -0.36 7.55 C-0.23 5.69, 0.92 4.17, 2.73 3.07 C4.53 1.96, 9.05 1.37, 10.48 0.95 C11.92 0.53, 11.54 0.54, 11.34 0.54 M11.54 -0.65 C13.01 -0.4, 12.98 0.6, 13.88 2.31 C14.78 4.02, 16.59 7.28, 16.96 9.61 C17.32 11.94, 17.38 14.76, 16.08 16.31 C14.78 17.87, 10.94 18.9, 9.16 18.95 C7.39 19, 6.88 17.87, 5.44 16.63 C4 15.38, 1.54 13.38, 0.53 11.47 C-0.48 9.56, -1.14 6.96, -0.61 5.16 C-0.09 3.37, 2.07 1.43, 3.69 0.7 C5.3 -0.03, 7.99 0.82, 9.08 0.79 C10.17 0.77, 9.87 0.63, 10.22 0.55" stroke="#e8590c" stroke-width="1" fill="none"></path></g><g stroke-linecap="round" transform="translate(304.2549111598356 452.4844987967219) rotate(0 8.473171382344987 9.19598477781853)"><path d="M9.93 0.52 C11.5 0.76, 13.48 2.48, 14.57 3.79 C15.67 5.09, 16.32 6.53, 16.49 8.35 C16.67 10.17, 16.66 13.06, 15.63 14.73 C14.6 16.4, 12.13 17.98, 10.34 18.36 C8.55 18.75, 6.57 18.14, 4.89 17.04 C3.2 15.94, 0.94 13.49, 0.24 11.77 C-0.46 10.05, -0.09 8.29, 0.69 6.71 C1.46 5.13, 3.25 3.39, 4.88 2.28 C6.51 1.17, 9.42 0.33, 10.45 0.06 C11.47 -0.21, 10.99 0.46, 11.02 0.66 M4.24 -0.59 C5.59 -1.2, 9.15 -0.35, 11.29 0.66 C13.42 1.68, 16.2 3.72, 17.04 5.5 C17.87 7.28, 16.57 9.63, 16.3 11.34 C16.03 13.05, 16.69 14.7, 15.42 15.77 C14.15 16.85, 10.93 17.79, 8.68 17.77 C6.43 17.76, 3.44 16.89, 1.89 15.68 C0.34 14.46, -0.3 12.23, -0.62 10.5 C-0.94 8.77, -1.06 6.92, -0.03 5.3 C1 3.68, 4.43 1.66, 5.54 0.78 C6.66 -0.11, 6.68 0.13, 6.68 0.01" stroke="#e8590c" stroke-width="1" fill="none"></path></g><g stroke-linecap="round" transform="translate(304.2549111598356 496.36169280807337) rotate(0 8.473171382344987 9.19598477781853)"><path d="M8.91 0.78 C10.51 0.65, 12.52 0.87, 13.93 2.1 C15.34 3.33, 17.1 6.08, 17.37 8.15 C17.64 10.23, 16.6 12.94, 15.57 14.54 C14.53 16.14, 12.98 17.4, 11.16 17.76 C9.33 18.12, 6.29 17.4, 4.62 16.69 C2.94 15.99, 1.7 15.02, 1.13 13.54 C0.55 12.06, 0.77 9.81, 1.17 7.81 C1.57 5.82, 1.89 2.78, 3.51 1.55 C5.14 0.32, 9.3 0.42, 10.92 0.43 C12.55 0.45, 13.39 1.35, 13.26 1.65 M6.15 0.5 C8.2 0.24, 11.63 0.91, 13.19 1.79 C14.76 2.68, 14.73 4.28, 15.55 5.82 C16.37 7.36, 18.45 9.32, 18.11 11.02 C17.78 12.72, 15.47 14.9, 13.56 16.01 C11.65 17.13, 8.63 17.83, 6.67 17.73 C4.72 17.63, 3.11 16.57, 1.82 15.41 C0.53 14.25, -1.01 12.63, -1.07 10.76 C-1.12 8.9, 0.12 6.1, 1.51 4.24 C2.9 2.38, 6.54 0.45, 7.27 -0.4 C8.01 -1.25, 6.24 -0.94, 5.9 -0.87" stroke="#e8590c" stroke-width="1" fill="none"></path></g><g transform="translate(211.1927826385225 542.3488012029801) rotate(0 58.59375 12)"><text x="0" y="0" font-family="Cascadia, Segoe UI Emoji" font-size="20px" fill="#e8590c" text-anchor="start" style="white-space: pre;" direction="ltr" dominant-baseline="text-before-edge">PostgreSQL</text></g><g transform="translate(422.04160462608854 480.42923860972974) rotate(0 23.4375 12)"><text x="23.4375" y="0" font-family="Cascadia, Segoe UI Emoji" font-size="20px" fill="#e8590c" text-anchor="middle" style="white-space: pre;" direction="ltr" dominant-baseline="text-before-edge">JDBC</text></g><g stroke-linecap="round" transform="translate(1123.4717906223295 445.0847234384528) rotate(0 33 19)"><path d="M0.36 5.61 C0.36 5.61, 0.36 5.61, 0.36 5.61 M0.36 5.61 C0.36 5.61, 0.36 5.61, 0.36 5.61 M0.75 11.26 C5.58 7.43, 8.55 3.47, 9.94 0.69 M0.75 11.26 C3.62 9.3, 5.58 6.71, 9.94 0.69 M0.49 17.65 C5.65 11.1, 11.91 6.35, 15.58 0.3 M0.49 17.65 C2.51 14.38, 6.96 11.4, 15.58 0.3 M0.23 24.05 C8.21 18.37, 13.63 8.89, 20.57 0.66 M0.23 24.05 C5.34 18.39, 11.13 11.47, 20.57 0.66 M0.63 29.69 C10.67 20.18, 17.28 13.31, 26.21 0.26 M0.63 29.69 C6.04 22.03, 12.66 15.57, 26.21 0.26 M2.33 33.83 C7.93 25.02, 15.32 16.96, 31.2 0.62 M2.33 33.83 C13.94 22.55, 24.63 8.25, 31.2 0.62 M4.7 37.21 C14.68 23.75, 26.33 11.6, 36.84 0.23 M4.7 37.21 C13.19 27.91, 20.86 19.6, 36.84 0.23 M8.37 39.08 C15.96 27.4, 28.61 18.54, 41.83 0.59 M8.37 39.08 C16.68 30.19, 22.87 21.75, 41.83 0.59 M12.7 40.19 C25.95 26.69, 37.38 11.41, 47.47 0.19 M12.7 40.19 C22.66 27.5, 32.61 14.84, 47.47 0.19 M17.69 40.55 C28.32 29.77, 33.53 21.23, 52.46 0.55 M17.69 40.55 C30.19 27.13, 42.71 13.52, 52.46 0.55 M23.33 40.16 C37.83 26.15, 48.11 8.57, 57.45 0.91 M23.33 40.16 C32.77 29.38, 42.63 16.51, 57.45 0.91 M28.32 40.52 C36.02 34.6, 39.65 23.88, 61.78 2.03 M28.32 40.52 C38.39 28.28, 48.3 17, 61.78 2.03 M33.31 40.88 C39.38 33.13, 49.44 23.61, 65.45 3.9 M33.31 40.88 C43.2 29.81, 54.53 16.9, 65.45 3.9 M38.95 40.48 C44.85 35.76, 50.3 25.42, 67.16 8.03 M38.95 40.48 C46.07 32.12, 52.61 24.24, 67.16 8.03 M43.94 40.84 C54.63 28.66, 64.85 19.48, 68.87 12.16 M43.94 40.84 C50.88 34.07, 57.34 26.34, 68.87 12.16 M49.58 40.45 C53.27 33.8, 61.35 28.12, 69.26 17.81 M49.58 40.45 C56.85 32.63, 62.73 25.66, 69.26 17.81 M56.53 38.54 C61.42 36.33, 62.45 30.82, 69 24.2 M56.53 38.54 C59.65 35.02, 62.88 31.62, 69 24.2" stroke="#fab005" stroke-width="0.5" fill="none"></path><path d="M9.5 0 M9.5 0 C21.03 1.86, 28.91 -1.52, 56.5 0 M9.5 0 C22.86 -0.38, 37.45 -0.29, 56.5 0 M56.5 0 C62.23 -0.24, 64.23 1.82, 66 9.5 M56.5 0 C63.68 0.03, 66.13 4.75, 66 9.5 M66 9.5 C66.89 15.85, 66.57 20.96, 66 28.5 M66 9.5 C65.94 13.06, 65.43 18.1, 66 28.5 M66 28.5 C65.94 36.82, 63.12 39.05, 56.5 38 M66 28.5 C64.69 32.64, 62.16 39.98, 56.5 38 M56.5 38 C44.97 38.66, 33.82 39.78, 9.5 38 M56.5 38 C42.91 38.44, 31.09 37.17, 9.5 38 M9.5 38 C3.57 38.95, -0.17 33.63, 0 28.5 M9.5 38 C2.27 38.96, -1 35.42, 0 28.5 M0 28.5 C1.88 21.29, 1.35 16.8, 0 9.5 M0 28.5 C-0.89 21.89, -0.87 14.6, 0 9.5 M0 9.5 C0.21 1.61, 2.19 -0.4, 9.5 0 M0 9.5 C-0.62 4.43, 4.47 -1.19, 9.5 0" stroke="#f08c00" stroke-width="1" fill="none"></path></g><g transform="translate(1133.0342906223295 452.0847234384528) rotate(0 23.4375 12)"><text x="23.4375" y="0" font-family="Cascadia, Segoe UI Emoji" font-size="20px" fill="#f08c00" text-anchor="middle" style="white-space: pre;" direction="ltr" dominant-baseline="text-before-edge">Port</text></g><g stroke-linecap="round"><g transform="translate(991.9569765350122 330.48683299253736) rotate(0 65.28846774643534 57.20945151373255)"><path d="M0.08 -0.33 C21.68 18.8, 108.99 95.64, 130.5 114.75" stroke="#f08c00" stroke-width="1.5" fill="none" stroke-dasharray="1.5 7"></path></g></g><mask></mask><g stroke-linecap="round"><g transform="translate(994.5262820632865 426.40757271478105) rotate(0 63.20692874384238 16.03316415079862)"><path d="M-0.4 -0.73 C20.89 4.8, 105.7 27.13, 126.82 32.79" stroke="#f08c00" stroke-width="1.5" fill="none" stroke-dasharray="1.5 7"></path></g></g><mask></mask><g stroke-linecap="round"><g transform="translate(996.2391524154696 524.0411827892077) rotate(0 62.11703446166325 -27.74953978849078)"><path d="M-0.72 -1.12 C20.26 -10.15, 104.05 -45.29, 124.96 -54.37" stroke="#f08c00" stroke-width="1.5" fill="none" stroke-dasharray="1.5 7"></path></g></g><mask></mask><g stroke-linecap="round"><g transform="translate(996.2391524154696 618.2490521592684) rotate(0 63.56937196509651 -67.84658242750862)"><path d="M1.15 1.04 C22.17 -21.67, 105.19 -113.93, 125.99 -136.74" stroke="#f08c00" stroke-width="1.5" fill="none" stroke-dasharray="1.5 7"></path></g></g><mask></mask><g stroke-linecap="round"><g transform="translate(1523.8611889987897 466.59522273031547) rotate(0 -163.82727294598124 -1.412130080548259)"><path d="M-0.8 0.7 C-55.51 0.24, -273.05 -1.24, -327.73 -1.62 M0.98 0.02 C-53.92 -0.3, -274.04 -2.9, -328.64 -3.52" stroke="#099268" stroke-width="1" fill="none"></path></g></g><mask></mask><g transform="translate(1444.2248180950094 479.46967112283147) rotate(0 29.296875 12)"><text x="29.296875" y="0" font-family="Cascadia, Segoe UI Emoji" font-size="20px" fill="#099268" text-anchor="middle" style="white-space: pre;" direction="ltr" dominant-baseline="text-before-edge">HTTPS</text></g><g stroke-linecap="round"><g stroke-opacity="0.3" fill-opacity="0.3" transform="translate(110.4753525960902 755.8690740140373) rotate(0 558.3204993341984 -0.5057387962424684)"><path d="M0.43 0.95 C186.54 0.74, 931.15 -1.58, 1117.44 -1.96 M-0.8 0.4 C185.04 0.38, 929.85 -0.81, 1116.24 -0.91" stroke="#1971c2" stroke-width="4" fill="none"></path></g></g><mask></mask><g stroke-linecap="round"><g stroke-opacity="0.3" fill-opacity="0.3" transform="translate(116.22357999063473 754.3733514120879) rotate(0 -15.882269828424114 -180.77951032717172)"><path d="M-0.47 -0.93 C-11.13 -3.98, -49.01 -10.08, -63.52 -17.33 C-78.03 -24.58, -80.52 -31.97, -87.51 -44.45 C-94.5 -56.92, -103.24 -65.62, -105.45 -92.17 C-107.65 -118.72, -104.86 -176.64, -100.75 -203.75 C-96.64 -230.85, -92.66 -236.3, -80.76 -254.83 C-68.87 -273.36, -49.56 -297.59, -29.37 -314.92 C-9.19 -332.26, 23.04 -351.45, 40.35 -358.86 C57.65 -366.26, 69.05 -359.19, 74.46 -359.35 M1.48 1.2 C-9.35 -1.75, -49.4 -8.52, -64.33 -15.96 C-79.25 -23.4, -81.3 -30.89, -88.05 -43.45 C-94.81 -56, -102.49 -64.56, -104.85 -91.29 C-107.22 -118.02, -105.93 -176.91, -102.25 -203.82 C-98.57 -230.73, -95.07 -234.59, -82.78 -252.75 C-70.48 -270.92, -48.77 -295.16, -28.46 -312.81 C-8.15 -330.46, 22.16 -350.66, 39.1 -358.66 C56.05 -366.65, 67.55 -360.44, 73.22 -360.76" stroke="#1971c2" stroke-width="4" fill="none"></path></g></g><mask></mask><g stroke-linecap="round"><g stroke-opacity="0.3" fill-opacity="0.3" transform="translate(190.0530816927498 384.7752868379299) rotate(0 229.35507811906012 -187.5444785436066)"><path d="M0.27 -0.31 C-5.8 -22.08, -30.36 -97.75, -36.91 -131.51 C-43.46 -165.27, -41.51 -183.65, -39.03 -202.87 C-36.55 -222.08, -34.52 -227.87, -22.04 -246.8 C-9.57 -265.73, 15.34 -298.73, 35.8 -316.46 C56.26 -334.18, 79.37 -344.21, 100.7 -353.16 C122.03 -362.11, 133.95 -366.99, 163.79 -370.16 C193.63 -373.34, 241.54 -376.08, 279.74 -372.21 C317.94 -368.33, 368.54 -354.8, 392.99 -346.9 C417.45 -339, 408.51 -350.35, 426.45 -324.83 C444.39 -299.3, 488.3 -215.43, 500.64 -193.75 M-1.04 -1.52 C-7.2 -23.05, -31.23 -96.92, -37.63 -130.29 C-44.03 -163.66, -42.08 -182.46, -39.45 -201.77 C-36.81 -221.08, -34.16 -227.02, -21.82 -246.16 C-9.49 -265.3, 14.47 -298.57, 34.56 -316.61 C54.65 -334.65, 77.11 -345.33, 98.72 -354.39 C120.33 -363.45, 134.14 -367.94, 164.21 -370.97 C194.28 -374, 240.76 -376.92, 279.15 -372.57 C317.54 -368.23, 370.41 -352.72, 394.55 -344.9 C418.68 -337.09, 406.31 -351.05, 423.95 -325.69 C441.6 -300.33, 487.41 -215.02, 500.44 -192.75" stroke="#1971c2" stroke-width="4" fill="none"></path></g></g><mask></mask><g stroke-linecap="round"><g stroke-opacity="0.3" fill-opacity="0.3" transform="translate(685.2851511564302 184.83952466317567) rotate(0 213.81705970790188 50.04149411436451)"><path d="M0.42 -0.61 C10.9 -7.35, 38.1 -31.33, 63.14 -40.76 C88.17 -50.18, 104.99 -57.73, 150.62 -57.18 C196.25 -56.62, 294.47 -48.87, 336.93 -37.45 C379.38 -26.04, 390.28 -21.16, 405.33 11.3 C420.38 43.76, 423.39 133.13, 427.25 157.29 M-0.81 1.68 C9.54 -4.86, 37.43 -29.77, 62.54 -39.44 C87.64 -49.11, 104.01 -56.74, 149.82 -56.32 C195.64 -55.9, 295.02 -48.2, 337.41 -36.9 C379.79 -25.59, 388.95 -20.79, 404.12 11.49 C419.3 43.77, 424.82 132.9, 428.45 156.79" stroke="#1971c2" stroke-width="4" fill="none"></path></g></g><mask></mask><g stroke-linecap="round"><g stroke-opacity="0.3" fill-opacity="0.3" transform="translate(1220.1890662621777 754.8792584995829) rotate(0 53.041847838517356 -224.832137003629)"><path d="M0.66 -0.42 C17.36 -9.54, 72.47 -33.49, 100.6 -55.34 C128.73 -77.19, 154.27 -107.16, 169.44 -131.53 C184.61 -155.9, 188.06 -173.27, 191.61 -201.56 C195.16 -229.84, 196.5 -271.34, 190.74 -301.25 C184.99 -331.17, 174.11 -358.36, 157.08 -381.05 C140.04 -403.74, 111.1 -426.16, 88.53 -437.37 C65.97 -448.58, 46.1 -449.93, 21.68 -448.32 C-2.74 -446.71, -39.32 -434.38, -57.97 -427.72 C-76.62 -421.06, -85.05 -411.59, -90.23 -408.38 M-0.45 -1.68 C16.05 -10.63, 71.4 -32.75, 99.62 -54.26 C127.85 -75.78, 153.49 -106.36, 168.91 -130.76 C184.33 -155.16, 188.16 -171.78, 192.13 -200.65 C196.09 -229.52, 198.86 -273.73, 192.72 -303.98 C186.57 -334.22, 172.59 -360.22, 155.26 -382.12 C137.93 -404.01, 111.11 -424.18, 88.74 -435.34 C66.37 -446.5, 45.26 -450.12, 21.05 -449.07 C-3.16 -448.03, -37.98 -436.32, -56.5 -429.08 C-75.01 -421.85, -84.69 -409.2, -90.06 -405.69" stroke="#1971c2" stroke-width="4" fill="none"></path></g></g><mask></mask><g stroke-linecap="round" transform="translate(487.57011175314636 446.4411586145443) rotate(0 33 19)"><path d="M0.36 5.61 C0.36 5.61, 0.36 5.61, 0.36 5.61 M0.36 5.61 C0.36 5.61, 0.36 5.61, 0.36 5.61 M0.75 11.26 C2.75 7.71, 5.82 3.68, 9.94 0.69 M0.75 11.26 C3.72 7.66, 7.45 3.56, 9.94 0.69 M0.49 17.65 C2.23 15.03, 9.26 11.58, 15.58 0.3 M0.49 17.65 C7.01 11.61, 12.07 4.59, 15.58 0.3 M0.23 24.05 C5.94 19.31, 10.87 11.34, 20.57 0.66 M0.23 24.05 C6.85 15.61, 14.54 8.25, 20.57 0.66 M0.63 29.69 C7.5 24.93, 9.62 18.59, 26.21 0.26 M0.63 29.69 C7.63 19.6, 15.98 10.7, 26.21 0.26 M2.33 33.83 C11.95 27.19, 18.37 16.1, 31.2 0.62 M2.33 33.83 C8.57 27, 14.2 20, 31.2 0.62 M4.7 37.21 C18.28 22.01, 30.06 10, 36.84 0.23 M4.7 37.21 C13.08 28.13, 19.4 19.61, 36.84 0.23 M8.37 39.08 C16.07 27.6, 26.45 16.05, 41.83 0.59 M8.37 39.08 C19.72 26.89, 30.12 12.71, 41.83 0.59 M12.7 40.19 C25.08 28.33, 35.38 12.71, 47.47 0.19 M12.7 40.19 C20.51 32.7, 27.41 23.97, 47.47 0.19 M17.69 40.55 C29.59 28.26, 40.9 13.48, 52.46 0.55 M17.69 40.55 C28.13 29.53, 37.67 16.5, 52.46 0.55 M23.33 40.16 C33.9 27.4, 46.43 10.84, 57.45 0.91 M23.33 40.16 C36.04 24.49, 49.26 10.45, 57.45 0.91 M28.32 40.52 C40.58 26.17, 51.95 12.25, 61.78 2.03 M28.32 40.52 C40.23 27.38, 51.47 13.93, 61.78 2.03 M33.31 40.88 C38.06 33.07, 45.33 27.59, 65.45 3.9 M33.31 40.88 C39.06 32.34, 47 25.52, 65.45 3.9 M38.95 40.48 C44.11 33.62, 50.61 26.72, 67.16 8.03 M38.95 40.48 C45.62 33.43, 52.56 25.36, 67.16 8.03 M43.94 40.84 C50.6 33.43, 56.43 27.15, 68.87 12.16 M43.94 40.84 C49.46 34.39, 55.18 27.53, 68.87 12.16 M49.58 40.45 C54.39 35.06, 58.42 29.11, 69.26 17.81 M49.58 40.45 C56.85 32.68, 64.39 22.5, 69.26 17.81 M56.53 38.54 C58.38 33.81, 59.82 31.75, 69 24.2 M56.53 38.54 C60.17 35.31, 61.94 32.38, 69 24.2" stroke="#fab005" stroke-width="0.5" fill="none"></path><path d="M9.5 0 M9.5 0 C25.84 -0.36, 37.56 -1.77, 56.5 0 M9.5 0 C23.94 0.52, 37.23 0.23, 56.5 0 M56.5 0 C62.08 -1.78, 65.08 4.31, 66 9.5 M56.5 0 C60.67 -0.97, 68.05 4.99, 66 9.5 M66 9.5 C65.41 15.79, 66.3 21.09, 66 28.5 M66 9.5 C66.74 17.2, 66.03 22.98, 66 28.5 M66 28.5 C66.1 32.87, 61.71 36.4, 56.5 38 M66 28.5 C63.71 35.36, 64.84 36.91, 56.5 38 M56.5 38 C41.23 37.18, 22.84 37.14, 9.5 38 M56.5 38 C41.69 37.54, 29.17 37.78, 9.5 38 M9.5 38 C3.96 39.79, 1.34 33.35, 0 28.5 M9.5 38 C2.41 37.66, -0.44 34.84, 0 28.5 M0 28.5 C-1.55 24.69, 0.21 18.1, 0 9.5 M0 28.5 C0.57 21.03, 0.83 14.66, 0 9.5 M0 9.5 C-1.8 1.87, 2.17 0.43, 9.5 0 M0 9.5 C1.78 1.24, 4.3 1.23, 9.5 0" stroke="#f08c00" stroke-width="1" fill="none"></path></g><g transform="translate(497.13261175314636 453.4411586145443) rotate(0 23.4375 12)"><text x="23.4375" y="0" font-family="Cascadia, Segoe UI Emoji" font-size="20px" fill="#f08c00" text-anchor="middle" style="white-space: pre;" direction="ltr" dominant-baseline="text-before-edge">Port</text></g><g stroke-linecap="round" transform="translate(183.5645959912274 362.9411586145443) rotate(0 86.50551576191896 106.50000000000001)"><path d="M32 0 M32 0 C64.71 3.88, 97.02 -1.29, 141.01 0 M141.01 0 C158.88 1.65, 170.54 6.86, 173.01 32 M173.01 32 C169.73 88.69, 169.02 152.67, 173.01 181 M173.01 181 C175.41 203.97, 163.51 213.75, 141.01 213 M141.01 213 C112.72 211.31, 76.57 212.02, 32 213 M32 213 C11.84 209.79, 2.2 198.54, 0 181 M0 181 C1.36 125.86, 5.58 71.17, 0 32 M0 32 C2.27 11.49, 6.86 -2.04, 32 0" stroke="#e8590c" stroke-width="1.5" fill="none" stroke-dasharray="8 9"></path></g><g stroke-linecap="round" transform="translate(333.57011175314636 447.4411586145443) rotate(0 33 19)"><path d="M0.36 5.61 C0.36 5.61, 0.36 5.61, 0.36 5.61 M0.36 5.61 C0.36 5.61, 0.36 5.61, 0.36 5.61 M0.75 11.26 C1.63 10.06, 5.69 5.35, 9.94 0.69 M0.75 11.26 C4.38 6.63, 7.52 3.77, 9.94 0.69 M0.49 17.65 C5.68 11.73, 11.88 6.36, 15.58 0.3 M0.49 17.65 C5.01 11.54, 10.71 4.98, 15.58 0.3 M0.23 24.05 C6.97 17.82, 13.94 9.42, 20.57 0.66 M0.23 24.05 C6.34 16.63, 11.51 10.71, 20.57 0.66 M0.63 29.69 C8.51 20.15, 18.63 7.46, 26.21 0.26 M0.63 29.69 C6.65 22.51, 13.9 16.15, 26.21 0.26 M2.33 33.83 C12.91 21.25, 24.89 9.24, 31.2 0.62 M2.33 33.83 C8.1 27.26, 14.51 19.06, 31.2 0.62 M4.7 37.21 C15.3 26.69, 23 15.3, 36.84 0.23 M4.7 37.21 C11.8 28.9, 19.68 20, 36.84 0.23 M8.37 39.08 C15.42 28.36, 26.02 21.33, 41.83 0.59 M8.37 39.08 C19.47 28.18, 29.03 15.78, 41.83 0.59 M12.7 40.19 C20.69 33.27, 27.15 22.82, 47.47 0.19 M12.7 40.19 C24.84 26.49, 37.24 11.31, 47.47 0.19 M17.69 40.55 C26.89 30.1, 33.52 22.45, 52.46 0.55 M17.69 40.55 C29.13 28.45, 39.31 16.05, 52.46 0.55 M23.33 40.16 C36.67 26.11, 47.55 13.54, 57.45 0.91 M23.33 40.16 C34.64 27.05, 47.09 12.31, 57.45 0.91 M28.32 40.52 C38.2 30.77, 49.51 16.51, 61.78 2.03 M28.32 40.52 C40.05 28.43, 52.02 14.32, 61.78 2.03 M33.31 40.88 C46.21 26.36, 57.45 10.9, 65.45 3.9 M33.31 40.88 C41.06 29.94, 51.15 20.23, 65.45 3.9 M38.95 40.48 C51.46 25.94, 61.83 17.07, 67.16 8.03 M38.95 40.48 C49.9 29.26, 59.61 15.87, 67.16 8.03 M43.94 40.84 C51.55 29.29, 62.13 22.3, 68.87 12.16 M43.94 40.84 C49.96 33.94, 54.24 27, 68.87 12.16 M49.58 40.45 C54.15 33.09, 59.63 27.67, 69.26 17.81 M49.58 40.45 C55.57 33.71, 63.48 25.56, 69.26 17.81 M56.53 38.54 C61.56 33.73, 62.85 28.78, 69 24.2 M56.53 38.54 C61.14 33.82, 63.69 28.31, 69 24.2" stroke="#fab005" stroke-width="0.5" fill="none"></path><path d="M9.5 0 M9.5 0 C25.28 -0.93, 45.73 -1.13, 56.5 0 M9.5 0 C26.74 -0.24, 44.93 0.44, 56.5 0 M56.5 0 C60.84 1.83, 66.28 2.17, 66 9.5 M56.5 0 C64.18 1.08, 65.31 2.76, 66 9.5 M66 9.5 C64.69 13.6, 67 22.26, 66 28.5 M66 9.5 C65 16.21, 66.4 21.42, 66 28.5 M66 28.5 C64.3 34.71, 63.9 37.97, 56.5 38 M66 28.5 C67.74 34.67, 63.87 36.41, 56.5 38 M56.5 38 C36.5 37.36, 17.85 40.12, 9.5 38 M56.5 38 C38.54 37.52, 18.86 37.86, 9.5 38 M9.5 38 C2.01 39.58, 1.18 36.56, 0 28.5 M9.5 38 C2.51 37.28, -0.4 33.04, 0 28.5 M0 28.5 C0.12 22.61, 1.3 15.59, 0 9.5 M0 28.5 C-0.49 21.45, -0.24 16.53, 0 9.5 M0 9.5 C-0.44 3.41, 2.42 -0.54, 9.5 0 M0 9.5 C1.2 2.97, 0.88 -0.16, 9.5 0" stroke="#f08c00" stroke-width="1" fill="none"></path></g><g transform="translate(343.13261175314636 454.4411586145443) rotate(0 23.4375 12)"><text x="23.4375" y="0" font-family="Cascadia, Segoe UI Emoji" font-size="20px" fill="#f08c00" text-anchor="middle" style="white-space: pre;" direction="ltr" dominant-baseline="text-before-edge">Port</text></g></svg>