<svg version="1.1" xmlns="http://www.w3.org/2000/svg" viewBox="0 0 749.778595369228 582.4994057627528" width="2249.335786107684" height="1747.4982172882583" filter="invert(93%) hue-rotate(180deg)">
  <!-- svg-source:excalidraw -->
  
  <defs>
    <style class="style-fonts">
      @font-face {
        font-family: "Virgil";
        src: url("https://excalidraw.com/Virgil.woff2");
      }
      @font-face {
        font-family: "Cascadia";
        src: url("https://excalidraw.com/Cascadia.woff2");
      }
    </style>
    
  </defs>
  <g stroke-linecap="round"><g stroke-opacity="0.3" fill-opacity="0.3" transform="translate(61.84592239797203 398.0258835348568) rotate(0 291.02433474479636 -0.63361389552594)"><path d="M0.96 0.31 C97.76 0.5, 483.07 0.32, 579.75 0.13 M0 -0.58 C97.29 -0.65, 485.3 -1.8, 582.05 -1.64" stroke="#1971c2" stroke-width="4" fill="none"></path></g></g><mask></mask><g stroke-linecap="round"><g stroke-opacity="0.3" fill-opacity="0.3" transform="translate(64.83101775939414 397.2491441516356) rotate(0 -8.02892968272937 -94.29216671348703)"><path d="M-0.79 0.67 C-6.38 -0.9, -25.18 -5.12, -32.64 -9.11 C-40.09 -13.11, -41.88 -16.79, -45.51 -23.31 C-49.14 -29.83, -53.33 -34.62, -54.43 -48.25 C-55.53 -61.87, -53.99 -91.01, -52.1 -105.05 C-50.21 -119.09, -49.27 -122.92, -43.09 -132.48 C-36.9 -142.05, -25.74 -153.38, -14.99 -162.44 C-4.25 -171.51, 12.68 -182.88, 21.39 -186.87 C30.11 -190.86, 34.49 -186.3, 37.29 -186.41 M1 -0.03 C-4.8 -1.45, -25.46 -4.01, -33.33 -7.72 C-41.19 -11.43, -42.77 -15.65, -46.19 -22.28 C-49.61 -28.9, -52.61 -33.75, -53.83 -47.46 C-55.04 -61.16, -55.41 -90.71, -53.47 -104.51 C-51.52 -118.3, -48.72 -120.42, -42.15 -130.22 C-35.59 -140.02, -24.52 -153.82, -14.08 -163.32 C-3.64 -172.81, 11.68 -183.14, 20.49 -187.2 C29.29 -191.26, 35.71 -188.1, 38.77 -187.7" stroke="#1971c2" stroke-width="4" fill="none"></path></g></g><mask></mask><g stroke-linecap="round"><g stroke-opacity="0.3" fill-opacity="0.3" transform="translate(103.17120299219383 205.31424101993105) rotate(0 120.05257723531841 -97.79523909348826)"><path d="M0.49 -0.28 C-2.58 -11.81, -15.83 -50.94, -19.23 -68.52 C-22.64 -86.1, -21.27 -95.92, -19.94 -105.73 C-18.6 -115.55, -17.46 -117.62, -11.23 -127.41 C-5 -137.2, 6.81 -155.34, 17.44 -164.49 C28.07 -173.63, 41.21 -177.59, 52.55 -182.3 C63.9 -187.01, 70.27 -190.95, 85.5 -192.74 C100.72 -194.54, 124.07 -195.08, 143.89 -193.09 C163.71 -191.1, 191.36 -184.85, 204.43 -180.81 C217.49 -176.78, 212.77 -182.14, 222.26 -168.88 C231.76 -155.63, 255.09 -112.82, 261.38 -101.28 M-0.71 -1.47 C-3.86 -12.9, -16.82 -50.06, -20.1 -67.27 C-23.37 -84.48, -21.88 -94.92, -20.35 -104.73 C-18.81 -114.54, -17.46 -116.2, -10.88 -126.15 C-4.29 -136.11, 8.91 -155, 19.15 -164.46 C29.4 -173.91, 39.4 -177.93, 50.58 -182.87 C61.77 -187.8, 70.35 -192.33, 86.26 -194.08 C102.16 -195.82, 126.62 -195.85, 146.02 -193.34 C165.43 -190.83, 190.38 -182.97, 202.71 -179.03 C215.04 -175.08, 210.09 -182.72, 220 -169.65 C229.91 -156.58, 255.16 -112.32, 262.16 -100.63" stroke="#1971c2" stroke-width="4" fill="none"></path></g></g><mask></mask><g stroke-linecap="round"><g stroke-opacity="0.3" fill-opacity="0.3" transform="translate(360.34873824184956 101.48617798667522) rotate(0 111.31252124689757 26.10172220325729)"><path d="M0.16 -0.54 C5.59 -4.09, 20.07 -16.81, 33.12 -21.55 C46.16 -26.28, 54.99 -29.26, 78.44 -28.94 C101.89 -28.61, 151.77 -25.58, 173.82 -19.6 C195.87 -13.61, 202.67 -9.83, 210.75 6.97 C218.83 23.76, 220.58 68.77, 222.32 81.17 M-1.22 1.78 C4.07 -1.58, 19.36 -15.45, 32.52 -20.32 C45.69 -25.2, 54.26 -27.71, 77.78 -27.47 C101.29 -27.22, 151.63 -24.74, 173.59 -18.85 C195.55 -12.97, 201.18 -8.67, 209.55 7.83 C217.93 24.33, 221.89 68.1, 223.85 80.14" stroke="#1971c2" stroke-width="4" fill="none"></path></g></g><mask></mask><g stroke-linecap="round"><g stroke-opacity="0.3" fill-opacity="0.3" transform="translate(638.1281450384769 397.51186529965855) rotate(0 27.448881009850282 -116.06344920495809)"><path d="M0.68 -0.6 C9.39 -5.17, 38.1 -16.68, 52.46 -27.98 C66.83 -39.29, 78.96 -55.85, 86.85 -68.45 C94.73 -81.05, 97.66 -88.82, 99.76 -103.57 C101.87 -118.32, 102.76 -141.27, 99.5 -156.96 C96.23 -172.64, 89.05 -185.88, 80.19 -197.68 C71.33 -209.49, 57.67 -221.9, 46.32 -227.79 C34.96 -233.68, 24.57 -233.85, 12.06 -233.01 C-0.44 -232.18, -18.91 -226.52, -28.71 -222.78 C-38.51 -219.03, -43.76 -212.54, -46.75 -210.54 M-0.43 1.7 C8.14 -3.21, 36.67 -18.42, 51.62 -29.95 C66.57 -41.48, 81.15 -54.88, 89.26 -67.49 C97.37 -80.11, 98.81 -90.81, 100.29 -105.66 C101.77 -120.5, 101.34 -141.06, 98.14 -156.55 C94.95 -172.05, 89.64 -187.06, 81.1 -198.63 C72.56 -210.2, 58.49 -220.13, 46.91 -225.97 C35.34 -231.81, 24.47 -234.53, 11.67 -233.67 C-1.14 -232.82, -20.27 -224.71, -29.92 -220.84 C-39.57 -216.97, -43.46 -211.76, -46.24 -210.45" stroke="#1971c2" stroke-width="4" fill="none"></path></g></g><mask></mask><g stroke-linecap="round"><g transform="translate(372.0681669264993 570.9323214130609) rotate(0 -2.2043017705322114 -112.74221568764517)"><path d="M-0.91 -0.69 C-1.7 -38.3, -3.89 -187.8, -4.54 -225.4 M0.81 1.57 C-0.11 -36.4, -4.17 -189.3, -5.22 -227.05" stroke="#e8590c" stroke-width="4" fill="none"></path></g><g transform="translate(372.0681669264993 570.9323214130609) rotate(0 -2.2043017705322114 -112.74221568764517)"><path d="M4.66 -198.28 C3.75 -207.68, -1.2 -218.47, -4.92 -227.2 M6.53 -199.68 C2.68 -204.54, 0.29 -210.91, -6.16 -226.8" stroke="#e8590c" stroke-width="4" fill="none"></path></g><g transform="translate(372.0681669264993 570.9323214130609) rotate(0 -2.2043017705322114 -112.74221568764517)"><path d="M-15.86 -197.72 C-10.28 -207.14, -8.74 -218.11, -4.92 -227.2 M-13.98 -199.13 C-13.29 -204.01, -11.13 -210.5, -6.16 -226.8" stroke="#e8590c" stroke-width="4" fill="none"></path></g></g><mask></mask><g transform="translate(344.9718227855394 165.25189925054474) rotate(0 21.38159224009388 57.3558969063109)"><text x="21.381592240093884" y="0" font-family="Virgil, Segoe UI Emoji" font-size="91.7694350500975px" fill="#e8590c" text-anchor="middle" style="white-space: pre;" direction="ltr" dominant-baseline="text-before-edge">?</text></g></svg>